<?xml version="1.0" encoding="utf-8"?>
<!-- Generator: Adobe Illustrator 22.0.0, SVG Export Plug-In . SVG Version: 6.00 Build 0)  -->
<svg version="1.1" id="Ebene_1" xmlns="http://www.w3.org/2000/svg" xmlns:xlink="http://www.w3.org/1999/xlink" x="0px" y="0px"
	 viewBox="0 0 45 34.1" style="enable-background:new 0 0 45 34.1;" xml:space="preserve">
<style type="text/css">
	.st0{fill:#FFFFFF;}
</style>
<g>
	<path class="st0" d="M40.9,28.6c0.2-0.1,0.5-0.2,0.7-0.3c0.3,0,0.4,0.1,0.3,0.4c0,0.1-0.1,0.2-0.1,0.2c0,0.1,0.1,0.3,0.2,0.3
		s0.3,0.1,0.4,0.1c0.2,0.1,0.2,0.2,0.2,0.3c0,0.1-0.1,0.2-0.2,0.3C42.2,30,42,30,41.8,30c-0.1,0-0.3,0-0.4,0c-0.1,0-0.1,0-0.2,0l0,0
		c0.1,0.1,0.2,0.2,0.3,0.3l0,0c0.1,0.1,0.2,0.2,0.4,0.3c0,0,0.1,0.1,0,0.2c0,0.1,0,0.1-0.1,0.2s-0.1,0.2-0.2,0.1
		c-0.1,0-0.3-0.1-0.3-0.2s-0.1-0.1-0.1-0.1c-0.1-0.1-0.2-0.2-0.2-0.2c-0.2-0.2-0.3-0.3-0.5-0.5c-0.1-0.1-0.2-0.1-0.3-0.2
		c0,0-0.1,0-0.1-0.1c-0.2-0.2-0.5-0.3-0.8-0.5c-0.4-0.2-0.8-0.2-1.2-0.3H38c-0.2-0.1-0.5-0.1-0.8-0.1s-0.6,0-1,0c0,0.1,0,0.2,0,0.3
		c0,0.1,0,0.2,0,0.3c0,0.2,0,0.3,0.1,0.5v0.1c0,0.4,0,0.7,0.1,1.1c0.1,0.2,0.1,0.3,0.2,0.5c0,0.1,0,0.2,0,0.3c0,0.2,0.1,0.3,0.1,0.4
		c0,0.1-0.1,0.1-0.1,0.2v0.1c0.1,0.1,0.1,0.1,0.2,0.2c0.1,0.1,0.1,0.2,0.1,0.3c-0.1,0.2-0.3,0.3-0.4,0.4c-0.2,0.1-0.5,0.1-0.7,0.2
		c-0.3,0.1-0.6,0.1-0.9,0.1c-0.5,0-0.9,0-1.4,0c-0.3,0-0.6-0.1-0.8-0.1c-0.3-0.1-0.5-0.2-0.8-0.3c-0.2-0.1-0.4-0.2-0.6-0.2
		c-0.1,0-0.1,0-0.2,0c-0.2,0.1-0.3,0.1-0.5,0.1c-0.3,0-0.5,0-0.8-0.1c-0.1,0-0.2-0.1-0.3-0.1c-0.1,0-0.1,0-0.2,0.1
		c-0.2,0-0.3,0.2-0.5,0.2s-0.3,0-0.4,0c-0.2,0-0.3,0.1-0.5,0.2c-0.4,0.3-0.8,0.3-1.3,0.1c-0.1,0-0.2-0.1-0.3-0.1
		c-0.1,0-0.2,0-0.2-0.1s-0.1-0.1-0.2-0.1c-0.1-0.1-0.1-0.1-0.2-0.2l-0.1-0.1c-0.1,0-0.1,0.1-0.2,0.2c0,0.1-0.1,0.2-0.1,0.3
		c0,0-0.1,0.1-0.2,0.1s-0.2,0-0.4,0c-0.4,0-0.7-0.1-1.1-0.1s-0.8-0.1-1.2-0.2c-0.4-0.1-0.7-0.2-1.1-0.2c-0.1,0-0.3,0-0.4-0.1
		c-0.1,0-0.2-0.1-0.3-0.1c-0.3-0.1-0.5-0.1-0.8-0.2c-0.1,0-0.3,0-0.4,0s-0.2,0-0.3,0c-0.3,0-0.6-0.1-0.9-0.1c-0.1,0-0.3-0.1-0.4-0.1
		s-0.1,0-0.2,0.1C17.5,33,17.4,33,17.2,33c-0.2,0-0.5,0.1-0.7,0.1v0.1c0.1,0.2-0.1,0.4-0.2,0.4c0,0-0.1,0-0.1,0.1
		c0.2,0.3,0,0.3-0.3,0.3c-0.5,0-0.9,0-1.4,0c-0.3,0-0.5,0-0.8-0.2c-0.1,0-0.2-0.1-0.2-0.2c-0.1-0.1-0.2-0.2-0.2-0.3l-0.1-0.1
		c-0.1-0.1-0.1-0.1-0.1-0.2C13,32.9,13,32.9,13,33c-0.1,0.1-0.2,0.2-0.3,0.3s-0.4,0-0.5-0.1c-0.1-0.3-0.2-0.5-0.2-0.8
		c0-0.1-0.1-0.1-0.1-0.2c0-0.1-0.1-0.1,0-0.2c0-0.1,0-0.1,0-0.2s0-0.2,0-0.3c0-0.2,0-0.4,0-0.7c0-0.1,0-0.3,0-0.4s-0.1-0.2-0.2-0.3
		c-0.3-0.2-0.6-0.4-0.8-0.8c-0.1-0.1-0.1-0.2-0.1-0.3c0.1-0.1,0.2-0.1,0.3-0.1s0.1,0,0.2,0c0.1,0,0.2,0,0.3,0c0-0.1,0-0.3,0-0.4
		c-0.4,0.1-0.7,0.1-1.1,0.2c-0.2,0.1-0.4,0.1-0.5,0.1s-0.4,0.1-0.6,0.1c-0.2,0-0.4,0-0.6,0.1c-0.2,0-0.3,0.1-0.4,0.1
		c-0.1,0-0.1,0-0.2,0c-0.1,0-0.2,0-0.3,0s-0.2,0-0.2,0C7.6,29,7.4,29,7.3,28.9C7.1,28.8,7,28.6,7,28.4c-0.1-0.4-0.2-0.8-0.3-1.2
		c-0.1-0.2-0.1-0.5-0.1-0.8c0-0.1-0.1-0.2-0.1-0.2c-0.1-0.1-0.1-0.3-0.1-0.5s-0.1-0.3-0.1-0.5C6,25.2,6,25,5.8,24.9
		c-0.1-0.1-0.1-0.2-0.1-0.2c-0.2-0.2-0.3-0.5-0.5-0.7c-0.1-0.1-0.2-0.2-0.4-0.2c-0.2,0-0.4,0-0.6,0S3.8,23.9,3.6,24
		c-0.3,0.2-0.6,0.4-1,0.6c-0.2,0.1-0.5,0-0.7,0c-0.1,0-0.1,0-0.2,0c-0.3,0-0.6-0.2-0.8-0.4c-0.4-0.5-0.6-1-0.8-1.6
		c0-0.1-0.1-0.2-0.1-0.3c0-0.3,0-0.6,0.1-1l0,0c0-0.2,0.1-0.4,0.2-0.7c0.2-0.3,0.3-0.6,0.4-0.9c0-0.1,0.1-0.2,0.1-0.3
		c0.1-0.2,0.3-0.5,0.4-0.7c0.1-0.2,0.1-0.4,0.1-0.7v-0.1c0-0.1-0.1-0.1-0.1-0.1c-0.2,0-0.4-0.1-0.5-0.3c-0.2-0.2-0.4-0.4-0.5-0.7
		v-0.1c0-0.1-0.1-0.1-0.1-0.2s0-0.1,0-0.1c0-0.2,0-0.3-0.1-0.5c0-0.1,0-0.1,0-0.2c0-0.1,0-0.1,0-0.2c0-0.1,0-0.1,0-0.2
		c0-0.2,0.1-0.3,0.1-0.5s0.1-0.2,0.2-0.3c0.1,0,0.1,0,0.1,0c0.2,0,0.3,0.1,0.4,0.2l0.1,0.1C1,15,1.1,15.1,1.2,15.1
		c0.3,0.1,0.6,0.3,0.7,0.6c0.2,0.2,0.3,0.4,0.4,0.6c0.2,0.3,0.3,0.5,0.2,0.8c-0.1,0.1-0.1,0.2-0.2,0.3c0,0,0,0,0,0.1
		c0,0.2,0,0.4-0.1,0.7c0,0.2-0.1,0.4-0.3,0.6s-0.3,0.5-0.4,0.7S1.3,19.8,1.2,20c-0.1,0.3-0.3,0.5-0.3,0.8c0,0.2-0.1,0.4-0.1,0.7
		c0,0.4,0,0.7,0.1,1.1C1,22.8,1,22.9,1.1,23.1c0.1,0.1,0.1,0.3,0.2,0.4c0.1,0.2,0.3,0.3,0.5,0.4c0.1,0,0.2,0,0.3-0.1
		c0.2-0.1,0.3-0.3,0.4-0.4c0.1-0.1,0.2-0.1,0.3-0.2C3.1,23.1,3.2,23,3.3,23c0.1-0.1,0.2-0.2,0.4-0.2l0,0c0.3-0.2,0.6-0.2,0.9-0.2
		c0.2,0,0.4,0,0.5,0.1c0.3,0.1,0.5,0.3,0.7,0.6C6,23.5,6.1,23.7,6.3,24c0.1,0.2,0.1,0.3,0.2,0.5c0,0.1,0.1,0.2,0.1,0.3
		C6.8,25.1,7,25.6,7.1,26c0.1,0.2,0.1,0.3,0.1,0.5s0.1,0.4,0.1,0.6s0,0.4,0,0.6s0.1,0.4,0.1,0.6c0,0.1,0.2,0.2,0.3,0.2s0.3,0,0.5,0
		c0.1,0,0.3,0,0.4,0c0.4,0,0.8-0.1,1.1-0.2c0.2-0.1,0.4-0.1,0.7-0.2c0.2-0.1,0.4-0.1,0.5-0.2c0.2-0.1,0.2-0.2,0.3-0.4
		c0.1-0.1,0.2-0.2,0.2-0.4c0,0,0-0.1,0.1-0.1c0-0.1,0.1-0.2,0.1-0.3v-0.1c-0.4-0.2-0.7-0.4-1-0.7c-0.3-0.2-0.6-0.4-0.9-0.7
		c-0.1-0.1-0.2-0.2-0.3-0.3c-0.1-0.1-0.1-0.2-0.1-0.2c-0.1-0.1-0.2-0.3-0.3-0.4c0-0.3-0.1-0.5-0.2-0.7c-0.1-0.2-0.3-0.4-0.4-0.6
		c-0.1-0.1-0.1-0.2-0.2-0.3c-0.1-0.1-0.1-0.1-0.2,0c-0.1,0.1-0.3,0.1-0.4-0.1s-0.2-0.2-0.3-0.2c-0.2,0-0.4,0-0.7-0.1
		C6.3,22.2,6,22.1,5.7,22c-0.1-0.1-0.2-0.3-0.1-0.4c0-0.1,0-0.1,0.1-0.2s0.1-0.1,0.2-0.1s0.3,0,0.4,0.1c0.3,0.1,0.6,0.3,0.9,0.3
		C7.1,21.4,7,21.1,7,20.8c0-0.1,0-0.2,0-0.4c0-0.1,0-0.1,0-0.2s0-0.2,0-0.3c0-0.1,0-0.2,0.1-0.3c0.1-0.2,0.2-0.2,0.3-0.1
		c0.2,0.1,0.3,0.2,0.3,0.3c0,0.1,0.1,0.2,0.1,0.3c0,0,0.2,0,0.2-0.3c0-0.1,0-0.2,0-0.3c0-0.1,0.1-0.2,0.2-0.2c0.1,0,0.2,0,0.3,0.1
		c0,0.1,0,0.2,0,0.3c0,0.3-0.1,0.6-0.1,0.9s0,0.5,0,0.8v0.1c0,0.1,0,0.2,0,0.3v0.1c-0.1,0.1,0,0.2,0.1,0.3c0.3,0.3,0.6,0.7,1,1
		c0.2,0.2,0.4,0.4,0.6,0.6c0.1,0.1,0.2,0.2,0.3,0.3c0,0,0.1,0,0.1,0.1c0,0,0.1,0,0.1,0.1c0.2,0.3,0.4,0.5,0.7,0.8
		c0.1,0.1,0.2,0.2,0.4,0.3c0.2,0.1,0.4,0.2,0.6,0.3c0.1-0.2,0.2-0.3,0.3-0.5c0.2-0.3,0.3-0.5,0.5-0.7c0.2-0.3,0.4-0.5,0.6-0.7l0,0
		c0-0.2,0.2-0.2,0.3-0.2c0.1-0.1,0.3-0.1,0.4-0.2c-0.1-0.1-0.2-0.2-0.4-0.3c-0.2-0.2-0.3-0.3-0.4-0.5c-0.2-0.2-0.4-0.5-0.7-0.7
		c-0.2-0.2-0.4-0.3-0.5-0.6c-0.1-0.3-0.4-0.5-0.6-0.8c-0.1-0.1-0.2-0.2-0.2-0.3c-0.1-0.1-0.2-0.3-0.3-0.4c-0.2-0.3-0.3-0.6-0.5-0.9
		c-0.1-0.1-0.1-0.3-0.1-0.4s-0.1-0.2-0.1-0.3c0-0.1-0.1-0.1-0.1-0.2c-0.1-0.2-0.1-0.3-0.1-0.5c0-0.1,0-0.2-0.1-0.3l0,0
		c-0.1-0.1-0.1-0.2-0.1-0.3c0-0.1,0-0.2-0.1-0.3c0-0.1,0-0.3-0.1-0.4c0,0,0,0,0-0.1c0-0.2-0.1-0.4-0.1-0.6c0,0,0,0,0-0.1
		s0-0.3,0-0.4c0-0.2,0-0.3,0-0.5s0-0.5,0-0.7c0-0.3,0.1-0.6,0.1-0.9c0-0.3,0-0.5,0.1-0.8c0-0.1,0.1-0.1,0.1-0.2
		c0.1-0.2,0.1-0.4,0.1-0.6c0.1-0.2,0.1-0.5,0.2-0.7c0.1-0.2,0.1-0.4,0.2-0.6c0.1-0.3,0.3-0.6,0.5-0.9c0.1-0.2,0.2-0.4,0.3-0.6
		c0.1-0.2,0.2-0.4,0.3-0.6C11.9,7.5,12,7.3,12,7.2c0.1-0.2,0.2-0.4,0.3-0.6c0,0,0-0.1,0.1-0.1c0.1-0.1,0.1-0.1,0.1-0.2
		s0.1-0.2,0.1-0.2C12.7,6,12.8,6,12.9,5.9s0.3-0.2,0.5-0.3c0.1-0.1,0.2-0.2,0.3-0.3c-0.1-0.2-0.1-0.3-0.1-0.5
		c-0.1-0.3-0.1-0.5-0.2-0.8c0-0.1-0.1-0.2-0.1-0.3c0-0.2-0.1-0.4-0.1-0.6c0-0.5,0-0.9,0.1-1.4c0-0.2,0.1-0.4,0.2-0.6
		c0.1-0.2,0.1-0.3,0.1-0.5c0-0.1,0.1-0.2,0.1-0.2c0.2-0.2,0.4-0.2,0.6-0.2c0.1,0,0.2,0,0.2,0c0.2,0,0.3,0.1,0.4,0.2
		c0.1,0.1,0.2,0.2,0.2,0.3c0.1,0.2,0.2,0.3,0.2,0.5c0,0.3,0.1,0.6,0.1,0.8c0,0.1,0,0.3,0,0.4c0,0.2,0,0.4,0,0.6c0,0.1,0,0.1,0,0.2
		c0,0.2,0,0.4,0,0.5c0,0.2,0,0.3,0.1,0.5c0-0.1,0.1-0.2,0.1-0.3s0.1-0.2,0.1-0.3c0.1-0.3,0.2-0.6,0.3-1c0.1-0.2,0.2-0.4,0.2-0.6
		c0-0.1,0.1-0.1,0.1-0.2c0.1-0.2,0.2-0.4,0.3-0.6c0.3,0,0.4,0,0.4-0.1c0.1-0.1,0.2-0.2,0.2-0.3c0.1-0.1,0.1-0.2,0.2-0.4
		c0.1-0.1,0.1-0.2,0.2-0.3C17.8,0,17.9,0,18,0s0.2,0.1,0.2,0.2c0,0.2,0,0.4,0,0.6c0,0.1,0,0.1,0,0.2c-0.1,0.3,0,0.5,0,0.8
		c0,0.2,0,0.4,0,0.5c0,0.2,0,0.3,0,0.5c0,0.1,0,0.3,0,0.4c0.2,0,0.3,0.1,0.3,0.3c0,0.1,0,0.2,0,0.2c0,0.2,0,0.4,0,0.7
		c0,0.1,0,0.1,0.1,0.2c0-0.1,0-0.1,0-0.2C18.7,4,18.8,3.6,19,3.2c0.1-0.3,0.3-0.5,0.3-0.8c0.1-0.2,0.2-0.4,0.2-0.6
		c0.1-0.2,0.2-0.4,0.3-0.6c0.1-0.2,0.3-0.5,0.4-0.7s0.2-0.2,0.3-0.2c0.2,0.1,0.2,0.2,0.2,0.3c-0.1,0.2-0.1,0.4-0.2,0.6
		c0.1-0.1,0.1-0.1,0.2-0.2c0.2-0.2,0.4-0.4,0.6-0.6c0.1-0.1,0.2-0.1,0.3-0.1c0.2,0.1,0.3,0.1,0.4,0.2s0.1,0.2,0.1,0.3s0,0.1,0,0.1
		c0.2,0,0.4,0.1,0.5,0.3c0,0.1,0.1,0.1,0.1,0.2s0,0.1,0,0.2c0,0,0,0.1,0.1,0.1C23,1.9,23,2.1,23.1,2.3v0.1c0.1-0.1,0.2-0.2,0.3-0.4
		c0.1-0.1,0.1-0.1,0.2-0.2s0.1-0.2,0.2-0.3C23.9,1.3,24,1.1,24.1,1c0.2-0.2,0.5-0.1,0.6,0.2c0,0.1,0,0.2,0,0.3c0,0.1,0,0.1-0.1,0.2
		c-0.1,0.2,0,0.3,0.1,0.4c0.1,0.1,0.1,0.3,0.1,0.4c0,0.1,0,0.1,0,0.2c0.1-0.2,0.3-0.4,0.5-0.5s0.4-0.1,0.6,0.1l0,0
		c0.2,0.2,0.2,0.2,0.2,0.5c0.1,0,0.2,0,0.3-0.1c0.2-0.1,0.4-0.1,0.5-0.2c0,0,0.1,0,0.1-0.1c0.1-0.2,0.3-0.3,0.5-0.5
		C27.8,2,28.1,2,28.2,2.2c0,0.1,0.1,0.2,0.1,0.2s0,0,0,0.1c0.2,0.2,0.3,0.3,0.4,0.6C28.9,3,29,2.8,29.1,2.8c0.1-0.1,0.3-0.2,0.4-0.3
		s0.3,0,0.4,0.1c0,0.1,0.1,0.1,0.1,0.2c0.1,0,0.2-0.1,0.3-0.1c0.1,0,0.1-0.1,0.2-0.1c0.1-0.1,0.2-0.1,0.3-0.2c0.2-0.1,0.5-0.1,0.7,0
		s0.4,0.2,0.5,0.4c0,0,0.1,0.1,0.2,0.2c0.1-0.1,0.2-0.2,0.4-0.1c0.2,0.1,0.2,0.2,0.2,0.4s-0.1,0.3-0.1,0.4c-0.1,0.2-0.1,0.4-0.2,0.6
		c-0.1,0.2-0.1,0.4-0.2,0.6c0,0.1-0.1,0.2-0.1,0.4h0.1c0.1-0.1,0.2-0.2,0.2-0.3c0.2-0.2,0.3-0.3,0.5-0.5c0.1-0.1,0.3-0.2,0.5-0.3
		c0,0,0,0,0.1-0.1c0.1,0,0.1-0.1,0.2-0.1c0,0,0.1,0,0.2-0.1c0.2-0.1,0.3-0.1,0.5-0.1s0.4,0.1,0.5,0.4c0,0,0,0,0,0.1
		c0.1-0.1,0.2-0.2,0.4-0.3c0.1-0.1,0.1-0.1,0.2-0.2c0.1-0.1,0.2-0.1,0.3,0s0.2,0.2,0.2,0.3S36,4.3,35.9,4.4v0.1c0,0.1,0,0.2,0,0.3
		c0,0.1-0.1,0.3-0.1,0.4C35.7,5,35.8,5,36,5s0.4-0.1,0.5-0.1c0.2,0,0.4-0.1,0.6,0c0.2,0,0.4,0,0.6,0.2c0.1,0.1,0.2,0.2,0.3,0.3
		l0.1,0.1c0.3-0.2,0.5-0.4,0.8-0.5c0.2-0.1,0.4-0.1,0.5,0.2c0.1,0.1,0,0.3-0.1,0.4C39.2,5.8,39,6,38.8,6.3c0,0.1-0.1,0.1-0.1,0.2
		v0.1c0.2-0.1,0.4-0.3,0.6-0.4c0.2-0.1,0.5-0.1,0.7,0.1c0.1,0.1,0.2,0.3,0.2,0.4c0,0.2,0,0.3-0.1,0.5c0,0.3-0.2,0.5-0.3,0.7V8
		c0,0.1-0.1,0.1-0.1,0.2c-0.1,0.1-0.2,0.2-0.2,0.3l0,0c0.1-0.1,0.2-0.2,0.3-0.3C40,8,40.1,7.8,40.3,7.7c0.1-0.1,0.2-0.2,0.3-0.3
		c0.2-0.2,0.4-0.1,0.5,0.2c0,0.2,0,0.3-0.1,0.5c0,0.1-0.1,0.2-0.1,0.2c-0.1,0.1-0.1,0.3-0.2,0.4l0,0c0.2-0.2,0.4-0.3,0.5-0.5
		C41.3,8.1,41.4,8,41.5,8c0.1-0.1,0.2-0.1,0.3-0.1C41.9,8,42,8.1,42,8.3c-0.1,0.4-0.3,0.7-0.5,1c-0.1,0.1-0.2,0.3-0.3,0.4
		c0.1,0,0.2,0,0.3-0.1s0.1-0.1,0.2-0.1c0.2,0,0.3-0.1,0.4-0.2c0.1-0.1,0.3-0.2,0.4-0.3c0.1,0,0.1,0,0.2-0.1c0.1-0.1,0.2-0.2,0.4-0.2
		s0.3,0.2,0.2,0.3c-0.1,0.3-0.2,0.5-0.4,0.7c-0.1,0.1-0.2,0.3-0.3,0.4c-0.2,0.2-0.2,0.4-0.2,0.6l0,0c0.1-0.1,0.1-0.1,0.2-0.2
		c0.1-0.1,0.2-0.2,0.4-0.4c0.1-0.1,0.2-0.2,0.3-0.3s0.1-0.1,0.2-0.1c0.1-0.1,0.2,0,0.2,0.1s0,0.2,0,0.2s0,0,0,0.1
		c0.3-0.2,0.6-0.2,0.9-0.1c0.2,0.1,0.3,0.2,0.4,0.4c0,0.2,0.1,0.3,0.2,0.5c0.1,0.3,0.1,0.6,0,0.8s-0.1,0.5-0.2,0.7
		c-0.1,0.1-0.1,0.3-0.2,0.4c-0.1,0.2-0.2,0.4-0.3,0.5c-0.1,0.2-0.2,0.4-0.4,0.5c-0.1,0-0.1,0.1-0.2,0.1c-0.2,0-0.2,0.1-0.3,0.3
		s-0.1,0.4-0.2,0.6c0,0.1,0,0.1,0,0.2c0,0.2-0.1,0.4-0.1,0.5c0,0.2-0.1,0.4-0.1,0.7c0,0.1,0,0.2-0.1,0.3c0,0.1-0.1,0.2-0.1,0.3
		c0,0.1-0.1,0.2-0.2,0.2c-0.1,0.1-0.2,0.2-0.2,0.3c0,0.2,0,0.3-0.1,0.5c-0.1,0.1-0.1,0.2-0.2,0.4c0,0.1,0,0.2-0.1,0.2
		c-0.1,0.2-0.2,0.4-0.3,0.6c-0.1,0.3-0.2,0.5-0.3,0.8c0,0.2-0.1,0.3-0.2,0.5c-0.1,0.3-0.3,0.5-0.5,0.8c-0.2,0.2-0.3,0.5-0.5,0.7
		c-0.1,0.1-0.2,0.3-0.3,0.4s-0.2,0.2-0.2,0.3c0,0.1-0.2,0.2-0.2,0.3c-0.2,0.2-0.3,0.4-0.5,0.5c-0.1,0.1-0.2,0.2-0.3,0.3
		c-0.2,0.2-0.3,0.3-0.5,0.5s-0.5,0.3-0.7,0.6c-0.2,0.2-0.4,0.3-0.7,0.4c-0.1,0-0.1,0.1-0.1,0.1l0,0c-0.1,0.1-0.2,0.1-0.2,0.2
		s0,0.2,0,0.3c-0.1,0.4-0.2,0.9-0.1,1.4c0,0,0,0.1,0.1,0.1c0.2,0.2,0.5,0.3,0.7,0.5c0.1,0.1,0.3,0.1,0.4,0.1c0.3,0,0.6,0.1,0.9,0.2
		c0.3,0.1,0.7,0.2,1.1,0.3c0.2,0,0.3,0,0.5,0.1h0.1c0.1-0.2,0.2-0.4,0.3-0.7c0.1-0.2,0.2-0.2,0.3-0.2s0.2,0.2,0.1,0.3
		c0,0.1-0.1,0.2-0.1,0.2C40.9,28.5,40.9,28.6,40.9,28.6z M30,7.7c-0.1,0-0.1,0-0.2-0.1c-0.2,0-0.4-0.1-0.6-0.1
		c-0.2-0.1-0.4-0.1-0.5-0.2c-0.1,0-0.2-0.1-0.3-0.2L28.3,7c-0.1-0.1-0.3,0-0.4,0.1c-0.1,0-0.2,0.1-0.3,0.1c-0.2,0-0.3-0.2-0.3-0.3
		c0-0.1,0-0.1,0-0.2c0,0,0,0,0-0.1c-0.1,0-0.1,0-0.2-0.1c-0.1,0-0.2-0.1-0.3,0.1c-0.1,0.2-0.2,0.4-0.3,0.5c-0.1,0.1-0.2,0.2-0.2,0.2
		c-0.1,0.1-0.3,0-0.4-0.1C25.8,7,25.8,6.9,26,6.8c0.1,0,0.1-0.1,0.1-0.2c0.1-0.1,0.1-0.2,0.2-0.3V6.2l-0.1-0.1c-0.1,0-0.1,0-0.2,0
		c-0.3,0.1-0.6,0.2-0.9,0.2s-0.6,0-0.9-0.2h-0.1c-0.3,0.1-0.4,0-0.4-0.3c0-0.1-0.1-0.1-0.1-0.1c-0.1,0-0.2,0-0.2,0.1
		c-0.2,0.1-0.3,0.1-0.4-0.1c-0.1-0.1-0.1-0.3-0.2-0.4c-0.1,0-0.1,0-0.1,0.1c0,0.2-0.1,0.4-0.3,0.4c-0.2,0-0.3,0-0.3-0.2
		s0-0.2-0.2-0.2h-0.1c-0.3,0-0.6-0.1-0.9-0.1c-0.2,0-0.4,0-0.6-0.1c0,0.2-0.1,0.3-0.1,0.5S20.1,6,19.9,6c-0.1,0-0.3,0-0.4-0.1
		s-0.1-0.2-0.1-0.3c0-0.1,0-0.2,0.1-0.4c0,0,0-0.1-0.1-0.1c0,0-0.1,0-0.1,0.1C19,5.4,19,5.5,18.9,5.6c-0.1,0.2-0.1,0.3-0.1,0.5
		s-0.1,0.3-0.2,0.4c-0.2,0-0.4-0.1-0.4-0.3c0-0.2-0.1-0.4-0.1-0.5c-0.1-0.2-0.2-0.3-0.4-0.4c-0.1,0-0.1,0-0.1,0
		c-0.1,0-0.2,0-0.3,0.1c-0.1,0.1-0.1,0.2-0.2,0.3c-0.1,0.1-0.2,0.2-0.3,0.1c-0.1,0-0.2-0.1-0.2-0.3c0-0.1-0.1-0.1-0.1-0.1
		c-0.2,0.1-0.3,0.1-0.5,0.1c0,0.1,0,0.2,0,0.3v0.1C16,6,15.9,6,15.9,6.1c-0.1,0.1-0.2,0.1-0.2,0.1c-0.1,0-0.1-0.1-0.1-0.2
		s0-0.2-0.1-0.3l-0.1-0.1c-0.1,0-0.3,0-0.4,0c-0.2,0-0.3,0.1-0.6,0.1c0.1,0,0.1,0.1,0.1,0.1c0.1,0,0.2,0.1,0.3,0.1S15,6.1,15,6.2
		c0,0.1-0.1,0.2-0.2,0.2c-0.2,0.2-0.4,0.2-0.6,0c-0.1-0.1-0.2-0.2-0.3-0.2s-0.2,0-0.2,0c-0.2,0-0.3,0-0.4,0.2
		c-0.1,0.1-0.1,0.2-0.2,0.3C13,6.9,12.9,7,12.9,7.2c-0.1,0.1-0.1,0.2-0.2,0.3c-0.1,0.1-0.2,0.2-0.3,0.4s-0.2,0.3-0.3,0.5
		C12,8.5,12,8.6,11.9,8.6c-0.1,0.2-0.2,0.4-0.3,0.7c-0.1,0.1-0.1,0.2-0.2,0.3c-0.1,0.2-0.2,0.4-0.2,0.7c0,0.1-0.1,0.2-0.1,0.3
		c0,0.2-0.1,0.4-0.1,0.6v0.1c0,0.3-0.1,0.5-0.1,0.8c0,0.1,0,0.2,0,0.2c0,0.1-0.1,0.2-0.1,0.4c0,0.3,0,0.5,0,0.8s0,0.6-0.1,0.8
		c-0.1,0.5,0,1,0.1,1.5c0,0.2,0.1,0.3,0.1,0.5c0,0.1,0,0.1,0,0.2c0,0.2,0.1,0.3,0.1,0.5c0.1,0.2,0.1,0.4,0.2,0.6
		c0.1,0.3,0.3,0.7,0.4,1c0.1,0.2,0.2,0.5,0.3,0.7c0.2,0.3,0.4,0.6,0.6,0.9c0.2,0.2,0.3,0.4,0.5,0.6h0.1c0.1-0.1,0.1-0.1,0.2-0.2
		c0.1-0.1,0.3-0.1,0.4,0l0,0c0.1,0.1,0,0.4-0.1,0.5s-0.1,0.1,0,0.1c0.1,0.2,0.2,0.3,0.4,0.5c0.1,0.1,0.2,0.2,0.3,0.3
		c0.1,0.1,0.2,0.1,0.2,0.2c0.4,0.3,0.8,0.6,1.2,0.9s0.8,0.4,1.2,0.6c0.2,0.1,0.5,0.1,0.7,0.1s0.4,0,0.6,0.1c0.2,0,0.4,0.1,0.6,0.1
		s0.4,0.1,0.6,0.1c0.1,0,0.1,0,0.2,0.1c0.3,0.1,0.5,0.1,0.8,0.2c0.1,0,0.2,0.1,0.4,0.1c0.1,0,0.3,0,0.4,0.1c0.2,0,0.3,0.1,0.5,0.1
		c0.1,0,0.1,0,0.2,0c0.2,0,0.4,0.1,0.6,0.1c0.1,0,0.2,0,0.3,0c0.2,0,0.3,0,0.5,0s0.4,0.1,0.6,0.1c0.1,0,0.2,0,0.3,0
		c0.1,0,0.3,0,0.4,0s0.3,0,0.4-0.2l0.1-0.1c0.1,0,0.2-0.1,0.3,0c0.2,0.1,0.4,0.2,0.6,0.3c0.1,0.1,0.2,0.1,0.4,0.1c0.2,0,0.3,0,0.5,0
		c0.4,0,0.7,0.1,1.1,0.1c0.1,0,0.1,0,0.1-0.1c0-0.3,0.2-0.6,0.3-0.9c0-0.1,0.1-0.1,0.2-0.1c0.2-0.1,0.3-0.3,0.4-0.4
		c0.1,0,0.2-0.1,0.2-0.1c0.1-0.1,0.3-0.1,0.4-0.2c0.3,0,0.6,0,0.9-0.1c0.3,0,0.7,0,1,0.1c0.1,0,0.2,0,0.3,0c0.2,0,0.5,0,0.6,0.2
		c0.1,0.1,0.3,0.2,0.4,0.4c0.2,0.1,0.3,0.2,0.4,0.4c0.1,0.2,0.3,0.4,0.3,0.6c0.1,0.2,0.1,0.2,0.3,0.2c0.1,0,0.2,0,0.3,0.1
		c0,0,0,0.1,0.1,0.1c0,0,0,0.1,0.1,0.1s0.2,0,0.3,0c0.2,0,0.4,0,0.7,0c0-0.2,0.1-0.4,0.3-0.3c0.1,0,0.1,0,0.1-0.1s0.1-0.2,0.3-0.2
		c0.1,0,0.2,0.1,0.2,0.2s0,0.1,0,0.2c0.4-0.1,0.7-0.3,1-0.6c0.1-0.1,0.2-0.2,0.2-0.2c0.2-0.1,0.3-0.3,0.5-0.4
		c0.1-0.1,0.2-0.2,0.3-0.2c0.3-0.2,0.5-0.5,0.7-0.8c0.3-0.3,0.5-0.6,0.7-0.9c0.1-0.2,0.3-0.3,0.4-0.5c0.2-0.4,0.4-0.7,0.5-1.1
		c0,0,0-0.1,0.1-0.1c0,0,0-0.1,0.1-0.1c0.1-0.3,0.2-0.7,0.3-1s0.3-0.7,0.4-1c0.1-0.2,0.1-0.4,0.2-0.5c0.1-0.2,0.1-0.4,0.2-0.7
		c0.1-0.2,0.2-0.4,0.2-0.6c0.1-0.2,0.1-0.4,0.1-0.7s0-0.6,0.1-0.9c0,0,0,0,0-0.1c-0.1-0.2-0.1-0.3-0.2-0.5c-0.1-0.3-0.1-0.6-0.1-0.9
		c0-0.1,0-0.1,0-0.2l-0.1,0.1c0,0.1-0.1,0.2-0.1,0.2c-0.1,0.1-0.2,0-0.2-0.1s0-0.3,0.1-0.4c0.1-0.2,0.2-0.3,0.3-0.5
		c-0.1,0-0.2,0-0.3-0.1c-0.1,0-0.2,0-0.3-0.1c-0.2-0.1-0.3-0.2-0.5-0.3c-0.1-0.1-0.2-0.1-0.3-0.1c0,0-0.1,0-0.2,0.1
		c-0.2,0.1-0.4,0-0.5-0.2c0-0.1,0-0.1-0.1-0.2c-0.1,0-0.3-0.1-0.4-0.1h-0.1c-0.1,0.1-0.2,0.1-0.3,0.2c-0.1,0.1-0.3,0-0.3-0.1
		c-0.1-0.1-0.1-0.3-0.1-0.4c-0.2-0.1-0.5-0.3-0.7-0.4c-0.1,0.1-0.2,0.2-0.4,0.2c-0.3,0.1-0.4,0-0.4-0.2c0-0.1,0-0.1,0-0.2
		c0-0.1,0-0.3-0.2-0.3c-0.1,0-0.2-0.1-0.3-0.1c-0.2,0-0.3-0.1-0.5-0.1c-0.1,0-0.2,0-0.3-0.1c-0.1-0.2-0.2-0.2-0.4-0.3
		c0,0.1-0.1,0.1-0.1,0.2c-0.1,0.1-0.1,0.3-0.3,0.4c-0.1,0.1-0.3,0.1-0.4,0.1c-0.1-0.1-0.1-0.2-0.1-0.3c0.1-0.1,0.1-0.2,0.2-0.3
		c0.1-0.1,0.1-0.2,0.2-0.3h-0.1c-0.1-0.1-0.2-0.1-0.3-0.1C34.3,9,34.2,9,34,9c-0.1,0-0.2,0-0.2-0.1c-0.1-0.2-0.3-0.2-0.4-0.3
		c-0.2-0.1-0.4-0.1-0.7-0.2c-0.1,0-0.1,0-0.2-0.1c-0.2-0.1-0.4-0.2-0.6-0.2c-0.2-0.1-0.5-0.2-0.7-0.2c-0.2-0.1-0.4-0.1-0.6-0.2h-0.1
		c0,0.1-0.1,0.1-0.1,0.2c-0.1,0.2-0.1,0.3-0.3,0.4c-0.1,0-0.2,0-0.3,0c-0.1-0.1-0.1-0.2-0.1-0.3C29.9,7.9,29.9,7.8,30,7.7z
		 M33.1,25.4C33,25.2,33,25,32.9,24.8c0-0.1-0.1-0.1-0.1-0.2c-0.3-0.2-0.5-0.4-0.8-0.6c-0.1-0.1-0.2-0.1-0.3-0.1c-0.1,0-0.1,0-0.1,0
		c-0.1,0-0.2-0.1-0.3-0.1c-0.1,0-0.2,0-0.3,0c-0.5-0.1-1,0-1.5,0.2c-0.1,0-0.1,0.1-0.2,0.1c-0.2,0-0.3,0.1-0.3,0.3
		c-0.1,0.3-0.2,0.5-0.3,0.8h0.1c0.3,0,0.7,0,1,0s0.6,0,0.9,0s0.6,0.1,0.9,0.1c0.2,0,0.3,0,0.5,0.1C32.4,25.4,32.7,25.4,33.1,25.4z"
		/>
	<path class="st0" d="M20.3,22.4c-0.1,0.1-0.1,0.2-0.1,0.3c-0.1,0.1-0.1,0.2-0.1,0.3c-0.1,0.2-0.2,0.3-0.3,0.5
		c-0.2,0.2-0.4,0.1-0.5-0.1C19.1,23.2,19,23,19,22.7c0-0.1-0.1-0.2-0.2-0.2c-0.1-0.1-0.2-0.3-0.1-0.4c0-0.1,0-0.2,0.1-0.3
		c0.1-0.2,0.1-0.5,0.2-0.7s0.1-0.5,0.2-0.7s0.2-0.3,0.3-0.4l0.1-0.1c0-0.1,0.1-0.2,0.2-0.2s0.2,0,0.3,0.1l0.1,0.1
		c0.1,0.1,0.1,0.1,0.1,0.2c0-0.1,0.1-0.2,0.1-0.3c0-0.2,0.1-0.3,0.3-0.3c0.2,0,0.3,0.1,0.4,0.2c0.2,0.2,0.3,0.5,0.4,0.8
		c0,0.1,0,0.2,0.1,0.3l0,0c0.1-0.1,0.2-0.1,0.2-0.2c0.2-0.3,0.3-0.4,0.7-0.3c0.1,0,0.2,0.1,0.3,0.2c0.1,0.1,0.2,0.2,0.3,0.2
		c0.1,0.1,0.2,0.2,0.3,0.3h0.1c0.1,0,0.2-0.1,0.2-0.1c0.1,0,0.1,0,0.2,0c0.2,0.1,0.3,0.2,0.4,0.4c0,0.1,0.1,0.1,0.2,0.2
		c0.1,0.2,0.2,0.3,0.3,0.5c0-0.1,0.1-0.1,0.1-0.2c0-0.3,0.1-0.5,0.2-0.7s0.3-0.3,0.5-0.2c0.1,0.1,0.2,0.2,0.3,0.2
		c0.1,0.1,0.2,0.2,0.4,0.3c0.1,0.1,0.3,0.3,0.4,0.4c0.1-0.1,0.2-0.2,0.3-0.4l0.1-0.1c0-0.2-0.1-0.4-0.1-0.6s-0.1-0.4-0.1-0.6
		s0.2-0.3,0.4-0.2c0.2,0.1,0.3,0.2,0.3,0.4v0.1c0.1,0.1,0.1,0.2,0.1,0.3c0,0.1,0,0.2,0.1,0.2c0.1,0.2,0.1,0.5,0.2,0.7
		c0,0.2,0.1,0.3,0.1,0.4c0.1,0.3,0.1,0.5,0.2,0.8c0,0.1,0,0.2,0,0.3c0,0.1,0,0.2,0.1,0.2c0,0.1,0,0.2-0.1,0.3l-0.1,0.1
		c0,0-0.1,0.1-0.1,0c-0.1,0-0.1,0-0.2,0c0,0,0,0-0.1,0c-0.1-0.1-0.2-0.2-0.2-0.3c-0.1-0.2-0.1-0.4-0.1-0.6c0-0.1-0.1-0.1-0.1-0.1
		c-0.3,0.1-0.5,0.2-0.8,0.2L26.5,23c-0.1,0.1-0.1,0.2-0.2,0.3c-0.1,0.1-0.2,0.1-0.3,0.1c-0.1,0-0.3,0-0.3-0.2c0,0-0.1,0-0.2-0.1
		c-0.2-0.1-0.4,0-0.6-0.1c-0.3,0-0.6,0.1-0.9,0.2c-0.1,0.1-0.2,0-0.3,0.1c-0.1,0-0.3,0-0.4,0h-0.1c-0.2-0.1-0.3-0.1-0.4-0.2
		s-0.2-0.2-0.3-0.3c-0.1-0.1-0.2-0.2-0.3-0.3h-0.1c-0.1,0-0.1,0.1-0.2,0.2s-0.2,0.2-0.3,0.3c-0.2,0.1-0.4,0.1-0.6-0.2
		c-0.1-0.1-0.2-0.3-0.2-0.4s-0.1-0.2-0.1-0.3C20.4,22.5,20.4,22.4,20.3,22.4z"/>
	<path class="st0" d="M14.4,11.6c0-0.2-0.1-0.5-0.1-0.7c0-0.3-0.1-0.5-0.1-0.8c0-0.1-0.1-0.3,0-0.4c0-0.2,0-0.5,0.2-0.7
		c0.1-0.1,0.1-0.2,0.2-0.4c0-0.2,0.1-0.3,0.2-0.4c0.1-0.1,0.2,0,0.3,0c0.2,0.1,0.2,0.2,0.3,0.3c0.1,0.2,0.2,0.3,0.3,0.5
		s0.2,0.4,0.3,0.6c0.1,0.1,0.1,0.3,0.2,0.4c0.1,0.2,0.1,0.3,0.2,0.4c0.1,0.2,0.1,0.4,0.2,0.5c0.1,0.2,0.2,0.3,0.2,0.5
		c0,0.1,0.1,0.2,0.1,0.2c0.1,0.2,0.2,0.5,0.4,0.7c0.1,0.2,0.2,0.4,0.4,0.6c0.1,0.2,0.2,0.3,0.3,0.5c0.1,0.2,0.2,0.3,0.4,0.5
		c0.1,0.1,0.2,0.3,0.3,0.4c0,0,0,0.1,0.1,0.1c0.1,0.1,0.2,0.3,0.3,0.4c0.1,0.1,0.1,0.1,0.2,0.2c0.1,0.1,0.2,0.2,0.2,0.3
		c0.1,0.1,0.1,0.2,0.2,0.3c0.1,0.2,0.1,0.3,0.1,0.5v0.1c0.1,0.1,0,0.2-0.1,0.3c-0.1,0.1-0.1,0.2-0.1,0.3l0.1,0.1
		c0.1,0.1,0.2,0.2,0.2,0.4c0,0.2-0.1,0.3-0.3,0.2c-0.2-0.1-0.4-0.1-0.6-0.2c-0.3-0.1-0.6-0.2-0.8-0.4c-0.2-0.1-0.3-0.3-0.5-0.4
		s-0.3-0.2-0.4-0.3c-0.1,0-0.2-0.1-0.3-0.2c-0.1-0.1-0.2-0.2-0.3-0.2c-0.1-0.1-0.2-0.2-0.3-0.3c-0.2-0.2-0.3-0.4-0.4-0.6
		c-0.2-0.2-0.3-0.4-0.5-0.6c-0.1-0.1-0.2-0.3-0.2-0.4c-0.1-0.3-0.3-0.6-0.4-0.8c-0.1-0.1-0.1-0.3-0.1-0.4c0-0.1-0.1-0.1-0.1-0.2
		c0-0.1-0.1-0.2-0.1-0.2C14.5,12.1,14.5,11.8,14.4,11.6L14.4,11.6z"/>
	<path class="st0" d="M31.4,19.5c-0.1-0.1-0.2,0-0.3,0.1c-0.1,0.1-0.2,0.1-0.3,0.1c-0.1,0-0.2-0.1-0.2-0.3c0-0.3,0-0.6,0.1-0.8
		c0,0,0-0.1,0-0.2s0-0.2,0.1-0.2c0.1-0.1,0.2-0.2,0.2-0.4c0-0.2,0.1-0.4,0.2-0.7c0.1-0.3,0.3-0.6,0.4-0.9c0.1-0.2,0.2-0.3,0.3-0.4
		c0.1-0.1,0.1-0.2,0.1-0.3c0.1-0.3,0.3-0.5,0.5-0.7c0.2-0.4,0.5-0.7,0.8-1l0,0c0.1-0.2,0.3-0.3,0.5-0.5c0.1-0.1,0.3-0.3,0.4-0.5
		l0.1-0.1c0.1-0.1,0.2-0.2,0.3-0.3c0.2-0.2,0.4-0.3,0.6-0.5c0.1-0.1,0.2-0.1,0.3-0.2c0.1,0,0.2,0,0.3,0.1s0.1,0.2,0,0.3
		s-0.2,0.2-0.3,0.3v0.1c0.1,0.2,0,0.4-0.1,0.6c0,0.1-0.1,0.1-0.1,0.2c-0.1,0.2-0.2,0.4-0.4,0.6c-0.1,0.1-0.1,0.2-0.2,0.3
		c-0.1,0.1-0.1,0.2-0.2,0.3c-0.2,0.3-0.4,0.6-0.6,0.8c-0.1,0.1-0.2,0.3-0.3,0.4c0,0.1-0.1,0.2-0.2,0.2c0,0,0,0.1-0.1,0.1
		c-0.1,0.2-0.2,0.4-0.3,0.6c-0.1,0.1-0.2,0.3-0.2,0.4s-0.1,0.1-0.1,0.2c-0.1,0.2-0.2,0.3-0.2,0.5c-0.1,0.2-0.2,0.4-0.3,0.7
		c-0.1,0.1-0.1,0.2-0.2,0.4c-0.1,0.2-0.2,0.3-0.3,0.5C31.5,19.5,31.4,19.5,31.4,19.5z"/>
	<path class="st0" d="M23,19c0-0.2,0-0.4-0.1-0.6c0-0.2,0-0.3-0.1-0.5v-0.1c0-0.1,0-0.2,0-0.2c0-0.2,0-0.4-0.1-0.5
		c-0.1-0.2-0.1-0.4-0.1-0.6s0-0.4,0-0.7c0-0.2,0-0.4,0-0.6c0-0.3,0-0.6,0-0.9c0-0.1,0-0.2,0-0.4c0-0.3,0-0.5,0-0.8
		c0-0.2,0.1-0.3,0.2-0.5s0.4-0.2,0.6,0s0.3,0.5,0.4,0.8c0,0,0,0.1,0.1,0.1c0.1,0.1,0,0.2,0,0.3s0,0.1,0,0.2c0.1,0.3,0.1,0.5,0.2,0.8
		c0,0.2,0.1,0.4,0.1,0.6c0.1,0.2,0.1,0.4,0.1,0.6c0,0.1,0.1,0.2,0.1,0.2c0,0.1,0,0.2,0.1,0.4c0,0.1,0.1,0.2,0.1,0.2
		c0,0.2,0.1,0.4,0.1,0.6c0,0.1,0.1,0.3,0.1,0.4s0.1,0.2,0.1,0.3c0.1,0.1,0.1,0.3,0.2,0.4s0.1,0.3-0.1,0.4c0,0-0.1,0.1-0.2,0.1
		c-0.2,0-0.5,0-0.7,0.1l0,0c-0.2,0.1-0.4,0.1-0.6,0.1c-0.1,0-0.2,0.1-0.3,0.1C23.2,19.3,23,19.2,23,19z"/>
</g>
</svg>
