<?xml version="1.0" encoding="utf-8"?>
<!-- Generator: Adobe Illustrator 22.0.0, SVG Export Plug-In . SVG Version: 6.00 Build 0)  -->
<svg version="1.1" id="Ebene_1" xmlns="http://www.w3.org/2000/svg" xmlns:xlink="http://www.w3.org/1999/xlink" x="0px" y="0px"
	 viewBox="0 0 45 34.6" style="enable-background:new 0 0 45 34.6;" xml:space="preserve">
<style type="text/css">
	.st0{fill:#FFFFFF;}
</style>
<g>
	<path class="st0" d="M32.2,22.1c0,0-0.1,0-0.1,0.1c-0.1,0.1-0.3,0.2-0.5,0.2s-0.3,0.1-0.4,0.2c-0.1,0-0.1,0-0.2,0.1
		c-0.2,0.1-0.3,0.1-0.5,0.2s-0.3,0.2-0.5,0.3c0.1,0,0.1,0,0.2,0c0.2,0.1,0.2,0.2,0.3,0.4c0,0.1,0,0.2-0.1,0.2
		c-0.1,0.1-0.1,0.2-0.1,0.3c0,0.3-0.1,0.5-0.2,0.8c0,0.1-0.1,0.1,0,0.2s0.2,0.2,0.1,0.3c-0.1,0.2-0.1,0.4-0.1,0.5
		c-0.1,0.3-0.1,0.5-0.2,0.8c0,0,0,0.1,0.1,0.1c0.2,0,0.2,0.2,0.3,0.3c0.1,0.1,0,0.2,0,0.3c0,0.2-0.1,0.4-0.1,0.5s0,0.2,0.1,0.3
		c0.1,0.1,0.2,0.2,0.2,0.2c0,0.1,0,0.1,0,0.2c0,0.2-0.1,0.4-0.2,0.7c0,0,0,0,0,0.1c0.1,0,0.2,0.1,0.2,0.1c0.2,0.1,0.3,0.2,0.4,0.4
		V30c0.1-0.2,0.1-0.1,0,0s-0.1,0.3-0.2,0.4s-0.2,0.2-0.3,0.2s-0.2,0.1-0.3,0.2c-0.2,0.2-0.3,0.4-0.4,0.6l-0.1,0.1
		c-0.1,0.1-0.1,0.1,0,0.2c0.4,0.3,0.8,0.6,1.1,0.9c0.2,0.2,0.4,0.4,0.6,0.6c0.1,0.1,0.2,0.2,0.4,0.3c0.1,0.1,0.1,0.2,0.1,0.4
		c-0.1,0.3-0.3,0.6-0.7,0.6c-0.3,0-0.6,0.1-1,0.1c-0.3,0-0.6,0-0.9-0.1c-0.4-0.1-0.7-0.2-1.1-0.3c-0.4-0.2-0.8-0.3-1.2-0.5
		c-0.3-0.1-0.5-0.3-0.8-0.4c-0.1-0.1-0.2-0.1-0.3-0.2c-0.2-0.1-0.4-0.3-0.6-0.4c-0.1-0.1-0.1-0.2-0.1-0.3v-0.1
		c0.1-0.2,0.3-0.2,0.5-0.2c0.3,0,0.6-0.1,0.8-0.1c0.2,0,0.4,0,0.6,0c0.3,0,0.5,0,0.7-0.3c0.1-0.1,0.2-0.2,0.2-0.2
		c-0.2-0.2-0.4-0.5-0.6-0.8c-0.2-0.2-0.3-0.4-0.5-0.6c0.2,0,0.2-0.1,0.2-0.2s0.1-0.1,0.1-0.2c0.1,0,0.1,0,0.2-0.1c0.1,0,0.1,0,0.2,0
		c-0.1-0.1-0.2-0.2-0.4-0.3c-0.1-0.1-0.1-0.1-0.2-0.2C27,29,27,28.8,27,28.7c0.1-0.2,0.1-0.2,0.4-0.3h0.1h0.1v-0.1
		c-0.2-0.2-0.3-0.4-0.5-0.5C27,27.7,27,27.6,27,27.5c0-0.2,0.2-0.3,0.4-0.4c-0.2-0.2-0.4-0.4-0.5-0.5c-0.2-0.2-0.3-0.4-0.2-0.6
		c0.1-0.3,0.2-0.7,0.2-1c0.1-0.3,0.1-0.6-0.1-0.9c0-0.1-0.1-0.2-0.2-0.2c-0.3,0.1-0.4,0.3-0.4,0.6c0,0.1-0.1,0.3-0.1,0.4
		s0,0.1,0,0.2c0,0.3-0.2,0.5-0.3,0.6s-0.3,0.4-0.4,0.6s-0.2,0.3-0.4,0.4c0,0-0.1,0-0.1,0.1c-0.1,0-0.2,0.1-0.3,0.1h-0.1
		c-0.1-0.1-0.3-0.1-0.4-0.2s-0.2-0.2-0.2-0.3c-0.1-0.1-0.1-0.2-0.2-0.3l-0.1-0.2c0-0.4,0.1-0.8,0.1-1.2c0-0.1,0.1-0.2,0.1-0.4
		c0-0.1,0-0.2-0.1-0.2l0,0c-0.1,0.1-0.1,0.2-0.2,0.2c-0.1,0.2-0.2,0.3-0.3,0.5C23.1,25,23,25.3,23,25.6c0,0.1,0,0.3-0.1,0.4
		s-0.2,0.2-0.2,0.2c-0.2,0.1-0.4,0.2-0.6,0.3c-0.2,0.1-0.4,0.1-0.5,0.2c-0.1,0-0.2-0.1-0.3-0.2c-0.2-0.2-0.3-0.5-0.4-0.7
		c-0.1-0.1-0.1-0.2-0.2-0.3c0-0.1,0-0.1-0.1-0.2v-0.1c-0.1-0.1-0.1-0.2-0.2-0.3c-0.1-0.1-0.1-0.2-0.2-0.3c-0.1-0.1-0.2-0.2-0.4-0.3
		c-0.1-0.1-0.2-0.1-0.3-0.2c-0.2,0.2-0.4,0.5-0.6,0.7c-0.1,0.1-0.1,0.1,0,0.2s0.3,0.2,0.4,0.4c0.1,0.1,0.1,0.2,0.2,0.3
		c0,0.1,0.1,0.1,0.1,0.2c0.1,0.1,0.1,0.2,0,0.4c-0.2,0.3-0.4,0.5-0.6,0.8c0.1,0.2,0.3,0.4,0.4,0.6s0.2,0.3,0.3,0.5
		c0.1,0.1,0,0.2,0,0.3c-0.1,0.2-0.3,0.4-0.5,0.6c0.1,0.1,0.2,0.2,0.2,0.3c0.1,0.1,0.1,0.3,0.2,0.4c0,0.1,0.1,0.1,0.1,0.2
		c0.1,0.1,0.1,0.2,0,0.3c-0.1,0.3-0.3,0.4-0.6,0.5c-0.3,0.2-0.6,0.4-0.9,0.7c0.5,0.3,0.8,0.7,1.1,1.2c0,0,0.1,0,0.2,0.1
		c0.1,0,0.1,0.3,0.1,0.4l0,0c0,0.2-0.1,0.2-0.2,0.2c-0.2,0-0.4,0-0.6,0.1c-0.2,0-0.4,0.1-0.7,0.1c-0.1,0-0.3,0-0.4,0s-0.3,0-0.3-0.2
		h-0.1c-0.5-0.1-1.1-0.2-1.6-0.3c-0.1,0-0.2-0.1-0.4-0.1c-0.2-0.1-0.2-0.3-0.2-0.4c0.1-0.2,0.2-0.3,0.3-0.4c0.1-0.1,0.2-0.1,0.2-0.2
		c0.3-0.2,0.5-0.5,0.8-0.7c0.1-0.1,0.1-0.1,0-0.1c-0.1-0.3-0.2-0.6-0.4-0.9c-0.1-0.2-0.2-0.4-0.2-0.6c0-0.1-0.1-0.2-0.1-0.4
		c0-0.2,0-0.3,0.2-0.4c0.1-0.1,0.2-0.1,0.3-0.2c-0.1-0.2-0.2-0.3-0.3-0.5c-0.1-0.1-0.2-0.2-0.3-0.3c-0.1-0.1-0.1-0.2-0.1-0.3
		c-0.1-0.2,0.1-0.3,0.3-0.4c0.1,0,0.2-0.1,0.2-0.2c0,0-0.1,0,0,0c0-0.1-0.1-0.1-0.1-0.2c-0.1-0.2-0.3-0.4-0.4-0.7
		c-0.1-0.1,0-0.3,0.1-0.4s0.2-0.1,0.3-0.2s0.1-0.1,0-0.2s-0.1-0.2-0.2-0.3c-0.1-0.2-0.2-0.3-0.3-0.4c0-0.1,0-0.1-0.1-0.2l-0.1-0.1
		c-0.5-0.1-1-0.2-1.5-0.4c-0.2-0.1-0.3-0.2-0.4-0.3c0,0.1-0.1,0.1-0.1,0.2c-0.1,0.1-0.1,0.2-0.2,0.3c-0.1,0.1-0.2,0.3-0.2,0.4
		c-0.1,0.2-0.3,0.2-0.5,0.2c-0.2-0.1-0.5-0.1-0.7-0.2c0,0-0.1,0-0.1,0.1c-0.1,0.2-0.1,0.5-0.2,0.7c-0.1,0.2-0.3,0.3-0.5,0.3
		s-0.4-0.1-0.5-0.1s-0.1,0-0.1,0.1c-0.1,0.3-0.2,0.6-0.3,0.9c0,0.3-0.2,0.5-0.5,0.4c-0.1,0-0.2-0.1-0.3-0.1s-0.2,0-0.4-0.1
		c-0.1,0.2-0.1,0.3,0,0.5C8.9,27.4,9,27.6,9,27.8c0.1,0.3,0.2,0.6,0.2,0.9c0.1,0.4,0.1,0.7,0.2,1.1c0,0.1,0,0.3,0,0.4
		c0,0.2-0.2,0.4-0.4,0.4c0,0,0,0,0,0.1l0,0c-0.3-0.2-0.6-0.3-0.9-0.4c-0.1,0-0.1-0.1-0.2,0c-0.5,0-0.9-0.1-1.3-0.3
		c-0.4-0.2-0.7-0.4-0.9-0.7c-0.2-0.2-0.3-0.4-0.4-0.6c-0.1-0.3-0.2-0.5-0.4-0.8c-0.1-0.1-0.1-0.2-0.2-0.3c-0.2-0.2-0.4-0.4-0.6-0.7
		c-0.2-0.3-0.5-0.6-0.7-0.8c-0.1-0.1-0.2-0.2-0.3-0.3c-0.1-0.1-0.1-0.3,0-0.4c0.3-0.2,0.5-0.2,0.8,0s0.7,0.1,1,0.1c0,0,0,0,0-0.1
		c0.1-0.1,0.3-0.2,0.4-0.2c0.3,0,0.5,0.2,0.8,0.4c0.1,0.1,0.2,0.2,0.3,0.2c0,0,0,0,0.1,0c0-0.2-0.1-0.4-0.1-0.6s0.2-0.4,0.4-0.5
		c0.2,0,0.3-0.1,0.5-0.1c0-0.2,0.1-0.4,0.1-0.6c0-0.1,0.2-0.3,0.3-0.3c0.2,0,0.4,0,0.6,0.1c0,0,0,0,0.1,0c0-0.1,0.1-0.3,0.1-0.4
		c0-0.2,0.1-0.3,0.1-0.5c0-0.1,0-0.1,0-0.2c0.1-0.2,0.2-0.4,0.4-0.5c0.3-0.1,0.6-0.1,0.9,0c0-0.1,0.1-0.3,0.1-0.4
		c0.1-0.2,0.2-0.3,0.3-0.4c0.3-0.2,0.5-0.2,0.8-0.2l0,0l0,0c-0.3-0.4-0.6-0.8-0.8-1.2c-0.3-0.4-0.5-0.9-0.7-1.3S9.3,18,9.2,17.6
		c-0.1-0.4-0.2-0.8-0.3-1.3c0-0.3-0.1-0.7,0-1c0-0.3,0.1-0.7,0.2-1c0-0.2,0.1-0.3,0.1-0.5c0-0.1-0.1-0.1-0.1-0.2
		c0,0.2-0.1,0.3-0.4,0.4c-0.1,0-0.3,0-0.4,0c-0.2,0-0.3,0.1-0.5,0.1c-0.2,0.1-0.4,0.1-0.5,0s-0.2,0-0.3,0c-0.3,0.1-0.5,0.2-0.8,0.2
		c-0.3,0.1-0.6,0.1-0.9,0.1c-0.2,0-0.3-0.1-0.3-0.3c-0.1-0.2,0-0.3,0.2-0.5c0.1-0.1,0.3-0.3,0.4-0.5c0.2-0.2,0.3-0.4,0.5-0.7
		c0.1-0.2,0.2-0.4,0.3-0.6c0.1-0.2,0.2-0.4,0.3-0.6c0.1-0.1,0.1-0.1,0.2-0.2H7c0.1,0.1,0.1,0,0.2-0.1c0.2-0.2,0.4-0.4,0.6-0.7
		c-0.2,0.1-0.3,0-0.4-0.1C7.2,9.8,7,9.5,6.8,9.2c-0.2,0-0.3-0.3-0.5-0.6c-0.2-0.5-0.4-1-0.5-1.5C5.7,6.8,5.7,6.5,5.6,6.2
		c0-0.2-0.1-0.3-0.1-0.5S5.4,5.3,5.4,5.1S5.3,4.7,5.2,4.5c0-0.1-0.1-0.3-0.1-0.4C5.2,4,5.4,3.9,5.6,4c0.2,0.1,0.2,0.3,0.3,0.4
		C5.9,4.6,6,4.8,6,4.9c0.1,0.2,0.1,0.4,0.1,0.6C6.2,5.8,6.2,6,6.3,6.3c0.1,0.4,0.2,0.9,0.4,1.3C6.8,8,7,8.3,7.1,8.7
		c0.1,0.2,0.2,0.5,0.3,0.7c0.1,0.2,0.2,0.3,0.3,0.5c0.1,0.1,0.2,0.3,0.1,0.4c0,0,0,0,0,0.1c0,0,0.1,0,0.1-0.1c0.3-0.3,0.6-0.6,1-0.8
		c0.1,0,0.1,0,0.2-0.1s0.2-0.1,0.2,0c0.1,0.1,0.2,0.1,0.3,0.2C9.7,9.7,9.7,9.8,9.7,10s0.1,0.5,0.1,0.7c0,0.3,0.1,0.5,0.1,0.8
		c0,0.1,0.1,0.3,0.1,0.4c0,0,0,0.1,0,0.2c0.1-0.1,0.2-0.2,0.3-0.3c0.2-0.2,0.4-0.5,0.6-0.6c0.2-0.2,0.5-0.4,0.8-0.6
		c0.3-0.3,0.7-0.4,1-0.6c0.3-0.2,0.7-0.4,1-0.6c0.3-0.4,0.6-0.7,1-0.9s0.7-0.4,1.1-0.6c0.4-0.2,0.8-0.5,1.3-0.6
		C17.4,7.2,17.7,7.1,18,7c0.4-0.1,0.8-0.2,1.2-0.3c0.3-0.1,0.5-0.1,0.8-0.2c0.4-0.1,0.7-0.1,1.1-0.2s0.8-0.1,1.2-0.2
		c0.2,0,0.4,0,0.6,0c0.4,0,0.8,0,1.2,0c0.4,0,0.8,0.1,1.2,0.1c0.3,0,0.6,0.1,0.9,0.1c0.2,0,0.3,0,0.5,0.1c0.4,0.1,0.9,0.2,1.3,0.4
		c0.1,0,0.3,0.1,0.4,0.1S28.6,7,28.7,7s0.3,0.1,0.5,0.2l0,0C29.1,7.1,29,7,28.9,6.9c-0.2-0.2-0.3-0.4-0.3-0.7c0-0.2,0.1-0.3,0.1-0.5
		c0-0.1,0.1-0.2,0.2-0.3c0.1-0.1,0.2-0.2,0.3-0.3C29.3,5,29.3,5,29.3,4.9c0-0.3,0.1-0.6,0.2-1V3.8c0-0.1,0.1-0.2,0.2-0.3l0,0
		c0.1-0.1,0.2-0.1,0.3,0c0.1,0.1,0.3,0.1,0.4,0.1s0.2,0.1,0.4,0.1C31,3.9,31,4,31.1,4c0.2,0.1,0.3,0.3,0.5,0.4
		c0.2,0.3,0.5,0.5,0.8,0.7c0.2,0.1,0.3,0.3,0.5,0.4c0.1,0,0.1,0.1,0.2,0.1l0.1,0.1c0.2,0.2,0.4,0.5,0.6,0.7c0.3,0.3,0.5,0.6,0.7,0.9
		c0.1,0.2,0.2,0.4,0.3,0.5c0.1,0.2,0.1,0.4-0.1,0.5c-0.2,0.1-0.4,0.3-0.6,0.5c-0.2,0.1-0.3,0.3-0.5,0.4c0.1,0.1,0.2,0.2,0.3,0.2
		c0.1,0.1,0.2,0.1,0.3,0.2c0.2,0.1,0.3,0.3,0.4,0.4c0.2,0.1,0.3,0.3,0.5,0.4c0.2,0.3,0.5,0.5,0.6,0.8c0.1,0.2,0.2,0.4,0.3,0.6
		c0.1,0.3,0.2,0.5,0.3,0.8c0.1,0.2,0.1,0.5,0.2,0.7c0.1,0.3,0.1,0.5,0.2,0.8c0.1,0.3,0.1,0.5,0.1,0.8s0,0.6,0,0.9
		c0,0.2-0.1,0.5-0.1,0.7c0,0.2-0.1,0.3-0.1,0.5c0,0.1-0.1,0.1-0.1,0.2c0,0,0,0.1-0.1,0.1c-0.1,0.1-0.1,0.2-0.2,0.3
		c-0.2,0.3-0.3,0.6-0.5,0.9s-0.3,0.5-0.5,0.8c-0.1,0.1-0.2,0.2-0.3,0.4c-0.1,0.1-0.1,0.2-0.2,0.3c-0.1,0.2-0.3,0.3-0.4,0.4
		c0.3,0.2,0.6,0.4,1,0.5c0.2,0,0.4,0.3,0.4,0.5c0,0.1,0,0.2-0.1,0.4c0,0.1,0,0.2,0,0.3c0.1,0,0.1,0,0.2,0c0.1,0,0.2,0,0.2,0
		c0.1,0,0.2,0,0.2,0c0.2,0.1,0.4,0.2,0.6,0.4c0.1,0.1,0.1,0.2,0.1,0.4c0,0.1,0,0.2,0,0.2c0.2,0,0.4,0.2,0.4,0.4
		c0.1,0.2,0.1,0.4,0,0.5c0,0.1,0,0.2,0,0.3c0.1,0,0.1,0,0.2,0c0.2,0,0.3,0.1,0.4,0.2c0.1,0.1,0.1,0.1,0.2,0.2c0,0,0,0,0.1,0
		c0.3,0,0.7,0.1,1,0.1c0.2,0,0.5,0.1,0.7,0.1c0.1,0,0.1,0.1,0.2,0.1c0.1,0.1,0.2,0.2,0.2,0.4v0.1c-0.3-0.1-0.3,0-0.3,0.1
		c0.1,0.2,0.1,0.4,0.2,0.7c0,0.1,0,0.2,0,0.3c0,0.3,0.1,0.6,0.1,1c0,0.2,0,0.3,0,0.5c0,0.1,0,0.2,0,0.3c0.2-0.2,0.5-0.3,0.7-0.4
		c0.1,0,0.3,0.1,0.3,0.2s0,0.2-0.1,0.3c0,0.1-0.1,0.1-0.2,0.2c-0.1,0.1-0.1,0.1,0,0.2c0.2,0.2,0.4,0.5,0.6,0.7
		c0.2,0.2,0.4,0.4,0.6,0.6c0.4,0.3,0.8,0.6,1.2,0.8c0.3,0.1,0.5,0.1,0.8,0.1c0.1,0,0.3,0,0.4-0.1c0.1,0,0.2,0,0.3,0.1s0.1,0.2,0,0.3
		c-0.1,0.3-0.2,0.3-0.5,0.3c-0.1,0-0.2,0-0.4,0c-0.1,0-0.2,0-0.3-0.1c-0.3-0.1-0.5-0.1-0.8-0.2s-0.6-0.3-0.9-0.5
		c-0.3-0.2-0.5-0.4-0.7-0.7c-0.3-0.3-0.5-0.6-0.8-0.9c-0.1-0.2-0.3-0.3-0.4-0.5c-0.1,0.2-0.3,0.4-0.4,0.6c-0.1,0.1-0.1,0.1-0.1,0.2
		s0,0.2-0.2,0.2c-0.3,0.1-0.6,0.2-0.9,0.3c-0.2,0.1-0.4,0.1-0.7,0.1c-0.2,0-0.5,0-0.7,0c-0.1,0-0.2,0-0.3,0c-0.3,0-0.6,0-0.9,0
		c-0.2,0-0.4,0-0.6-0.1c-0.1,0-0.2-0.1-0.2-0.2s0-0.2,0-0.3c0-0.1,0.1-0.1,0.1-0.2l0.1-0.1c0-0.2,0-0.3,0-0.4s0-0.1,0-0.1
		c0-0.3,0.1-0.5,0.1-0.8s0.1-0.5,0.1-0.8l0,0c-0.1,0-0.2,0.1-0.3,0.1c-0.2,0.1-0.5,0-0.5-0.2c0-0.1,0-0.2,0-0.2c0-0.2,0-0.4,0.1-0.6
		c0-0.1,0-0.1,0-0.1v-0.1h-0.1c-0.2,0.1-0.4,0.2-0.5,0.2c-0.2,0.1-0.5-0.2-0.4-0.5c0-0.1,0-0.2,0-0.3c0-0.3,0-0.5,0-0.8
		c-0.2,0.1-0.3,0.2-0.5,0.2c0,0.1-0.3,0-0.3-0.2c0-0.2-0.1-0.3-0.1-0.5c0-0.1,0.1-0.2,0.1-0.3c0-0.2,0.1-0.4,0.1-0.7
		c0-0.1,0-0.1-0.1-0.1s-0.2,0.1-0.3,0.1c-0.3,0.1-0.5,0-0.6-0.2v-0.1C32,22.8,32.1,22.4,32.2,22.1z M16.7,23.7c0-0.1,0-0.1,0.1-0.2
		c0-0.1,0.1-0.2,0.3-0.2c0.1,0,0.3,0.1,0.4,0.1c0.3,0,0.6,0.1,0.9,0.1s0.7,0,1,0c0.1,0,0.2,0,0.3,0c0.3,0,0.5,0,0.8,0
		c0.1,0,0.2,0,0.2-0.1c0.1-0.1,0.2-0.2,0.2-0.2c0.1-0.1,0.2-0.1,0.3-0.1c0.2,0.1,0.4,0.1,0.6,0.2c0,0,0,0,0.1,0
		c0.3,0,0.6-0.1,0.9-0.1s0.6-0.1,0.9-0.1c0.1,0,0.2,0,0.2,0c0.2,0,0.4,0,0.5,0c0.2,0,0.4,0,0.6-0.1c0.3,0,0.6,0,0.8,0
		c0.2,0,0.3,0,0.5,0c0.3,0,0.6,0,0.9,0c0.2,0,0.3,0,0.4-0.1c0.4,0,0.8,0,1.2,0c0.1,0,0.1,0,0.2,0c0.2-0.1,0.3-0.2,0.4-0.3
		c0.5-0.3,0.9-0.6,1.5-0.8c0.4-0.2,0.7-0.3,1.1-0.4c0.2-0.1,0.4-0.2,0.6-0.3c0.1-0.1,0.1-0.1,0.2-0.2l0.1-0.1c0-0.1,0.1-0.1,0.2-0.1
		h0.1c0.2-0.2,0.4-0.3,0.6-0.5c0.1-0.1,0.2-0.2,0.3-0.3c0.1-0.1,0.2-0.1,0.2-0.2c0.1-0.1,0.2-0.3,0.3-0.4c0.1-0.2,0.3-0.3,0.4-0.5
		c0.2-0.3,0.3-0.5,0.4-0.8c0.3-0.6,0.6-1.2,0.7-1.9c0-0.3,0.1-0.5,0.1-0.8c0-0.1,0.1-0.2,0-0.3c-0.1-0.3-0.1-0.7-0.2-1
		c-0.2-0.4-0.2-0.8-0.3-1.1c0-0.1-0.1-0.2-0.2-0.3c-0.1-0.1-0.1-0.2-0.2-0.3c-0.1-0.2-0.1-0.3-0.2-0.5c-0.1-0.2-0.3-0.3-0.4-0.5
		c0-0.1-0.1-0.1-0.2-0.2c-0.1-0.1-0.2-0.2-0.4-0.4c-0.1-0.1-0.3-0.2-0.4-0.3c-0.2-0.1-0.4-0.3-0.6-0.4H33c-0.2,0.1-0.4,0.3-0.5,0.4
		h-0.1c-0.1,0-0.2-0.1-0.4-0.1c-0.1,0-0.2,0-0.3-0.1c-0.1,0-0.1-0.1-0.2-0.2l0.1-0.1c0.1-0.1,0.1-0.1,0.2-0.2
		c0.1-0.1,0.2-0.1,0.3-0.1s0.1,0,0.2,0c0.1,0,0.1-0.1,0-0.1c-0.1-0.1-0.2-0.1-0.3-0.1c-0.2,0-0.4-0.1-0.5-0.2
		c-0.1-0.1-0.2-0.1-0.2-0.2c-0.1,0-0.1,0-0.2-0.1c-0.2-0.1-0.4-0.2-0.7-0.3c-0.1-0.1-0.2-0.1-0.3,0c-0.1,0-0.3,0.1-0.4,0.1
		c-0.2,0-0.3-0.2-0.3-0.4c0-0.1,0-0.1-0.1-0.2c-0.4-0.2-0.7-0.3-1.1-0.5c-0.2-0.1-0.3-0.1-0.5-0.2C27.1,7.2,26.5,7.1,26,7
		c-0.2-0.1-0.4-0.1-0.7-0.1c-0.4,0-0.8-0.1-1.2-0.1c-1,0-2.1-0.1-3.1,0.2c-0.4,0-0.7,0-1,0.1c-0.5,0.1-1,0.2-1.4,0.4
		c-0.3,0.1-0.7,0.2-1,0.3c-0.3,0.1-0.5,0.2-0.8,0.3S16.3,8.4,16,8.6c-0.3,0.2-0.7,0.4-1,0.6c-0.2,0.1-0.3,0.2-0.4,0.3
		c-0.4,0.2-0.8,0.5-1.2,0.7c-0.1,0.1-0.3,0.2-0.4,0.3c-0.4,0.2-0.8,0.5-1.2,0.7c-0.4,0.3-0.8,0.6-1.1,1c-0.2,0.3-0.3,0.7-0.5,1
		c-0.1,0.4-0.2,0.9-0.4,1.3c-0.2,0.4-0.2,0.9-0.2,1.3c0,0.3,0,0.6,0.1,0.9s0.2,0.6,0.2,0.9c0,0.1,0.1,0.2,0.1,0.2
		c0.1,0.2,0.1,0.3,0.2,0.5c0.1,0.2,0.2,0.5,0.3,0.7c0.2,0.3,0.3,0.5,0.5,0.8c0.1,0.2,0.2,0.4,0.4,0.6c0.1,0.2,0.3,0.4,0.4,0.5
		c0.1,0.2,0.3,0.3,0.4,0.5c0.1,0.1,0.2,0.3,0.4,0.4c0.1,0.1,0.1,0.2,0.2,0.2c0.1,0.1,0.2,0.3,0.3,0.4c0.1,0.2,0.3,0.3,0.4,0.4
		c0.2,0.2,0.5,0.4,0.7,0.6c0.1,0.1,0.3,0.2,0.5,0.3c0.2,0.1,0.4,0.1,0.6,0.1c0.2,0,0.4,0,0.5,0C16.1,23.8,16.4,23.7,16.7,23.7z
		 M27.5,23.8c0,0.1,0,0.2,0.1,0.2c0,0.2,0.1,0.3,0.1,0.5c0,0.3-0.1,0.6-0.1,0.9c0,0.1-0.1,0.1-0.1,0.2s0,0.2-0.1,0.3
		c-0.1,0.2-0.1,0.4,0.1,0.5c0.1,0.1,0.2,0.2,0.3,0.3c0.1,0.1,0.3,0.2,0.3,0.4l0,0c0.1,0.1,0.2,0.2,0.2,0.3c0.1,0.2-0.1,0.4-0.2,0.3
		H28c0,0.1,0,0.1,0.1,0.1c0.1,0.1,0.2,0.2,0.2,0.2c0.1,0.1,0.2,0.3,0.3,0.4s0.1,0.4-0.1,0.4c-0.1,0-0.3,0-0.4,0.1
		c0.1,0.1,0.2,0.2,0.3,0.3c0.2,0.2,0.3,0.3,0.5,0.5c0.1,0.1,0,0.4-0.1,0.4s-0.3,0-0.4,0s-0.1,0-0.2,0c0,0,0,0,0,0.1
		c0.1,0.1,0.2,0.2,0.2,0.3c0.1,0.1,0.2,0.2,0.2,0.3c0.1,0.1,0.1,0.2,0.2,0.2c0,0,0.1,0.1,0.2,0c0.2-0.2,0.3-0.3,0.4-0.5
		c0.2-0.2,0.4-0.5,0.6-0.6c0,0.1,0,0.1,0,0.1c-0.1,0-0.1,0-0.2,0c-0.2,0-0.3-0.1-0.3-0.3c0.1-0.3,0.1-0.6,0.2-0.9
		c-0.2-0.1-0.3-0.2-0.3-0.4c0-0.2,0.1-0.5,0.1-0.7s0.1-0.3,0.1-0.5c-0.2,0.1-0.4-0.1-0.4-0.3c0-0.2,0-0.4,0.1-0.6
		c0.1-0.3,0.1-0.6,0.2-0.8v-0.1c-0.1-0.1-0.2-0.4-0.1-0.5c0.1-0.2,0.2-0.4,0.3-0.6c0.1-0.1,0.1-0.3,0.1-0.4c-0.1,0-0.2,0-0.2,0
		c-0.2,0-0.4,0.1-0.6,0.1c-0.1,0-0.1,0-0.1,0c-0.1,0.1-0.2-0.1-0.3,0c-0.1,0-0.2,0-0.2,0C27.9,23.8,27.7,23.9,27.5,23.8L27.5,23.8z
		 M11,24.9c0-0.1,0-0.2,0-0.3c0-0.1,0-0.1,0-0.2v-0.1c0-0.1,0-0.3,0.2-0.3c0.2-0.1,0.4-0.1,0.7,0c0.2,0.1,0.3,0.1,0.5,0.2
		c0.1,0,0.1,0,0.2-0.1c0.1-0.2,0.2-0.4,0.3-0.5s0.1-0.3-0.1-0.4l0,0c-0.3-0.4-0.6-0.8-1-1.2c0-0.1-0.1-0.1-0.1-0.1
		c-0.1,0-0.2,0-0.2,0.1l-0.1,0.1c-0.1,0-0.2,0-0.3,0c-0.3,0-0.4,0.2-0.4,0.5c0,0.1,0,0.2-0.1,0.3c0,0.1-0.1,0.1-0.2,0.1
		c-0.1,0-0.2,0.1-0.3,0c-0.2,0-0.4-0.1-0.6-0.1c-0.1,0-0.2,0-0.2,0.1s0,0.2,0,0.3c0,0.1,0,0.2-0.1,0.3C9.1,23.8,9.1,24,9,24.3
		c0,0.1-0.1,0.2-0.2,0.2c-0.2,0.1-0.4,0.1-0.6,0C8,24.4,8,24.4,8.1,24.6l0,0c0,0.1,0,0.2,0,0.3c0,0,0,0,0,0.1C8,25.1,8,25.1,8,25.2
		c0,0.2-0.1,0.4,0,0.5c0,0.1,0.1,0.2,0.1,0.3c0.1,0.1,0.1,0.2,0.1,0.3l0.1-0.1c0-0.1,0.1-0.1,0.1-0.2c0.1-0.1,0.2-0.1,0.3,0
		c0.2,0,0.2,0,0.3,0.1c0.1,0,0.3,0,0.4,0.1c0.1-0.2,0.1-0.4,0.2-0.7c0.1-0.2,0.1-0.3,0.2-0.5c0.1-0.2,0.3-0.2,0.5-0.2
		C10.6,24.8,10.8,24.9,11,24.9z M36.6,24.3c-0.1,0-0.1,0.1-0.2,0.1h-0.1c-0.1,0-0.2,0-0.2-0.1S36,24.2,36,24.2l0,0
		c0-0.2,0-0.4,0.1-0.6c0-0.2,0.1-0.4,0.2-0.6c0-0.1,0-0.1-0.1-0.1S36.1,23,36,23c-0.2,0-0.3,0-0.5,0s-0.3,0-0.4-0.3v-0.1
		C35,22.4,35,22.3,35,22.1c0-0.1,0-0.2,0-0.3c-0.2-0.2-0.5-0.3-0.7-0.4c-0.1,0-0.1,0-0.2-0.1c-0.1-0.1-0.2-0.1-0.4-0.2h-0.1
		c-0.1,0.1-0.3,0.2-0.3,0.4c0,0.1,0,0.1-0.1,0.1c0,0.1-0.1,0.2-0.1,0.3c0,0.1,0,0.2-0.1,0.2c-0.1,0.2-0.1,0.3-0.2,0.4
		c0,0.1,0,0.1,0.1,0.1s0.3,0,0.4,0h0.1c0.1,0.1,0.2,0.2,0.3,0.2c0.2,0.1,0.1,0.2,0.1,0.3c0,0.3-0.1,0.5-0.2,0.8c0,0.1,0,0.1,0,0.2
		c0.1,0,0.2-0.1,0.2-0.1c0.1-0.1,0.3-0.1,0.4,0c0.2,0.1,0.4,0.2,0.4,0.5l0,0c0,0.2,0.1,0.3,0.1,0.5c0,0.1,0,0.3,0,0.4
		c0.2-0.1,0.5-0.3,0.7-0.3c0.1,0.1,0.1,0.1,0.2,0.2c0.1,0.1,0.2,0.2,0.2,0.4c0,0.1,0,0.2,0,0.2c0,0.1,0,0.2-0.1,0.3
		c0,0.1,0,0.2,0,0.3c0.2,0,0.4-0.1,0.5,0c0.2,0,0.3,0,0.5-0.1l0.1-0.1c0.2-0.1,0.3-0.3,0.3-0.5c0-0.1,0.1-0.2,0.1-0.3
		c0-0.2,0.1-0.4,0.1-0.5c-0.2,0-0.3,0.1-0.4,0.1c-0.1,0-0.3-0.2-0.3-0.3v-0.1C36.5,24.6,36.6,24.4,36.6,24.3z M18.8,29.9v-0.1
		c-0.1,0-0.1-0.1-0.2-0.2s-0.2-0.2-0.3-0.3c0-0.1-0.1-0.1-0.1-0.2s0-0.2,0.1-0.3c0.1-0.1,0.2-0.3,0.2-0.4c0.1-0.1,0.1-0.2,0-0.3
		c-0.1-0.2-0.2-0.3-0.3-0.5c-0.1-0.1-0.1-0.2-0.1-0.3c-0.1-0.2-0.1-0.4,0-0.5s0.2-0.2,0.3-0.2c0.2-0.1,0.2-0.2,0.3-0.3
		c0.1-0.1,0-0.1,0-0.2c-0.1-0.1-0.1-0.1-0.2-0.2s-0.2-0.2-0.3-0.3c-0.1-0.1-0.2-0.2-0.3-0.4c0-0.1,0-0.1,0-0.2
		c0.1-0.2,0.2-0.3,0.3-0.5c0.1-0.1,0.1-0.1,0.2-0.2c-0.3,0-0.5,0.1-0.8,0.1c-0.4,0-0.7,0-1.1,0c-0.1,0-0.1,0.1-0.1,0.2
		c0.1,0.2,0.3,0.4,0.4,0.6v0.1c0.2,0.2,0.2,0.6,0,0.8c-0.1,0.1-0.1,0.2-0.2,0.1c0,0-0.1,0-0.1,0.1c0.1,0.2,0.2,0.3,0.3,0.5l0,0
		c0.1,0.1,0.1,0.2,0.2,0.3c0.1,0.1,0,0.2,0,0.3c-0.1,0.2-0.2,0.3-0.3,0.4c0.1,0.1,0.2,0.2,0.2,0.4c0.1,0.2,0.2,0.4,0.3,0.5
		c0.1,0.1,0.1,0.3,0.1,0.3c-0.1,0.1-0.2,0.3-0.4,0.4c-0.1,0-0.1,0.1-0.1,0.1c0.1,0.2,0.2,0.4,0.3,0.6c0,0.1,0.1,0.2,0.1,0.2
		c0,0.1,0.1,0.1,0.1,0.2c0.1,0.1,0.2,0.2,0.3,0.2c0.1,0,0.2-0.1,0.3-0.1c0.1,0,0.1,0,0.1-0.1c0.2-0.1,0.3-0.2,0.5-0.3
		c0.1-0.1,0.2-0.1,0.3-0.2C18.9,30,18.9,29.8,18.8,29.9z"/>
	<path class="st0" d="M2.3,6.1L2.3,6.1c0.1,0.1,0.2,0.1,0.3,0.2c-0.1,0-0.2,0.1-0.3,0.1C2.2,6.4,2.1,6.5,2,6.5c0,0-0.1,0.1-0.2,0.1
		C1.6,6.7,1.6,6.8,1.6,7c0.1,0.4,0.3,0.7,0.5,1.1c0.2,0.3,0.3,0.7,0.5,1c0.2,0.4,0.4,0.7,0.7,1c0.1,0.1,0.2,0.3,0.3,0.4
		c0.1,0.1,0.1,0.1,0.1,0c0.1-0.1,0.1-0.2,0.2-0.2c0.1-0.1,0.2,0,0.3,0.1s0.1,0.3,0,0.4C4.1,11,4.1,11,4.3,11.2s0.3,0.3,0.4,0.5
		s0.2,0.2,0.2,0.4c0,0.1,0,0.1,0,0.1c-0.1,0.1-0.1,0.2-0.2,0.3c0,0-0.1,0-0.2,0.1c-0.1,0-0.1,0-0.2-0.1c0,0,0,0,0-0.1
		c-0.4-0.4-0.8-0.9-1.1-1.3c-0.2-0.3-0.5-0.6-0.7-0.9C2.3,9.7,2,9.2,1.8,8.8C1.6,8.5,1.5,8.3,1.4,8.1C1.3,7.7,1,7.4,1.1,7
		c0-0.2,0.1-0.4,0.2-0.5C1.5,6.3,1.8,6.2,2,6.1C2.1,6.1,2.2,6.1,2.3,6.1z"/>
	<path class="st0" d="M4.6,5.9c0,0.2,0.1,0.3,0.1,0.5S4.8,6.8,4.8,7C4.9,7.3,4.9,7.5,5,7.8C5,8,5.1,8.3,5.1,8.5
		c0.1,0.6,0.2,1.1,0.4,1.7C5.7,10.6,5.8,11,6,11.4c0.1,0.1,0.2,0.2,0.3,0.4l0.1,0.1c0,0.1-0.1,0.3-0.2,0.3c-0.2,0-0.3,0-0.4-0.1
		c-0.2-0.2-0.3-0.4-0.3-0.6c-0.1-0.3-0.3-0.7-0.3-1C5,10,4.9,9.5,4.8,8.9C4.5,8.7,4.4,8.4,4.4,8.1c0-0.2,0-0.3-0.1-0.5
		C4.2,7.5,4.2,7.2,4.2,7S4.1,6.6,4.1,6.4S4.1,6,4,5.8C3.9,5.6,3.9,5.3,3.7,5.1c0-0.1-0.1-0.2-0.1-0.3s0.1-0.2,0.1-0.3
		c0,0,0.1,0,0.2,0c0.4,0.1,0.5,0.4,0.5,0.7C4.5,5.4,4.5,5.6,4.6,5.9C4.6,5.8,4.6,5.8,4.6,5.9L4.6,5.9z"/>
	<path class="st0" d="M34.2,5.8c-0.2,0-0.4-0.2-0.3-0.4C34,5.2,34.1,5,34.3,4.8c0.1-0.1,0.2-0.3,0.3-0.4c0.2-0.2,0.3-0.3,0.5-0.5
		c0.2-0.2,0.4-0.3,0.6-0.5C36,3.2,36.2,3,36.5,2.9c0.3-0.2,0.5-0.4,0.8-0.6s0.6-0.4,0.9-0.6c0.3-0.2,0.7-0.4,1-0.6
		c0.1-0.1,0.2-0.2,0.3-0.3s0.3-0.1,0.5,0c0-0.1,0-0.1,0,0s0.1,0.3,0.1,0.4S40,1.4,40,1.4c-0.4,0.1-0.7,0.4-1,0.5
		c-0.4,0.2-0.8,0.5-1.1,0.8c-0.2,0.2-0.5,0.4-0.7,0.6c-0.3,0.2-0.6,0.5-0.9,0.7c-0.2,0.2-0.4,0.4-0.6,0.5C35.4,4.6,35.2,4.8,35,5
		s-0.4,0.4-0.5,0.7C34.5,5.7,34.4,5.8,34.2,5.8L34.2,5.8z"/>
	<path class="st0" d="M33.1,4c0,0,0.1-0.1,0.1-0.2c0.2-0.3,0.4-0.5,0.6-0.7C34,3,34.1,2.8,34.2,2.7c0.1-0.1,0.3-0.3,0.4-0.4
		C34.8,2.2,34.9,2,35,1.9c0.1-0.1,0.2-0.2,0.4-0.3c0.1-0.1,0.2-0.2,0.3-0.3C35.9,1.2,36,1,36.2,0.9c0.1-0.1,0.2-0.2,0.3-0.2
		c0,0,0,0,0.1-0.1c0.2-0.1,0.4-0.2,0.6-0.4c0.1-0.1,0.2-0.1,0.3-0.2c0.2-0.1,0.3,0,0.4,0.2C38,0.3,38,0.5,37.8,0.5
		c-0.3,0.3-0.7,0.5-1,0.8c-0.2,0.1-0.4,0.3-0.5,0.5C36.1,1.9,36,1.9,35.9,2c-0.3,0.3-0.5,0.5-0.8,0.8s-0.6,0.5-0.9,0.8
		c-0.2,0.2-0.3,0.3-0.4,0.5c-0.1,0.1-0.3,0.2-0.4,0.1C33.1,4.2,33.1,4.1,33.1,4z"/>
	<path class="st0" d="M43,33.7c0,0.2-0.2,0.4-0.4,0.3c-0.4-0.1-0.7-0.2-1-0.4c-0.2-0.1-0.4-0.1-0.6-0.2c-0.3-0.1-0.5-0.3-0.8-0.4
		c-0.3-0.2-0.6-0.4-0.9-0.6c-0.1-0.1-0.2-0.2-0.3-0.2c-0.1-0.1-0.3-0.2-0.4-0.4c-0.1-0.1-0.1-0.2-0.2-0.3c-0.1-0.1-0.1-0.1-0.1-0.2
		c0-0.2,0.1-0.4,0.3-0.4s0.3,0,0.4,0.2l0.1,0.1c0.2,0.2,0.5,0.5,0.7,0.7c0.2,0.1,0.3,0.2,0.5,0.4s0.5,0.4,0.8,0.5s0.5,0.2,0.8,0.3
		s0.6,0.2,0.9,0.3C42.9,33.5,43,33.5,43,33.7z"/>
	<path class="st0" d="M42.1,25.6c0.2,0,0.3,0.1,0.3,0.3c0,0.2,0.1,0.3,0.1,0.5c0.1,0.2,0.1,0.5,0.1,0.7c0.1,0.3,0.3,0.5,0.5,0.6
		c0.4,0.2,0.8,0.3,1.2,0.4c0.2,0,0.5,0.4,0.4,0.6c0,0.1-0.2,0.2-0.3,0.2c-0.3-0.1-0.6-0.2-0.9-0.2c-0.2-0.1-0.4-0.2-0.7-0.2
		c-0.3-0.1-0.5-0.3-0.7-0.5c-0.2-0.3-0.3-0.6-0.3-0.9c0-0.2-0.1-0.4-0.1-0.6c0-0.1,0-0.2-0.1-0.2C41.7,25.8,41.9,25.6,42.1,25.6z"/>
	<path class="st0" d="M32.1,4c-0.2,0-0.3-0.1-0.3-0.3c0-0.3,0.2-0.6,0.3-0.9s0.3-0.6,0.4-0.8c0.1-0.2,0.3-0.4,0.4-0.6
		C33,1.3,33,1.2,33.1,1.1c0.1-0.2,0.2-0.3,0.4-0.4c0.1-0.2,0.2-0.3,0.3-0.5s0.5-0.2,0.6,0l0.1,0.1c0,0.1,0,0.1,0,0.2
		s-0.1,0.1-0.1,0.1c-0.1,0.1-0.2,0.2-0.3,0.3c-0.2,0.2-0.3,0.4-0.5,0.6C33.4,1.8,33.2,2,33,2.3c-0.1,0.2-0.2,0.5-0.4,0.8
		c-0.1,0.2-0.2,0.5-0.3,0.7C32.3,3.9,32.2,4,32.1,4C32.2,4,32.1,4,32.1,4z"/>
	<path class="st0" d="M2.8,28.4c0,0.1-0.1,0.1-0.1,0.1c-0.3,0.4-0.6,0.8-1,1.2c-0.1,0.2-0.3,0.3-0.4,0.5c-0.1,0.1-0.2,0.2-0.3,0.3
		v0.1c0,0.1-0.1,0.2-0.2,0.3c-0.1,0.1-0.2,0.2-0.3,0.3c-0.1,0.1-0.2,0.1-0.3,0.2H0.1c0-0.1-0.2-0.1-0.1-0.2l0,0
		c-0.1-0.3,0.1-0.5,0.3-0.7c0.3-0.3,0.5-0.6,0.8-1c0.2-0.2,0.3-0.4,0.4-0.6c0.1-0.1,0.2-0.3,0.3-0.4C1.9,28.3,2,28.3,2,28.2
		c0.1-0.1,0.2-0.1,0.3-0.1s0.2,0,0.2,0.1C2.7,28.2,2.7,28.3,2.8,28.4z"/>
	<path class="st0" d="M2.6,32.3c0-0.2,0.1-0.3,0.2-0.5c0.1-0.2,0.2-0.3,0.3-0.5s0.3-0.3,0.4-0.5c0.2-0.2,0.5-0.4,0.6-0.7
		c0.1-0.1,0.2-0.2,0.3-0.2c0.2,0,0.2,0.1,0.2,0.3c-0.1,0.3-0.3,0.6-0.5,0.8c-0.2,0.2-0.3,0.3-0.5,0.5S3.2,32,3.1,32.2
		c-0.1,0.1-0.2,0.2-0.3,0.3c-0.1,0-0.2,0-0.2,0C2.6,32.4,2.6,32.4,2.6,32.3z"/>
	<path class="st0" d="M5.8,33.2c-0.1-0.1,0-0.4,0-0.5c0.1-0.1,0.1-0.2,0.2-0.3c0.2-0.3,0.4-0.5,0.6-0.7c0.2-0.1,0.4-0.3,0.5-0.5
		c0-0.1,0.1-0.1,0.1-0.1c0.1-0.2,0.4-0.1,0.4,0.1c0,0.1,0,0.2-0.1,0.3c-0.1,0.2-0.3,0.4-0.4,0.6c-0.1,0.2-0.3,0.3-0.4,0.4
		c-0.2,0.2-0.4,0.4-0.5,0.6C6.1,33.1,6,33.2,5.8,33.2z"/>
	<path class="st0" d="M19.4,18.7C19.3,18.7,19.3,18.7,19.4,18.7c-0.1,0.1-0.1,0.2-0.2,0.2s-0.1,0-0.2,0c-0.3-0.1-0.7-0.2-1-0.3
		c-0.2-0.1-0.3-0.2-0.5-0.3c-0.1-0.1-0.2-0.1-0.4-0.2c-0.2-0.1-0.4-0.3-0.6-0.4c-0.1-0.1-0.2-0.1-0.2-0.2c-0.3-0.2-0.5-0.5-0.8-0.7
		c-0.2-0.1-0.3-0.3-0.5-0.4c-0.2-0.2-0.3-0.4-0.4-0.6c-0.1-0.1-0.2-0.3-0.3-0.4l-0.1-0.1c-0.1-0.2-0.2-0.4-0.3-0.6
		c-0.1-0.2-0.2-0.3-0.3-0.5c-0.1-0.1-0.1-0.2-0.2-0.3c0-0.1-0.1-0.2-0.1-0.2c-0.2-0.2,0-0.4,0-0.6c0-0.1,0.1-0.2,0.2-0.3
		c0.2-0.1,0.3-0.1,0.4,0.1c0.2,0.2,0.4,0.4,0.5,0.6c0.1,0.1,0.1,0.2,0.2,0.2c0,0.1,0.1,0.1,0.2,0.2c0.3,0.2,0.6,0.5,0.8,0.7
		c0.3,0.3,0.5,0.5,0.7,0.8c0.1,0.1,0.2,0.3,0.3,0.4c0.1,0.1,0.1,0.1,0.2,0.2c0.1,0,0.1,0.1,0.1,0.1c0.1,0.1,0.2,0.2,0.3,0.3
		c0.1,0,0.2,0.1,0.3,0.2c0.2,0.1,0.3,0.2,0.5,0.3c0.2,0.1,0.4,0.3,0.6,0.4c0.1,0.1,0.2,0.1,0.3,0.2c0.1,0.1,0.1,0.2,0.1,0.4
		c0,0.1,0,0.3,0,0.4c0,0,0,0,0.1,0.1C19.4,18.3,19.4,18.4,19.4,18.7z"/>
	<path class="st0" d="M26.3,18.1c-0.1,0.1-0.2,0-0.2-0.2s0-0.3,0.1-0.5c0.1-0.3,0.1-0.5,0.2-0.8c0.1-0.4,0.2-0.8,0.3-1.1
		c0.1-0.2,0.2-0.3,0.2-0.5c0-0.1,0-0.3,0-0.4c0-0.3,0.1-0.6,0.1-0.9c0-0.2,0.1-0.4,0.2-0.6c0.1-0.2,0.1-0.3,0.2-0.5
		c0-0.1,0-0.1,0.1-0.1c0.1-0.1,0.1-0.3,0.2-0.4c0.1-0.1,0.1-0.2,0.2-0.3s0.1-0.3,0.1-0.4c0.1-0.2,0.1-0.3,0.1-0.5s0.3-0.3,0.5-0.1
		c0.1,0.1,0.3,0.2,0.2,0.4v0.1c0.1,0.1,0.2,0.3,0.2,0.4v0.1c0,0.1,0.1,0.2,0.1,0.4c0,0.1,0,0.3-0.1,0.4c0-0.1,0,0,0,0.1
		c0,0.1-0.1,0.2-0.1,0.3s-0.1,0.3-0.2,0.4c-0.1,0.1-0.1,0.3-0.2,0.4c-0.1,0.1-0.1,0.3-0.2,0.4c0,0.1-0.1,0.2-0.1,0.2
		c-0.1,0.2-0.1,0.4-0.2,0.6c-0.1,0.2-0.1,0.5-0.2,0.7c-0.1,0.3-0.1,0.6-0.2,0.9c0,0.1-0.1,0.3-0.1,0.4v0.1c0.1,0.1,0,0.2,0,0.3
		l-0.1,0.1c-0.1,0-0.1,0.1-0.1,0.2s-0.1,0.2-0.2,0.3C27,18,27,18.1,27,18.2s-0.1,0.1-0.1,0.2c-0.1,0.1-0.1,0.1-0.2,0.1h-0.1
		c-0.2-0.1-0.2-0.1-0.2-0.3c0-0.1,0-0.1-0.1-0.2C26.3,18.2,26.3,18.1,26.3,18.1z"/>
	<path class="st0" d="M21.6,19.8c0.1,0,0.1,0.1,0.1,0.1v-0.1c0-0.1,0.1-0.3,0.1-0.4c0-0.2,0.1-0.3,0.1-0.5s0.1-0.3,0.3-0.3
		c0.2,0,0.3,0,0.4,0.1s0.1,0.1,0.2,0.2s0.2,0.3,0.2,0.4c0.2,0.2,0.3,0.5,0.3,0.8c0.1,0.2,0.1,0.4,0.1,0.6c0.1,0.2,0.1,0.5,0.1,0.7
		c0,0.1-0.1,0.2-0.2,0.2c-0.2,0-0.4,0.1-0.6,0.2c-0.1,0-0.2,0-0.2,0c-0.1,0-0.1,0-0.2,0h-0.1c-0.2,0-0.3,0-0.4,0.1
		c-0.2,0.1-0.4,0-0.5-0.2c0-0.1,0-0.3,0-0.4c0-0.2,0.1-0.4,0.1-0.6c0-0.1,0-0.1,0-0.2s0-0.1-0.1-0.2c-0.1,0-0.1-0.1-0.1-0.2
		s0-0.1,0-0.2C21.4,19.9,21.5,19.8,21.6,19.8z"/>
</g>
</svg>
