<?xml version="1.0" encoding="utf-8"?>
<!-- Generator: Adobe Illustrator 22.0.0, SVG Export Plug-In . SVG Version: 6.00 Build 0)  -->
<svg version="1.1" id="Ebene_1" xmlns="http://www.w3.org/2000/svg" xmlns:xlink="http://www.w3.org/1999/xlink" x="0px" y="0px"
	 viewBox="0 0 45 33" style="enable-background:new 0 0 45 33;" xml:space="preserve">
<style type="text/css">
	.st0{fill:#1D1D1B;}
</style>
<g>
	<path class="st0" d="M24.3,24c0.1,0,0.1,0.1,0.2,0.1c0.1,0.1,0.2,0.1,0.3,0.2c0.3,0.2,0.5,0.3,0.8,0.5c0.4,0.3,0.8,0.6,1.1,0.9
		c0.3,0.3,0.7,0.6,1,0.9c0.4,0.3,0.8,0.7,1.1,1c0.4,0.3,0.7,0.6,1.1,0.9c0.3,0.2,0.5,0.4,0.8,0.7c0.2,0.2,0.5,0.4,0.7,0.6
		c0.2,0.2,0.5,0.4,0.7,0.6c0.2,0.2,0.4,0.4,0.7,0.7c0.1,0.2,0,0.3-0.2,0.4c-0.1,0-0.2,0-0.3,0.1c-0.1,0-0.2,0-0.3,0.1
		c0,0.1,0,0.2,0,0.2c0,0.1-0.2,0.2-0.3,0.1c-0.2-0.1-0.3,0-0.4,0.1c-0.2,0.1-0.4,0.3-0.7,0.4c-0.5,0.1-1,0.2-1.5,0.2
		c-0.4,0-0.8,0-1.2,0.1c-0.3,0-0.5,0.1-0.8,0.1c-0.1,0-0.3,0-0.4,0c-0.1,0-0.3,0.1-0.4,0.1c-0.3,0.1-0.5,0.2-0.8,0.2
		c-0.2,0-0.4,0-0.7,0.1c-0.1,0-0.1-0.1-0.2-0.1c-0.1,0-0.1-0.1-0.2-0.2c0-0.1,0-0.2,0.1-0.3s0.2-0.1,0.3-0.1c0.1,0,0.1,0,0.2-0.1
		c0.3-0.2,0.6-0.2,0.9-0.2c0.2,0,0.4,0,0.5-0.1c0.2-0.1,0.5-0.2,0.7-0.4c0.1-0.1,0.3-0.2,0.4-0.3c0.1-0.1,0.1-0.1,0.2-0.1
		c0.1,0,0.1-0.1,0-0.1c-0.3-0.4-0.5-0.8-0.8-1.1c-0.2-0.3-0.5-0.5-0.8-0.8c-0.1-0.1-0.3-0.2-0.4-0.3c-0.2-0.2-0.4-0.3-0.5-0.5
		c-0.3-0.3-0.5-0.5-0.7-0.8c-0.1-0.2-0.3-0.3-0.4-0.5c-0.1-0.1-0.2-0.1-0.2-0.1c-0.2-0.1-0.4-0.3-0.5-0.5c-0.1-0.1-0.1-0.1,0.1-0.1
		c-0.2-0.2-0.4-0.5-0.6-0.7c-0.2-0.3-0.4-0.5-0.7-0.8c-0.2-0.2-0.3-0.4-0.5-0.6c-0.1-0.1-0.1-0.2-0.2-0.3c-0.1-0.1-0.1-0.1-0.2-0.1
		c-0.1,0.1-0.1,0.2-0.1,0.3c-0.1,0.1-0.2,0.3-0.3,0.4c-0.1,0.2-0.2,0.4-0.3,0.6c-0.1,0.2-0.2,0.4-0.2,0.6c0,0,0,0.1,0,0.1
		c-0.1,0.1-0.1,0.2-0.2,0.3c-0.1,0.1-0.1,0.3-0.2,0.4c-0.2,0.5-0.3,1-0.5,1.4c-0.1,0.4-0.3,0.8-0.4,1.2c-0.1,0.4-0.3,0.8-0.4,1.3
		c-0.1,0.3-0.3,0.6-0.4,0.9c-0.1,0.1-0.2,0.3-0.3,0.4c-0.2,0.2-0.4,0.4-0.7,0.5c-0.2,0.1-0.5,0.1-0.7,0.2c-0.2,0-0.4,0-0.7,0
		c-0.2,0-0.4-0.1-0.6-0.1c-0.3,0-0.6-0.1-0.9-0.1c-0.3,0-0.5-0.1-0.8-0.2c-0.1,0-0.2-0.1-0.4-0.2c-0.3-0.2-0.6-0.3-0.9-0.5
		c-0.1-0.1-0.2-0.1-0.3-0.1c-0.1-0.1-0.2-0.1-0.2-0.2c0-0.1,0-0.3,0.1-0.4c0.1,0,0.1,0,0.2,0c0.3,0,0.6,0.1,0.9,0.1
		c0.2,0,0.4,0,0.6,0c0,0,0,0,0.1,0c0.4,0,0.7-0.2,1-0.3c0.2-0.1,0.5-0.2,0.7-0.3c0.2-0.1,0.3-0.2,0.4-0.4c0.1-0.1,0.1-0.3,0.2-0.4
		c0.1-0.2,0.2-0.4,0.3-0.6c0.1-0.3,0.3-0.6,0.4-0.8c0.2-0.3,0.3-0.6,0.5-0.9c0.2-0.3,0.3-0.6,0.5-0.9c0.1-0.2,0.2-0.4,0.3-0.7
		c0.1-0.3,0.2-0.5,0.3-0.8c0.1-0.2,0.2-0.4,0.3-0.6c0.1-0.2,0.2-0.3,0.2-0.5c-0.5-0.1-1-0.3-1.4-0.7c-0.2,0.2-0.3,0.5-0.5,0.8
		c-0.2,0.3-0.4,0.6-0.7,0.8c-0.2,0.2-0.5,0.4-0.7,0.6c-0.1,0.1-0.1,0.1-0.2,0.1c0,0,0,0.1,0,0.1c0,0.1,0,0.2,0,0.2
		c-0.1,0.2-0.4,0.3-0.5,0.1c-0.1-0.1-0.2,0-0.2,0c-0.2,0.1-0.5,0.3-0.7,0.4c-0.3,0.1-0.5,0.3-0.9,0.3c-0.1,0-0.2,0-0.2,0.1
		c-0.1,0.1-0.2,0.1-0.3,0.1c-0.2,0-0.3,0.1-0.4,0.1c-0.3,0.1-0.6,0.2-0.9,0.2c-0.3,0.1-0.6,0.1-0.9,0.1c-0.2,0-0.4,0-0.6,0.1
		c-0.3,0-0.5,0-0.8-0.1c-0.1,0-0.2,0-0.3,0c-0.3-0.1-0.6-0.2-0.9-0.3c-0.3-0.2-0.5-0.3-0.8-0.5c-0.3-0.2-0.5-0.4-0.8-0.7
		C6.3,25.2,6.1,25.1,6,25c-0.2-0.2-0.4-0.4-0.6-0.7C5.3,24.2,5.1,24,5,23.8c-0.1-0.2-0.3-0.4-0.4-0.6c-0.2-0.3-0.3-0.6-0.4-0.9
		c-0.1-0.3-0.2-0.6-0.3-0.9c-0.1-0.3-0.2-0.6-0.2-0.9c0-0.4-0.1-0.9-0.1-1.4c0-0.3,0.1-0.5,0.1-0.8c0-0.3,0.1-0.5,0.1-0.8
		c0-0.1,0-0.2,0.1-0.3c-0.1,0-0.1,0-0.2,0c-0.2,0-0.2-0.1-0.3-0.3c0-0.2-0.1-0.4-0.1-0.6c0-0.2,0-0.4,0-0.5c0-0.4,0.1-0.7,0.1-1.1
		c0-0.3,0.1-0.5,0.1-0.8c0-0.1-0.1-0.2-0.2-0.4c0-0.1-0.1-0.2-0.2-0.3c0,0,0,0,0-0.1c-0.2-0.2-0.3-0.4-0.5-0.6c0,0,0,0.1-0.1,0.1
		c-0.1,0.2-0.3,0.1-0.4,0c-0.2-0.4-0.4-0.7-0.6-1.1c-0.2-0.5-0.4-0.9-0.6-1.4c-0.1,0.1-0.3,0.1-0.4,0c-0.1-0.1-0.1-0.1-0.1-0.2
		C0.3,9.8,0.2,9.4,0.3,9c0-0.2,0-0.3,0-0.4c0,0,0-0.1,0-0.1C0.2,8.4,0.1,8.4,0,8.4C0,8.3,0,8.2,0.1,8.1c0.1,0,0.1,0,0.2,0
		c0-0.2,0.1-0.4,0.1-0.5c0-0.3,0-0.6,0-0.9c0-0.4,0.1-0.7,0.1-1.1c0-0.1,0.1-0.2,0.2-0.4C0.7,5.1,0.9,5,1,5c0.1-0.3,0.3-0.5,0.4-0.8
		c0.1-0.3,0.2-0.5,0.4-0.8C2,3.1,2.2,2.7,2.5,2.4c0,0,0.1-0.1,0.1-0.1C2.8,2.1,2.8,2,2.9,1.8C2.9,1.7,3,1.5,3.1,1.4
		c0-0.1,0.1-0.1,0.1-0.2C3.3,1,3.4,1,3.6,1.1c0.1-0.2,0.1-0.4,0.2-0.5C3.8,0.4,3.9,0.2,4,0.1C4,0,4.2,0,4.4,0
		c0.2,0.1,0.3,0.3,0.3,0.4c0.1,0.2,0.1,0.5,0.2,0.7c0,0.2,0.1,0.4,0.1,0.6C5,2.1,5,2.4,5.1,2.7c0,0.3,0.1,0.6,0.1,0.9
		c0.1,0.3,0.1,0.6,0.2,0.9c0,0.2,0.1,0.3,0.1,0.5c0,0,0,0.1,0,0.1c0.3,0.1,0.7,0.1,1,0.2c0.3,0.1,0.5,0.1,0.8,0.3
		c0.2,0.1,0.3,0.2,0.4,0.3C7.8,5.9,7.9,6,8,6.1c0.4,0.3,0.8,0.6,1,1.1c0.1,0.2,0.2,0.4,0.3,0.6c0.1,0.2,0.2,0.5,0.3,0.8
		C9.6,8.7,9.7,8.9,9.7,9c0,0.1,0,0.1,0.1,0.1c0.3,0.2,0.6,0.3,0.9,0.5c0.2,0.1,0.4,0.1,0.6,0.1c0.1,0,0.1-0.1,0.1-0.2
		c0.1-0.3,0.1-0.6,0.1-0.9c0.1-0.3,0.2-0.5,0.3-0.7c0.1-0.2,0.2-0.4,0.3-0.5c0.2-0.3,0.4-0.5,0.7-0.6c0.1-0.1,0.2-0.1,0.3-0.1
		c0.1,0,0.1-0.1,0.1-0.2c0-0.3,0-0.6,0-0.8c0.1-0.4,0.1-0.9,0.2-1.3C13.6,3.9,13.8,3.4,14,3c0.2-0.4,0.4-0.8,0.6-1.1
		c0.2-0.3,0.5-0.2,0.7,0C15.2,1.9,15.3,2,15.4,2c0.2,0,0.3,0.2,0.4,0.4C16,2.6,16.1,2.8,16.2,3c0.1,0.1,0.2,0.2,0.3,0.4
		c0.1,0.2,0.2,0.4,0.3,0.6c0.1,0.3,0.2,0.5,0.4,0.8c0.1,0.3,0.3,0.5,0.4,0.8c0.1,0.1,0.1,0.2,0.1,0.3c0.1,0.3,0.3,0.6,0.4,0.9
		c0.1,0.2,0.2,0.3,0.2,0.5c0.1,0.3,0.1,0.6,0.2,0.8c0,0.3,0.1,0.5,0.1,0.8c0,0.2,0,0.3,0,0.5c0,0.1,0,0.2,0,0.2
		c0,0.4-0.1,0.8-0.1,1.2c0,0.2,0,0.4,0,0.6c0,0.2,0,0.3,0,0.5c0,0.1,0,0.1-0.1,0.2c-0.2,0.2-0.3,0.5-0.3,0.8
		c-0.1,0.2-0.2,0.4-0.2,0.6c-0.1,0.2-0.1,0.4-0.2,0.6c-0.1,0.3-0.2,0.7-0.2,1c0,0.4,0,0.8-0.1,1.3c0,0.1,0,0.3-0.2,0.4
		c-0.1,0-0.1,0.1-0.1,0.1c0,0.2,0,0.4,0,0.5c0,0,0,0,0,0c0-0.1,0.1-0.2,0.1-0.3c0.1-0.4,0.3-0.7,0.5-1.1c0.2-0.3,0.4-0.6,0.6-0.8
		c0.2-0.2,0.5-0.5,0.7-0.7c0,0,0.1-0.1,0.1-0.1c0.1,0,0.1-0.1,0.1-0.2c0-0.1,0.2-0.2,0.3-0.1c0,0,0.1,0,0.1,0
		c0.2-0.1,0.4-0.2,0.7-0.4c0.1-0.1,0.3-0.1,0.4-0.2c0.1,0,0.1-0.1,0.2-0.1c-0.1,0-0.2-0.1-0.3-0.1c-0.2-0.1-0.3-0.2-0.4-0.4
		c-0.1-0.1-0.1-0.3-0.1-0.4c0-0.2,0.1-0.3,0.1-0.5c0.1-0.3,0.1-0.6,0.2-0.9c0.1-0.2,0.2-0.4,0.3-0.6c0.1-0.1,0.1-0.3,0.2-0.4
		c0.1-0.2,0.1-0.4,0.2-0.5c0-0.1,0.1-0.2,0.1-0.2c0.2-0.2,0.3-0.4,0.4-0.6c0.1-0.2,0.2-0.4,0.3-0.5c0.1-0.1,0.2-0.3,0.3-0.4
		c0.2-0.2,0.4-0.3,0.7-0.1c0.1,0.1,0.2,0.1,0.3,0.2c0.1,0.1,0.1,0.1,0.2,0.2c0.2,0.3,0,0.6-0.2,0.9c-0.1,0.1-0.1,0.2-0.1,0.2
		c-0.1,0.1-0.1,0.2-0.2,0.3c-0.2,0.4-0.4,0.7-0.7,1.1c-0.1,0.2-0.2,0.3-0.2,0.5c-0.1,0.2-0.1,0.3-0.2,0.5c-0.2,0.3-0.2,0.6-0.2,1
		c0,0.2,0,0.4,0,0.7c0.1,0,0.2-0.1,0.3-0.1c0.3-0.1,0.6-0.2,0.9-0.2c0.2-0.1,0.4-0.1,0.7-0.2c0.2-0.1,0.2-0.1,0.2-0.3
		c0-0.5,0.1-1,0.3-1.5c0.2-0.4,0.3-0.7,0.5-1.1c0-0.1,0.1-0.2,0.1-0.2c0.1-0.2,0.1-0.3,0.2-0.5c0.2-0.3,0.3-0.5,0.5-0.8
		c0.1-0.2,0.2-0.3,0.3-0.5c0.1-0.1,0.2-0.2,0.3-0.3c0.1-0.1,0.3-0.1,0.4,0.1c0.1,0.2,0.2,0.3,0.1,0.5c-0.1,0.1,0,0.2-0.1,0.3
		c-0.1,0.4-0.3,0.8-0.4,1.1c-0.1,0.3-0.2,0.5-0.3,0.8c-0.2,0.6-0.4,1.2-0.7,1.7c-0.1,0.1-0.1,0.2-0.2,0.4c0.2,0,0.3,0,0.4,0
		c0.3,0,0.6,0,0.9,0c0.3,0,0.6,0.1,0.8,0.1c0.4,0.1,0.8,0.2,1.2,0.3c0.2,0,0.3,0.1,0.5,0.1c0.2-0.1,0.2-0.2,0.2-0.4
		c0-0.2,0.1-0.3,0.1-0.5c0.2-0.4,0.4-0.9,0.7-1.3c0.2-0.2,0.4-0.4,0.5-0.7c0.2-0.2,0.3-0.4,0.4-0.5c0,0,0,0,0.1-0.1
		c0.2-0.2,0.5-0.4,0.7-0.6c0.1-0.1,0.2-0.1,0.3,0c0.1,0.1,0.2,0.1,0.2,0.3c0,0.2-0.1,0.3-0.2,0.4c-0.1,0.1-0.2,0.3-0.3,0.4
		c-0.2,0.3-0.4,0.7-0.7,1c-0.1,0.1-0.1,0.2-0.2,0.4c-0.2,0.4-0.5,0.7-0.8,1.1c-0.2,0.2-0.3,0.5-0.5,0.7c0.5,0.1,0.9,0.3,1.4,0.6
		c0.1-0.1,0.1-0.2,0.2-0.3c0.1-0.2,0.3-0.5,0.4-0.7c0.2-0.3,0.4-0.5,0.6-0.8c0.3-0.4,0.5-0.8,0.9-1.1c0.3-0.3,0.6-0.6,0.9-0.8
		c0.1-0.1,0.3-0.2,0.5-0.2c0.2,0,0.3,0.1,0.3,0.3c0,0.4-0.2,0.7-0.4,1c-0.2,0.3-0.4,0.6-0.7,0.9c-0.2,0.3-0.5,0.6-0.7,0.9
		c0,0.1-0.1,0.1-0.1,0.2c-0.1,0.2-0.3,0.3-0.5,0.5c-0.2,0.2-0.4,0.3-0.6,0.5c-0.1,0-0.1,0.1-0.1,0.2c0.2,0.2,0.4,0.3,0.5,0.5
		c0.1,0.1,0.1,0.1,0.2,0.2c0.1,0.1,0.2,0.3,0.3,0.4c0.1,0.1,0.1,0.1,0.2,0.2c0.1,0.2,0.1,0.4,0.2,0.5c0.1,0.2,0.1,0.4,0.1,0.5
		c0,0.2,0,0.4-0.1,0.5c0,0.1,0,0.2,0,0.3c0.2,0,0.3,0,0.5,0c0-0.2,0.1-0.3,0.1-0.5c0-0.1,0-0.2,0-0.3c0-0.1,0.1-0.2,0.1-0.4
		c0,0,0-0.1,0-0.1c0.1-0.2,0.2-0.3,0.2-0.5c0.1-0.2,0.2-0.4,0.3-0.6c0.2-0.3,0.3-0.6,0.5-0.9c0.2-0.4,0.4-0.7,0.7-1.1
		c0,0,0-0.1,0.1-0.1c0.1-0.1,0.1-0.2,0.2-0.2c0.1-0.1,0.3-0.1,0.4-0.3c0.1-0.1,0.2-0.2,0.2-0.2c0.1-0.1,0.1-0.2,0.2-0.2
		c0.1,0,0.1-0.1,0.2-0.1c0.2,0,0.3,0.1,0.3,0.2c0.1,0.1,0,0.3-0.1,0.4c-0.1,0.1-0.2,0.3-0.3,0.5c-0.1,0.2-0.2,0.3-0.3,0.4
		c-0.1,0.2-0.2,0.4-0.3,0.6c-0.1,0.2-0.2,0.5-0.3,0.7c-0.1,0.3-0.3,0.5-0.4,0.8c-0.1,0.2-0.1,0.3-0.2,0.5c-0.1,0.2-0.2,0.3-0.3,0.5
		c0,0.1-0.1,0.1-0.1,0.2c-0.1,0.1-0.2,0.2-0.2,0.3C34.1,17,34,17.2,34,17.3c0,0,0,0,0.1,0c0.3-0.1,0.6-0.2,1-0.3
		c0.4-0.1,0.8-0.3,1.2-0.5c0.3-0.2,0.5-0.4,0.8-0.5c0.4-0.3,0.6-0.6,0.9-1c0.2-0.3,0.4-0.6,0.5-1c0.1-0.4,0.2-0.7,0.2-1.1
		c0-0.2,0-0.3-0.1-0.5c-0.1-0.3-0.1-0.5-0.2-0.7c0-0.1-0.1-0.2-0.1-0.2c-0.1-0.2-0.2-0.4-0.3-0.6c-0.1-0.2-0.2-0.4-0.4-0.6
		c-0.2-0.3-0.4-0.5-0.7-0.8c-0.2-0.2-0.4-0.3-0.6-0.5c-0.2-0.2-0.5-0.3-0.7-0.5c-0.2-0.1-0.4-0.3-0.6-0.4c-0.3-0.2-0.7-0.4-1-0.6
		c-0.3-0.2-0.6-0.4-1-0.5c0,0,0,0,0,0c-0.2,0.1-0.4,0-0.5-0.1c-0.1,0-0.2,0-0.3,0c-0.3,0-0.6,0-0.9,0c-0.3,0-0.6-0.1-0.8-0.2
		c-0.5-0.2-0.8-0.5-1-1c-0.2-0.4-0.3-0.8-0.4-1.3C29,4.2,29,3.9,29,3.6C29,3.3,29,3,29.2,2.7c0.1-0.4,0.3-0.8,0.6-1.2
		c0.3-0.4,0.7-0.7,1.1-0.9c0.4-0.1,0.7-0.2,1.1-0.1c0.2,0.1,0.5,0.2,0.7,0.2c0.1,0,0.1,0.1,0.2,0.1c0.3,0.1,0.4,0.3,0.6,0.6
		c0.1,0.2,0.2,0.3,0.3,0.5C33.9,2.1,34,2.4,34,2.6c0.1,0.3,0.1,0.6,0.1,0.9c0,0.1,0,0.3,0,0.4c0,0.1,0,0.1,0.1,0.2
		c0.1,0,0.2,0.1,0.3,0.1c0.2,0,0.5,0,0.7,0c0.1,0,0.3,0,0.4,0c0.1,0,0.2,0,0.3,0c0.4,0,0.8,0,1.1,0.1c0.2,0,0.3,0.1,0.5,0.1
		c0.4,0.1,0.9,0.2,1.3,0.2C39.3,4.6,39.7,4.8,40,5c0.4,0.2,0.6,0.5,0.8,0.9C41,6.3,41.2,6.7,41.4,7c0,0.1,0,0.2,0.1,0.2
		c0.1,0.2,0.1,0.3,0.2,0.5c0.1,0.1,0.2,0.3,0.2,0.5c0,0.2,0.1,0.2,0.2,0.1c0.2-0.1,0.5-0.3,0.7-0.4c0.1,0,0.1,0,0.2-0.1
		c0.1,0,0.2,0,0.3-0.1c0.3-0.1,0.6,0,0.8,0.2c0.4,0.3,0.6,0.8,0.7,1.3c0.1,0.4,0.2,0.9,0.2,1.3c0,0.2,0.1,0.5,0.1,0.7
		c0,0.5,0,0.9-0.2,1.4c-0.1,0.3-0.3,0.7-0.4,1c-0.1,0.3-0.3,0.5-0.4,0.8c-0.1,0.4-0.5,0.7-0.7,1.1c-0.1,0.2-0.2,0.4-0.4,0.6
		c-0.1,0.2-0.3,0.4-0.4,0.6c-0.2,0.3-0.5,0.6-0.7,0.9c-0.1,0.1-0.2,0.2-0.3,0.2c-0.3,0.2-0.6,0.5-0.9,0.7c-0.3,0.2-0.5,0.5-0.8,0.7
		c-0.2,0.2-0.4,0.3-0.5,0.5c-0.2,0.2-0.3,0.4-0.4,0.5c-0.2,0.2-0.4,0.5-0.6,0.7c-0.3,0.3-0.6,0.6-0.9,0.9c-0.1,0.1-0.3,0.2-0.4,0.4
		c-0.1,0.1-0.1,0.1-0.2,0.2c-0.3,0.3-0.5,0.6-0.8,0.8c-0.4,0.4-0.9,0.8-1.5,1.1c-0.5,0.3-1.1,0.4-1.6,0.4c-0.3,0-0.6,0-0.9,0
		c-0.4,0-0.8-0.1-1.1-0.3c-0.2-0.1-0.4-0.1-0.7-0.2c-0.3-0.1-0.5-0.3-0.8-0.4c-0.1-0.1-0.2-0.1-0.4-0.1c-0.1,0-0.1,0-0.2,0.1
		c-0.2,0.2-0.4,0.4-0.7,0.6c-0.3,0.2-0.6,0.2-0.9,0.2c-0.1,0-0.2,0-0.3,0c-0.3,0-0.6-0.2-0.9-0.3c-0.4-0.1-0.8-0.2-1.1-0.3
		c-0.2-0.1-0.4-0.1-0.6-0.1C24.3,24,24.3,24,24.3,24z M29.5,23.2c0.4,0.2,0.8,0.4,1.3,0.5c0.3,0.1,0.6,0.2,1,0.2c0.6,0,1.2,0,1.8,0
		c0.1,0,0.2,0,0.4-0.1c0.3-0.2,0.7-0.4,1-0.6c0.2-0.1,0.4-0.3,0.6-0.4c0.2-0.2,0.5-0.4,0.7-0.6c0.2-0.1,0.3-0.3,0.4-0.5
		c0.3-0.4,0.6-0.8,1-1.1c0,0,0.1,0,0.1-0.1c0.2-0.2,0.3-0.4,0.5-0.7c0.1-0.2,0.3-0.3,0.5-0.5c0.2-0.2,0.4-0.3,0.5-0.5
		c0.4-0.5,0.9-0.9,1.4-1.2c0.3-0.2,0.6-0.5,0.8-0.8c0.2-0.2,0.3-0.5,0.5-0.7c0.1-0.1,0.1-0.2,0.1-0.3c0.2-0.3,0.4-0.7,0.6-1
		c0.3-0.4,0.6-0.9,0.9-1.3c0.1-0.2,0.2-0.4,0.3-0.5c0.1-0.1,0.1-0.2,0.1-0.4c0-0.3,0.1-0.6,0.1-0.9c0-0.1,0-0.2,0-0.3
		c0-0.3,0.1-0.5,0.1-0.8c0-0.3,0-0.5,0-0.8c-0.1-0.4-0.1-0.9-0.4-1.2c0,0-0.1-0.1-0.1-0.1c-0.1,0-0.3,0-0.4,0
		C43,8.8,42.8,9,42.6,9.1c-0.1,0.1-0.1,0.2-0.2,0.2c-0.1,0.2-0.2,0.4-0.4,0.5c-0.1,0-0.2,0.1-0.3,0c-0.1-0.1-0.2-0.3-0.3-0.4
		c-0.1-0.3-0.2-0.5-0.3-0.8C41,8.4,40.9,8,40.7,7.7c-0.1-0.2-0.2-0.5-0.4-0.7c-0.1-0.3-0.3-0.5-0.4-0.8c-0.1-0.2-0.2-0.3-0.3-0.4
		c-0.3-0.2-0.6-0.3-0.9-0.4c-0.3-0.1-0.7-0.2-1-0.2c-0.3-0.1-0.6-0.1-1-0.2c-0.3,0-0.6,0-0.9,0c-0.2,0-0.3,0-0.5,0.1
		c-0.1,0-0.2,0.1-0.3,0.1c-0.3,0-0.6,0.1-0.9,0.1c-0.2,0-0.3,0.1-0.4,0.3c-0.1,0.2-0.2,0.5-0.3,0.7c0,0,0,0.1,0,0.1
		c0.1,0.1,0.2,0.1,0.3,0.2c0.1,0.1,0.3,0.1,0.4,0.2C34.6,7,35,7.2,35.5,7.5c0.1,0.1,0.3,0.2,0.4,0.3c0.2,0.1,0.3,0.3,0.5,0.4
		c0.5,0.4,1,0.8,1.5,1.2C38,9.5,38,9.6,38.1,9.8c0,0,0,0.1,0.1,0.1c0.3,0.3,0.4,0.6,0.6,1c0,0,0,0,0,0.1c0.1,0.2,0.1,0.5,0.2,0.7
		c0.1,0.4,0.2,0.7,0.3,1.1c0.1,0.5,0,1-0.1,1.4c-0.1,0.2-0.2,0.5-0.2,0.7c0,0.1-0.1,0.2-0.2,0.4c-0.1,0.2-0.2,0.3-0.3,0.5
		c-0.1,0.2-0.2,0.3-0.3,0.4c-0.1,0.1-0.2,0.1-0.3,0.2c-0.2,0.2-0.5,0.4-0.8,0.5c-0.1,0-0.1,0.1-0.2,0.1c-0.2,0.2-0.6,0.3-0.9,0.5
		c-0.2,0.1-0.5,0.2-0.7,0.3c0,0-0.1,0-0.2,0.1c-0.1,0-0.2,0.1-0.3,0.1c-0.1,0-0.1,0.1-0.2,0.1c-0.2,0-0.4,0.1-0.6,0.1
		c-0.3,0.1-0.6,0.1-0.9,0.1c-0.2,0-0.5,0-0.7,0c-0.1,0.3-0.2,0.5-0.4,0.8c-0.1,0.2-0.1,0.4-0.2,0.5c-0.2,0.4-0.5,0.8-0.7,1.2
		c-0.1,0.1-0.1,0.1,0,0.2c0.1,0.1,0.1,0.3-0.1,0.4c-0.1,0.1-0.2,0.1-0.3,0.1c0,0-0.1,0-0.1,0c-0.1,0.2-0.3,0.4-0.4,0.6
		c-0.1,0.2-0.3,0.4-0.4,0.5C29.8,22.8,29.6,23,29.5,23.2z M12.7,17.8c-0.1-0.1-0.2-0.1-0.2-0.1c-0.2-0.1-0.4-0.2-0.5-0.4
		c-0.2-0.3-0.3-0.6-0.3-0.9c0-0.1,0-0.3,0-0.4c0-0.1,0-0.2-0.1-0.1c-0.3,0-0.4-0.1-0.6-0.3c-0.1-0.1-0.1-0.1-0.1,0
		c-0.1,0.2-0.2,0.3-0.3,0.5c0,0.1,0,0.1-0.1,0.2c0,0.2,0,0.4-0.1,0.6c0,0.1,0,0.3-0.1,0.3c-0.1,0.2-0.2,0.3-0.2,0.5
		c-0.1,0.1-0.4,0.2-0.4,0.1c-0.1-0.2-0.3-0.4-0.3-0.7c0-0.1,0-0.2-0.1-0.3C9.1,16.5,9,16.3,9,16.2c-0.1-0.2-0.3-0.3-0.4-0.5
		c-0.1,0.1-0.1,0.2-0.1,0.3c-0.1,0.3-0.2,0.6-0.2,0.9c0,0.1-0.1,0.2-0.1,0.3c0,0.5-0.1,0.9-0.2,1.4c0,0.2-0.1,0.3-0.2,0.4
		c-0.1,0.1-0.1,0.1-0.2,0c-0.1-0.1-0.1-0.2-0.2-0.3c-0.1-0.2-0.3-0.4-0.3-0.7c0-0.1,0-0.3-0.1-0.4c0-0.3-0.1-0.6-0.1-0.9
		c0-0.2-0.1-0.4-0.3-0.6c0,0.1-0.1,0.2-0.1,0.2c-0.1,0.2-0.1,0.3-0.2,0.5c0,0.1-0.1,0.2-0.1,0.2c0,0.2,0,0.4-0.1,0.5
		c-0.1,0.2-0.2,0.4-0.1,0.6c0,0.1,0,0.1,0,0.2c-0.1,0.3-0.1,0.6-0.1,0.9c0,0.1,0,0.2,0,0.3c0,0.1,0,0.2,0.1,0.2
		c0,0.1,0.1,0.1,0.1,0.2c0,0.1,0,0.3,0.1,0.4c0.1,0.2,0.2,0.5,0.3,0.7c0.2,0.3,0.4,0.7,0.7,1c0.2,0.2,0.5,0.4,0.8,0.5
		c0.2,0.1,0.4,0,0.4-0.2c0-0.1,0.1-0.3,0.2-0.4c0.1-0.1,0.2-0.3,0.2-0.4c0.1-0.1,0.1-0.2,0.1-0.3c0.1-0.2,0.1-0.4,0-0.5
		c0-0.1-0.1-0.1-0.1-0.2c0-0.2,0-0.5,0-0.7c0-0.1,0-0.2,0-0.3c0,0,0,0,0.1,0c0.1,0.1,0.2,0.2,0.3,0.2c0.1,0,0.2,0.1,0.2,0.2
		c0.1,0.2,0.2,0.4,0.4,0.5c0-0.1,0.1-0.2,0.1-0.2c0.1-0.1,0.1-0.2,0.2-0.4c0.1-0.1,0.1-0.1,0.2-0.2c0.1,0,0.2-0.1,0.3-0.2
		c0.1-0.1,0.2-0.2,0.4-0.3c0,0,0.1,0,0.1,0c0.1,0.2,0.2,0.3,0.2,0.5c0.1,0.2,0.2,0.4,0.4,0.5c0.1,0.1,0.2,0.1,0.2,0.2
		c0.1,0.2,0.2,0.3,0.4,0.3c0.1,0,0.1,0.1,0.2,0.2c0.1,0.1,0.1,0.2,0.1,0.3c0.1,0.2,0.2,0.3,0.4,0.2c0,0,0,0,0-0.1
		c0-0.1,0-0.2,0.1-0.3c0-0.1,0-0.3,0.2-0.3c0.2,0,0.3,0,0.4,0.2c0,0.1,0.1,0.2,0.1,0.2c0,0.1,0.1,0.1,0.2,0.1c0.1,0,0.2-0.1,0.2-0.2
		c0-0.1,0-0.1,0-0.2c0.1,0.1,0.1,0.1,0.1,0.2c0.1-0.1,0.1-0.2,0.1-0.2c0.2-0.2,0.1-0.4,0.1-0.6c0-0.2-0.1-0.5-0.1-0.7
		c0-0.2-0.1-0.4-0.2-0.6c0,0-0.1-0.1-0.1-0.2c-0.1-0.2-0.1-0.5-0.1-0.7c-0.1-0.3-0.2-0.5-0.3-0.8c-0.1-0.3-0.1-0.7-0.2-1
		c0-0.2-0.1-0.5-0.1-0.7c-0.1-0.3-0.2-0.7-0.3-1c-0.1-0.2-0.1-0.3-0.2-0.5c-0.1,0.2-0.1,0.4-0.1,0.5c0,0.2-0.1,0.3-0.1,0.5
		c-0.2,0.3-0.3,0.6-0.3,0.9c0,0.3,0,0.6-0.1,0.9c0,0,0.1,0,0.2,0C12.7,17.4,12.7,17.6,12.7,17.8z M26.5,23.9c0-0.2-0.1-0.3-0.1-0.4
		c0-0.2-0.1-0.3-0.1-0.5c0-0.2-0.1-0.4-0.1-0.6c0-0.1,0-0.2,0-0.2c0-0.2,0-0.3,0-0.5c0-0.2,0-0.3-0.1-0.5c0-0.2,0-0.4-0.1-0.6
		c0-0.2,0-0.4,0-0.5c0-0.2,0-0.4,0-0.6c0-0.4,0-0.8,0-1.2c0-0.1,0-0.3,0-0.4c0-0.2,0.1-0.4,0-0.5c0-0.1,0-0.3,0-0.4
		c0-0.2,0-0.5,0.1-0.7c0-0.2,0-0.4,0.1-0.6c0-0.1,0-0.3,0-0.4c0-0.1,0-0.1,0-0.2c0-0.1,0-0.2,0-0.3c0-0.1,0-0.1,0-0.2
		c0-0.2,0-0.4,0-0.6c0-0.2,0-0.4,0.1-0.7c0,0-0.1,0-0.1,0c-0.4,0-0.8,0-1.2,0.1c-0.4,0-0.7,0.1-1.1,0.1c-0.1,0-0.2,0-0.3,0
		c0,0.1,0.1,0.2,0.1,0.2c0,0.2,0,0.4,0,0.6c0,0.2-0.1,0.4-0.1,0.6c0,0.2,0,0.4,0,0.6c0,0.2,0,0.4,0,0.6c0,0.3-0.1,0.5-0.1,0.8
		c0,0.2,0,0.3,0,0.5c0,0.4,0,0.8,0,1.2c0,0.5,0.1,1,0.1,1.4c0,0.2,0.1,0.4,0.1,0.6c0,0.2,0.1,0.3,0,0.5c0,0.2,0,0.3,0.1,0.4
		c0,0.1,0,0.2,0.1,0.3c0,0,0,0.1,0,0.1c0,0.1,0,0.1,0.1,0.2c0,0.1,0,0.2,0.1,0.3c0,0.2,0.1,0.3,0.1,0.5c0,0.1,0,0.3,0,0.4
		C24.8,23.5,25.6,23.7,26.5,23.9z M22.9,20.9c0-0.1-0.1-0.1-0.1-0.2c0-0.1,0-0.3,0-0.4c0-0.1,0-0.1,0-0.2c0-0.2,0-0.4,0-0.7
		c0-0.1,0-0.1,0-0.2c0-0.3-0.1-0.7-0.1-1c0-0.1,0-0.2-0.1-0.3c0-0.2,0-0.4,0-0.5c0-0.2,0-0.3,0-0.5c0-0.2,0-0.4,0.1-0.6
		c0-0.2,0-0.4,0.1-0.5c0-0.2,0.1-0.4,0.1-0.7c0-0.3,0-0.6,0-0.9c0.1-0.2,0.1-0.5,0.1-0.8c-0.1,0-0.2,0.1-0.2,0.1
		c-0.2,0.1-0.4,0.2-0.6,0.2c-0.5,0.1-0.9,0.3-1.4,0.5c-0.1,0.1-0.3,0.2-0.4,0.2c-0.1,0-0.1,0.1-0.1,0.2c0,0.2,0,0.3-0.1,0.5
		c-0.1,0.5-0.1,1-0.1,1.5c0,0.4,0,0.8,0,1.2c0,0.4,0,0.7-0.1,1.1c0,0,0,0.1,0,0.1c0,0.2,0,0.5,0,0.7c0,0.2,0.1,0.5,0.1,0.7
		c0,0.3,0.1,0.5,0.1,0.8c0,0.1,0,0.2,0.1,0.3c0,0.1,0.1,0.2,0.1,0.3c0,0.1,0.1,0.2,0.1,0.2c0.1,0.2,0.4,0.3,0.6,0.3
		c0.3,0.1,0.6,0.1,0.9,0.1c0.2,0,0.4,0,0.7,0.1c0.2,0,0.3-0.1,0.4-0.2c0-0.2,0-0.4,0-0.7c0-0.1,0-0.1,0-0.2c0-0.1-0.1-0.2-0.1-0.3
		C22.9,21.1,22.9,21,22.9,20.9C22.9,20.9,22.9,20.9,22.9,20.9z M28.4,22.5c0-0.3-0.1-0.6-0.1-0.9c0-0.4-0.1-0.8-0.1-1.2
		c0-0.2,0-0.3,0-0.5c0-0.3,0-0.7,0-1c0-0.4,0.1-0.7,0.1-1.1c0-0.2,0.1-0.5,0.1-0.7c0-0.4,0.1-0.7,0.1-1.1c0-0.1,0-0.2,0-0.2
		c0-0.3,0-0.5,0-0.8c-0.1-0.3-0.1-0.7,0-1c0-0.1,0-0.2,0-0.4c-0.3,0-0.6-0.1-0.8-0.1c-0.2,0-0.4,0-0.5-0.1c-0.1,0-0.1,0-0.2-0.1
		c-0.1,0-0.1,0-0.1,0.1c0,0.2,0,0.4,0,0.7c0,0.3,0,0.6,0,0.9c0,0.4,0,0.8-0.1,1.2c0,0.3-0.1,0.7-0.1,1c0,0.1,0,0.1,0,0.2
		c0,0.1,0,0.3,0,0.4c0,0.2,0,0.4,0,0.5c0,0.2,0,0.3,0,0.5c0,0.2,0,0.5,0,0.7c0,0.2,0,0.4,0,0.6c0,0.5,0.1,0.9,0.1,1.4
		c0,0.2,0,0.4,0.1,0.6c0,0.1,0.1,0.2,0.1,0.3c0.1,0.3,0.1,0.6,0.2,1c0,0.2,0.1,0.4,0.1,0.6c0.1,0,0.1-0.1,0.2-0.1
		c0.3-0.1,0.5-0.2,0.7-0.4c0.1-0.1,0.1-0.1,0-0.2c-0.1-0.1-0.2-0.2-0.2-0.3c-0.1-0.1-0.1-0.2-0.2-0.2c-0.1-0.1-0.2-0.2-0.4-0.3
		c0,0-0.1-0.1-0.1-0.1c0-0.1,0-0.2,0-0.3c0.1-0.1,0.2,0,0.2,0c0.1,0.1,0.2,0.1,0.3,0.2c0.1,0.1,0.2,0.1,0.3,0.2
		C28.2,22.5,28.3,22.5,28.4,22.5z M29.2,22.5C29.2,22.5,29.2,22.5,29.2,22.5c0.1-0.1,0.2-0.2,0.2-0.3c0.1-0.2,0.3-0.4,0.4-0.6
		c0.2-0.2,0.3-0.4,0.4-0.7c0,0,0-0.1,0-0.1c-0.1-0.3-0.2-0.7-0.1-1c0-0.3,0.1-0.7,0.1-1c0-0.2,0.1-0.3,0.1-0.5
		c0-0.3,0.1-0.5,0.1-0.8c0-0.3,0.1-0.6,0.1-0.9c0-0.3,0.1-0.5,0.1-0.8c0-0.3,0.1-0.6,0.1-0.9c0-0.3,0-0.3-0.2-0.5
		c-0.3-0.2-0.7-0.3-1-0.5c-0.1,0-0.2-0.1-0.3-0.1c0,0.3,0,0.5,0,0.8c0,0.3,0.1,0.5,0.1,0.8c0,0.2,0,0.5,0,0.7c0,0.2,0,0.3-0.1,0.5
		c0,0.2,0,0.3-0.1,0.5c0,0.2-0.1,0.5-0.1,0.7c0,0.2,0,0.4-0.1,0.6c0,0.2,0,0.4,0,0.6c0,0.2,0,0.3,0,0.5c0,0.2,0,0.5,0,0.7
		c0,0.2,0,0.4,0,0.5c0,0.4,0.1,0.8,0.1,1.2C29.2,22.1,29.2,22.3,29.2,22.5z M11.5,11.6c0-0.2-0.1-0.4-0.3-0.6
		c-0.3-0.3-0.6-0.4-0.9-0.5c-0.2-0.1-0.4-0.1-0.6-0.2C9.3,10,9,9.9,8.6,9.7C8.5,9.6,8.4,9.6,8.3,9.6c-0.2,0-0.4,0.1-0.5,0.2
		c-0.1,0.1-0.2,0.1-0.2,0.3c0,0.2,0,0.4,0,0.7c0,0.4,0.1,0.7,0.3,1c0,0,0,0.1,0.1,0.1c0.2,0.3,0.3,0.6,0.3,0.9
		c0,0.2,0.1,0.4,0.3,0.4c0.2,0,0.4,0,0.6,0c0.1,0,0.2-0.1,0.4-0.1c0.1,0,0.2,0,0.2,0c0.3-0.1,0.6-0.2,0.9-0.4c0.1,0,0.2-0.1,0.2-0.1
		c0.1-0.1,0.1-0.1,0.1-0.2c0,0,0-0.1,0-0.1c0.1-0.1,0.2-0.3,0.3-0.4C11.4,11.8,11.5,11.7,11.5,11.6z M7.3,7.9c0-0.3-0.1-0.5-0.3-0.6
		c0,0-0.1-0.1-0.1-0.1C6.8,7,6.6,6.9,6.3,6.8c-0.2,0-0.4,0-0.6,0C5.6,6.8,5.6,6.9,5.5,7c0,0.1-0.1,0.1-0.1,0.2
		C5.4,7.4,5.4,7.6,5.4,7.8c0,0.1,0,0.3,0,0.4c0,0.2,0,0.3,0,0.5C5.4,8.9,5.7,9,5.9,9.2C5.9,9.3,6,9.3,6.1,9.3c0.3,0,0.5-0.1,0.8-0.3
		C7,9,7,8.9,7.1,8.9c0.1-0.2,0.2-0.3,0.2-0.5c0,0,0,0,0,0C7.3,8.2,7.3,8.1,7.3,7.9z M13.5,11.7c0.2,0.1,0.3,0.1,0.4,0.2
		c0.3,0.1,0.5,0.2,0.8,0.3h0c0.2,0,0.3,0,0.5,0c0,0,0.1,0,0.1,0c0-0.1,0.1-0.2,0-0.3c0-0.1-0.1-0.3,0-0.4c0,0,0,0,0,0
		c0-0.2,0-0.3,0-0.5c0-0.3-0.1-0.3-0.2-0.4c-0.1,0-0.2,0-0.3,0.1c-0.1,0-0.2,0.1-0.2,0.1c-0.2,0.1-0.3,0.1-0.5,0.2
		c-0.1,0-0.2,0.1-0.2,0.3c0,0.1,0,0.1-0.1,0.2c0,0.1-0.1,0.1-0.1,0.2C13.6,11.4,13.6,11.5,13.5,11.7C13.5,11.7,13.5,11.7,13.5,11.7z
		"/>
	<path class="st0" d="M26.8,12c0-0.1-0.1-0.2,0-0.3c0-0.2,0.1-0.3,0.1-0.5c0.1-0.4,0.2-0.7,0.4-1.1c0-0.1,0.1-0.2,0.2-0.3
		c0.1-0.2,0.2-0.3,0.2-0.4c0.1-0.2,0.2-0.3,0.3-0.5c0.1-0.1,0.1-0.2,0.2-0.4c0.1-0.1,0.2-0.2,0.2-0.3c0-0.1,0.1-0.1,0.1-0.2
		c0.1-0.2,0.3-0.4,0.4-0.5c0.1-0.1,0.2-0.2,0.4-0.3c0.2-0.1,0.3-0.1,0.5,0c0.1,0.1,0.1,0.4,0.1,0.5c-0.1,0.3-0.3,0.5-0.4,0.8
		c-0.2,0.3-0.4,0.6-0.6,1c-0.1,0.2-0.2,0.4-0.3,0.6c-0.1,0.2-0.2,0.4-0.3,0.6c-0.1,0.2-0.2,0.3-0.3,0.5c-0.1,0.3-0.2,0.6-0.4,0.9
		c-0.1,0.1-0.1,0.2-0.3,0.3c-0.1,0-0.2,0.1-0.3,0.1c-0.2,0.1-0.3,0-0.4-0.1C26.8,12.2,26.8,12.1,26.8,12
		C26.8,12.1,26.8,12.1,26.8,12z"/>
</g>
</svg>
