<?xml version="1.0" encoding="utf-8"?>
<!-- Generator: Adobe Illustrator 22.0.0, SVG Export Plug-In . SVG Version: 6.00 Build 0)  -->
<svg version="1.1" id="Ebene_1" xmlns="http://www.w3.org/2000/svg" xmlns:xlink="http://www.w3.org/1999/xlink" x="0px" y="0px"
	 viewBox="0 0 45 40.2" style="enable-background:new 0 0 45 40.2;" xml:space="preserve">
<style type="text/css">
	.st0{fill:#FFFFFF;}
</style>
<g>
	<path class="st0" d="M25.9,27.5c-0.4,0.1-0.8,0.1-1.2,0.2c-0.9,0.1-1.7,0.2-2.6,0.3c-0.5,0.1-1,0.2-1.5,0.4c-0.1,0-0.1,0.1-0.1,0.1
		c-0.1,0.5-0.2,1-0.2,1.4c-0.1,1,0.1,1.9,0.5,2.9c0.2,0.5,0.3,1,0.5,1.6c0.4,0,0.8,0,1.2,0c0.3,0,0.7,0,1,0s0.5,0.1,0.5,0.5
		s-0.2,0.7-0.6,0.7c-0.5,0-1.1,0.2-1.6-0.2c-0.1-0.1-0.4-0.1-0.5-0.1c-0.4-0.1-0.9-0.1-1.4-0.2c0.1,0.6,0.4,1.1,0.7,1.6
		c0.1,0.2,0.2,0.5,0.1,0.8c-0.2,0.5-0.6,0.5-1,0.4s-0.5-0.4-0.3-0.9c0-0.1,0-0.2,0-0.4c-0.2-0.5-0.4-0.9-0.5-1.4
		c-0.1-0.2-0.2-0.4-0.5-0.4c-0.2,0-0.3-0.1-0.6-0.1c0,0.4-0.1,0.9-0.1,1.3c0,0.4-0.1,0.9-0.1,1.3c0,0.2-0.2,0.4-0.4,0.4
		c-0.2,0-0.5-0.2-0.6-0.5c-0.1-0.5,0-1,0.1-1.6c0.1-0.5,0.3-1,0.3-1.5s-0.1-1-0.2-1.5c-0.1-0.7-0.3-1.5-0.4-2.2
		c-0.1-0.5-0.1-1-0.1-1.5c0-0.4-0.1-0.4-0.5-0.4c-0.7,0.1-1.4,0.1-2.2,0.2c-0.6,0-1.2,0.1-1.9,0c-0.2,0-0.5,0-0.6-0.3s0-0.5,0.2-0.6
		c0.3-0.1,0.7-0.1,1-0.1c0.9,0,1.8-0.1,2.8-0.1c0.3,0,0.6,0,0.8-0.1c0.3-0.1,0.6-0.3,1,0H17c1-0.1,2.1-0.3,3.2-0.4
		c1-0.1,1.9-0.5,2.9-0.5c0.8,0,1.6-0.2,2.4-0.3c0.1,0,0.1-0.3,0.2-0.5c0.2-0.1,0.5-0.1,0.8,0.1c0.1,0.1,0.2,0.1,0.3,0
		c0.5-0.1,1-0.2,1.6-0.3c0-0.1,0-0.1,0-0.1c-0.1-0.2-0.1-0.5,0.2-0.6c0.2-0.1,0.5-0.1,0.7,0.1c0.3,0.3,0.6,0.1,0.9,0.1
		c0.9-0.2,1.8-0.5,2.7-0.7c0.1,0,0.3,0.1,0.5,0c0.6-0.1,1.2-0.2,1.8-0.4c1.1-0.3,2.2-0.5,3.3-0.8c0.4-0.1,0.8-0.2,1.2-0.3
		c0.1,0,0.2-0.2,0.2-0.3c0-0.2,0-0.5,0-0.8c-0.6,0.2-1.1,0.5-1.7,0.3c-0.4-0.1-0.7-0.4-1-0.6c-0.5-0.4-0.6-0.5-1,0.1
		c-0.5,0.7-1.7,1.1-2.5,0.9c-0.2-0.1-0.5-0.2-0.7-0.4c-0.2,0.2-0.4,0.5-0.6,0.7c-0.3,0.3-0.6,0.2-0.7-0.2c-0.1-0.4-0.1-0.9-0.2-1.3
		c0-0.1,0-0.1,0-0.2c-0.5-0.3-0.4-0.7-0.3-1.2s0.2-1.1,0.4-1.6c0.1-0.5,0.6-0.6,1-0.2c0.1,0.1,0.2,0.1,0.3,0.2
		c0.2-0.3,0.3-0.7,0.5-1c0.1-0.2,0.4-0.4,0.5-0.4c0.2,0.1,0.4,0.3,0.6,0.4c0.1,0.1,0.2,0.3,0.3,0.5c0.1-0.2,0.2-0.3,0.3-0.5
		c0.2-0.7,1.6-1,2-0.3c0.3,0.4,0.7,0.9,1,1.3c0.1-0.1,0.3-0.3,0.4-0.5c0.3-0.3,0.6-0.4,1-0.4c0.1,0,0.2,0,0.2,0
		c0-0.3-0.1-0.5-0.1-0.8c0-0.6-0.5-0.9-0.8-1.2c-0.3-0.4-0.8-0.6-1.2-0.9c-0.4-0.3-0.8-0.6-1.2-0.8c-0.3-0.2-0.7-0.3-1.1-0.5
		c-0.8-0.3-1.6-0.7-2.5-1c-0.4-0.2-0.8-0.4-1.3-0.6c-0.1,0.5-0.2,0.9-0.4,1.2c-0.3,0.4-0.4,0.9-0.8,1.2c-0.1,0.1-0.3,0.3-0.3,0.4
		c-0.2,0.4-0.8,0.6-1.2,0.3c-0.5-0.4-1.1-0.9-1.6-1.4c-0.2-0.2-0.3-0.6-0.4-1c-0.2-0.8,0.1-1.5,0.5-2.2c0.3-0.6,0.9-0.8,1.5-0.9
		C27.6,8.5,25.3,8,24,9.4c0.1,0.1,0.2,0.2,0.2,0.3S24.1,10,24,10.1c-0.1,0.1-0.4,0.1-0.4,0c-0.2-0.2-0.4-0.2-0.5,0
		c-0.2,0.2-0.4,0.4-0.6,0.6c-0.2,0.2-0.1,0.5,0.1,0.6c0.3,0.2,0.2,0.4,0,0.6c-0.2,0.2-0.5,0.2-0.7,0c-0.1-0.1-0.1-0.1-0.2-0.2
		c-0.2,0.4-0.4,0.9-0.6,1.3c-0.4,0.7-0.8,1.3-1.2,2c-0.2,0.4-0.4,0.8-0.6,1.3c-0.1,0.2,0.2,0.5,0.4,0.6c0.2,0.1,0.4,0.1,0.6,0.2
		c0.3,0,0.2,0.3,0.4,0.4c0,0,0,0.1,0,0.2c-0.2,0.2-0.4,0.4-0.6,0.5c-0.3,0.1-0.5,0.1-0.8-0.1C19.2,18,19,18,18.8,17.9
		c-0.1-0.1-0.3-0.2-0.4-0.3c-0.3-0.2-0.5-0.3-0.9-0.3c-0.4,0.1-0.8,0.1-1.2,0.1c-0.2,0-0.3-0.1-0.5-0.2c-0.3-0.1-0.6-0.2-0.8-0.3
		c-0.4-0.2-0.8-0.4-1.2-0.6c-0.5-0.3-0.9-0.6-1.3-0.9c-0.4-0.3-0.7-0.7-1-1.1c-0.2-0.2-0.7-0.3-0.9-0.2c-0.6,0.2-1,0.6-1.5,1
		c-0.3,0.3-0.6,0.6-0.9,1c-0.4,0.7-0.8,1.4-1,2.2c-0.1,0.4,0,0.8-0.1,1.3c0,0.6,0,1.1-0.1,1.7c-0.1,0.7-0.2,1.3-0.2,2
		c0,0.5,0.1,1,0.1,1.5c0.1,0.7,0.2,1.4,0.2,2.1c0,0.4,0.3,0.8,0.1,1.3c0,0.1,0.1,0.4,0.1,0.5c0.1,0.3,0.1,0.7,0.2,1
		c0.1,0.4,0.3,0.9,0.4,1.3c0.1,0.6,0.5,1.1,0.5,1.8c0,0.4,0.3,0.8,0.5,1.1s0.4,0.5,0.6,0.8c0.1,0.2,0.2,0.2,0.3,0.1
		c0.2-0.1,0.5-0.2,0.7-0.2c-0.2-0.2-0.4-0.5-0.5-0.7c-0.5-0.7-0.8-1.5-0.7-2.4c0-0.6,0-1.3,0.1-1.9c0.1-0.5,0.4-1,0.6-1.4
		c0-0.1,0.4-0.1,0.5-0.1c0.1,0.1,0.3,0.4,0.3,0.5c-0.2,0.7-0.4,1.4-0.4,2.1c0,1.2,0.1,2.4,1.1,3.3c0.2,0.1,0.3,0.4,0.5,0.5
		c0.3,0.2,0.3,0.5,0.1,0.8c-0.1,0.2-0.1,0.4,0,0.6c0.3,0.7,0.7,1.4,1,2.1c0.1,0.2,0.3,0.4,0.4,0.7c0.1,0.2,0,0.4-0.3,0.5
		s-0.5,0-0.7-0.2c-0.1-0.3-0.2-0.5-0.4-0.8c-0.2-0.4-0.4-0.7-0.6-1.1c-0.2-0.4-0.3-0.7-0.5-1.1c-0.1-0.1-0.2-0.2-0.3-0.2
		c-0.3,0-0.5,0.1-0.7,0.2c0.1,0.2,0.1,0.3,0.1,0.4c0.1,0.4,0.1,0.9,0.2,1.4c0,0.2,0,0.4-0.1,0.6c-0.1,0.1-0.3,0.2-0.4,0.2
		c-0.1,0-0.3-0.1-0.3-0.3c-0.3-0.7-0.3-1.4-0.3-2.1c0-0.1,0.1-0.2,0.1-0.2c-0.1-0.1-0.1-0.2-0.2-0.3c-0.1-0.1-0.2-0.2-0.3-0.3
		c-0.2-0.2-0.5-0.4-0.6-0.6c-0.4-0.6-0.7-1.2-1-1.9c0-0.1,0-0.2,0-0.3c0-0.8-0.3-1.6-0.6-2.4c-0.1-0.4-0.2-0.7-0.2-1.1
		c-0.1-0.6-0.2-1.3-0.3-1.9c0-0.3-0.1-0.5-0.1-0.9c-0.1,0.2-0.1,0.3-0.1,0.4c-0.2,0.4-0.4,0.9-0.6,1.3s-0.4,0.8-0.6,1.2
		c-0.2,0.4-0.5,0.8-0.8,1.2c0,0.1,0,0.1-0.1,0.2s-0.2,0.3-0.4,0.3c-0.1,0-0.4-0.1-0.5-0.2C2.5,30,2,29.2,1.6,28.4
		c-0.4-0.9-0.6-1.9-0.8-2.8c-0.2-1-0.4-2-0.6-3.1c0-0.6-0.1-1.5-0.2-2.3c0-2.2,0-4.4,0-6.6c0-0.8,0.1-1.7,0.1-2.5
		c0-0.4,0.1-0.7,0.3-1c0.2-0.5,0.6-0.4,0.8,0c0.6,1,0.9,2.1,1.3,3.1c0.5,1.5,1.2,2.9,2,4.3c0.3,0.5,0.6,1.1,1,1.6
		c0.1,0.2,0.2,0.3,0.4,0.4H6c0.2-0.6,0.4-1.3,0.6-1.9c0.1-0.4,0.3-0.7,0.5-1.1s0.4-0.8,0.6-1.1c0.4-0.5,0.8-1,1.3-1.4
		c0.7-0.6,1.4-1,2.4-0.7c0.3,0.1,0.6,0.3,0.8,0.5c0.6,0.7,1.3,1.1,2,1.6c0.5,0.4,1.1,0.4,1.6,0.5c0.8,0.1,1.5,0.4,2.3,0.7
		c0.3,0.1,0.4,0,0.4-0.3c0-0.2,0.1-0.5,0.3-0.7c0.7-1.2,1.4-2.4,2-3.5c0.1-0.2,0.2-0.5,0.3-0.7c0.1-0.4-0.1-0.7-0.3-1
		c-0.4-0.5-0.4-1-0.5-1.6C20.4,7.9,20.4,7,20.6,6c0.1-0.7,0.1-1.3,0.2-2c0.1-0.3,0.3-0.4,0.6-0.2c0.1,0.1,0.3,0.3,0.4,0.4
		c0.4,1.1,0.7,2.3,1,3.4c0,0.1,0.1,0.3,0.2,0.4c0,0.1,0.1,0.2,0.1,0.2c0.1,0.2,0.1,0.5,0.2,0.7c0.7-0.4,1.4-0.8,2.1-1
		c0.7-0.1,1.5,0,2.2,0c0-0.4,0.1-0.8,0.1-1.2c0-0.4,0-0.7,0-1.1c0.1-0.8,0.5-1.6,0.8-2.3c0.4-0.9,0.9-1.9,1.3-2.8
		c0-0.1,0.1-0.1,0.1-0.1C30.2,0,30.4-0.1,30.7,0C31,0.2,31.1,0.5,31,0.9c0,0.1-0.1,0.3-0.1,0.5c-0.1,1.1-0.1,2.2-0.1,3.2
		c0,0.6-0.1,1.2-0.1,1.9c0,0.6,0,1.1,0,1.7c0,0.4-0.1,0.7-0.2,1.2c0.6,0.2,1.1,0.4,1.7,0.6c0.7,0.2,1.1,0.7,1.3,1.3s0.5,1,1.1,1.2
		s1.3,0.5,1.9,0.8c0.3,0.1,0.6,0.4,0.9,0.6c1.1,0.7,2.1,1.5,3,2.4c0.1,0.1,0.2,0.2,0.2,0.3c0.1,0.9,0.2,1.7-0.1,2.6
		c-0.1,0.4-0.3,0.5-0.6,0.2c-0.2-0.1-0.3-0.2-0.4-0.4c-0.1-0.1-0.2-0.1-0.4,0.1c-0.1,0.2-0.3,0.4-0.5,0.6c-0.5,0.5-1.1,0.4-1.4-0.2
		c-0.1-0.2-0.3-0.5-0.5-0.7c-0.1-0.1-0.1-0.2-0.2-0.4c-0.1-0.2-0.3-0.3-0.4-0.2c-0.2,0.2-0.4,0.6-0.6,0.8c-0.2,0.2-0.4,0.5-0.6,0.7
		c-0.2,0.2-0.4,0.1-0.6-0.1c-0.1-0.2-0.2-0.4-0.3-0.6c-0.2,0.3-0.3,0.7-0.6,0.9c-0.3,0.3-0.7,0.1-0.9-0.3c0,0-0.1,0-0.1,0.1
		c0,0.4,0,0.9,0,1.4c0.3-0.2,0.5-0.2,0.8,0.1c0,0.1,0.1,0.1,0.1,0.2c0.5,1.1,1.5,0.8,2.1,0.2c0.3-0.3,0.5-0.6,0.8-0.8
		c0.3-0.3,0.8-0.2,1,0.1c0.3,0.3,0.6,0.6,1,0.8c0.1,0.1,0.4,0,0.6-0.1c0.4-0.2,0.8-0.4,1.2-0.6c0.3-0.2,0.7-0.1,0.7,0.2
		c0.1,0.8,0.2,1.6,0.3,2.4c0,0.2-0.3,0.5-0.6,0.6c-0.6,0.1-1.2,0.2-1.8,0.4c-0.3,0.1-0.3,0.2-0.2,0.5c0.7,1.6,1.5,3.2,2.2,4.8
		c0.4,0.8,0.6,1.7,0.9,2.5c0.1,0.3,0.4,0.6,0.5,0.9c0.3,0.6,0.7,1.2,1,1.7c0.2,0.3,0.5,0.6,0.7,0.9c0.1,0.1,0.1,0.3,0.1,0.4
		c0,0.1-0.1,0.2-0.2,0.2c-0.4,0.1-0.6,0.4-0.7,0.8c-0.1,0.6,0.2,1,0.6,1.4c0.1,0.1,0.3,0.2,0.3,0.4c0.1,0.2,0.1,0.4,0,0.5
		s-0.4,0.2-0.6,0.1c-0.3-0.2-0.5-0.5-0.7-0.8c-0.2-0.2-0.3-0.5-0.5-0.8c0,0.4-0.1,0.6-0.1,0.9c0,0.2,0,0.4,0,0.5
		c0,0.3-0.3,0.5-0.6,0.5s-0.4-0.2-0.4-0.5c0-0.7,0-1.3,0-2c0-0.1,0-0.2-0.1-0.2c-0.3-0.3-0.6-0.6-0.9-0.9c-0.3-0.3-0.5-0.6-0.7-1
		c-0.6-1.2-1.2-2.4-1.8-3.6c-0.8-1.6-1.6-3.1-2.5-4.6c-0.2-0.3-0.4-0.6-0.6-0.9c-0.1-0.2-0.3-0.4,0-0.6c-0.5-0.2-3.1,0.2-4.5,0.7
		c-0.1,1.2,0.1,2.4,0.4,3.6c0.1,0.5,0.4,0.9,0.6,1.4c0.1,0.3,0.2,0.6,0.4,0.9c0.2,0.4,0.4,0.8,0.7,1.2c0.1,0.3,0.4,0.4,0.3,0.8
		c0,0.1,0.3,0.4,0.4,0.6c0.4,0.4,0.9,0.7,1.3,1.1c0.1,0.1,0.3,0.3,0.3,0.5c0,0.1-0.1,0.3-0.3,0.3s-0.5,0-0.7-0.1
		c-0.7-0.4-1.2-1-1.7-1.6c-0.1-0.2-0.3-0.4-0.4-0.4c-0.2-0.1-0.4,0-0.8,0c0.6,0.9,1.1,1.7,1.6,2.5c0.1,0.2,0.3,0.5,0.3,0.7
		c0,0.3-0.2,0.5-0.5,0.4c-0.5-0.1-0.7-0.4-1-0.9c-0.4-0.8-0.8-1.7-1.2-2.5c0-0.1-0.2-0.1-0.3-0.1c-0.3,0.1-0.6,0.1-1,0.2
		c0.1,0.3,0.1,0.6,0.2,0.9c0.2,0.8,0.5,1.5,0.7,2.3c0.1,0.3-0.1,0.6-0.4,0.7c-0.3,0-0.6-0.1-0.8-0.4c-0.1-0.2-0.3-0.5-0.3-0.8
		c-0.1-0.9-0.4-1.8-0.7-2.7c-0.2-0.6-0.2-1.2-0.3-1.8c-0.1-0.9-0.3-1.9-0.5-2.8c-0.1-0.8-0.2-1.6-0.3-2.4C26,27.8,26,27.7,25.9,27.5
		z M1.2,12C1.2,12,1.1,12,1.2,12c-0.1,0.1-0.1,0.2-0.1,0.3c-0.1,1-0.1,1.9-0.2,2.9c0,1,0,2,0,2.9c0,0.1,0,0.2,0,0.3
		c0.1,1,0.2,2,0.3,2.9c0,0.5,0,1,0.1,1.4c0,0.5,0.1,0.9,0.2,1.4c0.3,1.7,0.8,3.3,1.5,4.8c0.1,0.3,0.3,0.6,0.5,0.9
		c0.5-1.2,1.4-2.2,1.6-3.4c0-0.2,0.3-0.5,0.3-0.7c0.1-0.5,0.2-0.9,0.5-1.2C6,24.4,6,24.3,6,24.2c0-0.6-0.1-1.3-0.1-1.9
		c0-0.5-0.2-0.9-0.4-1.4c-0.1-0.2-0.3-0.4-0.5-0.6c-0.2-0.3-0.4-0.6-0.6-0.9C4,18.7,3.6,18,3.3,17.3c-0.2-0.4-0.3-0.8-0.5-1.1
		c-0.5-0.6-0.7-1.4-1-2.2C1.7,13.5,1.4,12.7,1.2,12z M35.2,25.3c0.2,0.3,0.3,0.5,0.4,0.8c0.1,0.2,0.3,0.3,0.1,0.5c0,0,0,0.2,0.1,0.2
		c0.3,0.5,0.6,1,0.9,1.5c0.2,0.4,0.5,0.9,0.7,1.3c0.2,0.3,0.3,0.6,0.5,0.9c0.2,0.5,0.5,1.1,0.7,1.6c0.3,0.6,0.7,1.2,0.9,1.8
		c0.4,1,0.9,1.9,1.9,2.6c0.2-0.6,0.7-0.7,1.3-0.7c-0.4-0.8-0.8-1.5-1.3-2.2c-0.7-1-0.9-2.2-1.4-3.3c-0.2-0.4-0.3-0.8-0.5-1.2
		c-0.2-0.4-0.4-0.7-0.6-1.1c-0.2-0.6-0.4-1.1-0.7-1.7s-0.6-1.1-0.9-1.6C36.6,25,35.9,25.2,35.2,25.3z M30.9,33.7
		C30.9,33.7,31,33.7,30.9,33.7c0-0.1,0-0.1-0.1-0.2c-0.6-1-1.1-2-1.3-3.1c-0.3-1.1-0.4-2.2-0.6-3.3c0-0.2-0.1-0.3-0.3-0.2
		c-0.3,0-0.6,0.1-0.9,0.1c-0.2,0.1-0.6,0.1-0.7,0.4c0,0.4,0,0.8,0.1,1.2c0,0.2,0.1,0.5,0.1,0.7c0.1,0.5,0.1,1,0.2,1.5
		c0.1,0.7,0.2,1.3,0.4,2c0.1,0.4,0.1,0.8,0.1,1.2C29,34,29.9,33.8,30.9,33.7z M20.1,34.3c-0.3-1-0.7-1.9-0.8-2.8
		c-0.1-0.9,0-1.9,0-2.8c-0.7,0-1.5,0-2.2,0c0,0.3,0.1,0.6,0.1,0.8c0.1,0.7,0.2,1.4,0.3,2.1c0.1,0.5,0.3,1,0.3,1.5
		c0,0.2-0.1,0.5,0.1,0.6s0.4,0.2,0.7,0.3c0.3,0.1,0.6,0.1,0.9,0.2C19.7,34.2,19.9,34.2,20.1,34.3z M32.7,11.5c0-0.3-0.3-0.7-0.7-0.8
		c-0.3-0.1-0.6-0.1-0.9-0.2c0.1,0.2,0.2,0.5,0.4,0.6C31.9,11.3,32.3,11.4,32.7,11.5z"/>
	<path class="st0" d="M8.7,35.8C9,36.2,9,36.3,8.8,36.7c-0.2,0.5-0.4,1.1-0.6,1.6c-0.1,0.2-0.2,0.4-0.5,0.4s-0.5-0.2-0.4-0.5
		C7.5,37.6,7.7,37,8,36.5C8.1,36.3,8.4,36.1,8.7,35.8z"/>
	<path class="st0" d="M45,38.1c-0.1,0.1-0.2,0.4-0.3,0.4c-0.2,0-0.5,0-0.6-0.1c-0.3-0.3-0.5-0.6-0.8-0.9c-0.1-0.2-0.2-0.4,0-0.6
		c0.2-0.2,0.4-0.1,0.6,0.1c0.3,0.3,0.6,0.5,0.8,0.8C44.9,37.8,44.9,38,45,38.1z"/>
</g>
</svg>
