<?xml version="1.0" encoding="utf-8"?>
<!-- Generator: Adobe Illustrator 22.0.0, SVG Export Plug-In . SVG Version: 6.00 Build 0)  -->
<svg version="1.1" id="Ebene_1" xmlns="http://www.w3.org/2000/svg" xmlns:xlink="http://www.w3.org/1999/xlink" x="0px" y="0px"
	 viewBox="0 0 45 33" style="enable-background:new 0 0 45 33;" xml:space="preserve">
<style type="text/css">
	.st0{fill:#FFFFFF;}
</style>
<g>
	<path class="st0" d="M24.3,24c0.1,0,0.1,0.1,0.2,0.1c0.1,0.1,0.2,0.1,0.3,0.2c0.3,0.2,0.5,0.3,0.8,0.5c0.4,0.3,0.8,0.6,1.1,0.9
		c0.3,0.3,0.7,0.6,1,0.9c0.4,0.3,0.8,0.7,1.1,1c0.4,0.3,0.7,0.6,1.1,0.9c0.3,0.2,0.5,0.4,0.8,0.7c0.2,0.2,0.5,0.4,0.7,0.6
		s0.5,0.4,0.7,0.6c0.2,0.2,0.4,0.4,0.7,0.7c0.1,0.2,0,0.3-0.2,0.4c-0.1,0-0.2,0-0.3,0.1c-0.1,0-0.2,0-0.3,0.1c0,0.1,0,0.2,0,0.2
		c0,0.1-0.2,0.2-0.3,0.1c-0.2-0.1-0.3,0-0.4,0.1c-0.2,0.1-0.4,0.3-0.7,0.4c-0.5,0.1-1,0.2-1.5,0.2c-0.4,0-0.8,0-1.2,0.1
		c-0.3,0-0.5,0.1-0.8,0.1c-0.1,0-0.3,0-0.4,0S26.4,33,26.3,33c-0.3,0.1-0.5,0.2-0.8,0.2c-0.2,0-0.4,0-0.7,0.1
		c-0.1,0-0.1-0.1-0.2-0.1s-0.1-0.1-0.2-0.2c0-0.1,0-0.2,0.1-0.3s0.2-0.1,0.3-0.1c0.1,0,0.1,0,0.2-0.1c0.3-0.2,0.6-0.2,0.9-0.2
		c0.2,0,0.4,0,0.5-0.1c0.2-0.1,0.5-0.2,0.7-0.4c0.1-0.1,0.3-0.2,0.4-0.3c0.1-0.1,0.1-0.1,0.2-0.1s0.1-0.1,0-0.1
		c-0.3-0.4-0.5-0.8-0.8-1.1c-0.2-0.3-0.5-0.5-0.8-0.8c-0.1-0.1-0.3-0.2-0.4-0.3c-0.2-0.2-0.4-0.3-0.5-0.5c-0.3-0.3-0.5-0.5-0.7-0.8
		c-0.1-0.2-0.3-0.3-0.4-0.5c-0.1-0.1-0.2-0.1-0.2-0.1c-0.2-0.1-0.4-0.3-0.5-0.5c-0.1-0.1-0.1-0.1,0.1-0.1c-0.2-0.2-0.4-0.5-0.6-0.7
		c-0.2-0.3-0.4-0.5-0.7-0.8c-0.2-0.2-0.3-0.4-0.5-0.6c-0.1-0.1-0.1-0.2-0.2-0.3c-0.1-0.1-0.1-0.1-0.2-0.1c-0.1,0.1-0.1,0.2-0.1,0.3
		c-0.1,0.1-0.2,0.3-0.3,0.4c-0.1,0.2-0.2,0.4-0.3,0.6c-0.1,0.2-0.2,0.4-0.2,0.6v0.1c-0.1,0.1-0.1,0.2-0.2,0.3
		c-0.1,0.1-0.1,0.3-0.2,0.4c-0.2,0.5-0.3,1-0.5,1.4c-0.1,0.4-0.3,0.8-0.4,1.2c-0.1,0.4-0.3,0.8-0.4,1.3c-0.1,0.3-0.3,0.6-0.4,0.9
		c-0.1,0.1-0.2,0.3-0.3,0.4c-0.2,0.2-0.4,0.4-0.7,0.5c-0.2,0.1-0.5,0.1-0.7,0.2c-0.2,0-0.4,0-0.7,0c-0.2,0-0.4-0.1-0.6-0.1
		c-0.3,0-0.6-0.1-0.9-0.1c-0.3,0-0.5-0.1-0.8-0.2c-0.1,0-0.2-0.1-0.4-0.2c-0.3-0.2-0.6-0.3-0.9-0.5c-0.1-0.1-0.2-0.1-0.3-0.1
		c-0.1-0.1-0.2-0.1-0.2-0.2s0-0.3,0.1-0.4c0.1,0,0.1,0,0.2,0c0.3,0,0.6,0.1,0.9,0.1c0.2,0,0.4,0,0.6,0c0,0,0,0,0.1,0
		c0.4,0,0.7-0.2,1-0.3c0.2-0.1,0.5-0.2,0.7-0.3c0.2-0.1,0.3-0.2,0.4-0.4c0.1-0.1,0.1-0.3,0.2-0.4c0.1-0.2,0.2-0.4,0.3-0.6
		c0.1-0.3,0.3-0.6,0.4-0.8c0.2-0.3,0.3-0.6,0.5-0.9s0.3-0.6,0.5-0.9c0.1-0.2,0.2-0.4,0.3-0.7c0.1-0.3,0.2-0.5,0.3-0.8
		c0.1-0.2,0.2-0.4,0.3-0.6c0.1-0.2,0.2-0.3,0.2-0.5c-0.5-0.1-1-0.3-1.4-0.7c-0.2,0.2-0.3,0.5-0.5,0.8s-0.4,0.6-0.7,0.8
		c-0.2,0.2-0.5,0.4-0.7,0.6c-0.1,0.1-0.1,0.1-0.2,0.1v0.1c0,0.1,0,0.2,0,0.2c-0.1,0.2-0.4,0.3-0.5,0.1c-0.1-0.1-0.2,0-0.2,0
		c-0.2,0.1-0.5,0.3-0.7,0.4c-0.3,0.1-0.5,0.3-0.9,0.3c-0.1,0-0.2,0-0.2,0.1c-0.1,0.1-0.2,0.1-0.3,0.1c-0.2,0-0.3,0.1-0.4,0.1
		c-0.3,0.1-0.6,0.2-0.9,0.2c-0.3,0.1-0.6,0.1-0.9,0.1c-0.2,0-0.4,0-0.6,0.1c-0.3,0-0.5,0-0.8-0.1c-0.1,0-0.2,0-0.3,0
		C8.3,27,8,26.9,7.7,26.8c-0.3-0.2-0.5-0.3-0.8-0.5s-0.5-0.4-0.8-0.7c0.2-0.4,0-0.5-0.1-0.6c-0.2-0.2-0.4-0.4-0.6-0.7
		C5.3,24.2,5.1,24,5,23.8s-0.3-0.4-0.4-0.6c-0.2-0.3-0.3-0.6-0.4-0.9S4,21.7,3.9,21.4s-0.2-0.6-0.2-0.9c0-0.4-0.1-0.9-0.1-1.4
		c0-0.3,0.1-0.5,0.1-0.8s0.1-0.5,0.1-0.8c0-0.1,0-0.2,0.1-0.3c-0.1,0-0.1,0-0.2,0c-0.2,0-0.2-0.1-0.3-0.3c0-0.2-0.1-0.4-0.1-0.6
		s0-0.4,0-0.5c0-0.4,0.1-0.7,0.1-1.1c0-0.3,0.1-0.5,0.1-0.8c0-0.1-0.1-0.2-0.2-0.4c0-0.1-0.1-0.2-0.2-0.3c0,0,0,0,0-0.1
		c-0.2-0.2-0.3-0.4-0.5-0.6c0,0,0,0.1-0.1,0.1c-0.1,0.2-0.3,0.1-0.4,0c-0.2-0.4-0.4-0.7-0.6-1.1c-0.2-0.5-0.4-0.9-0.6-1.4
		c-0.1,0.1-0.3,0.1-0.4,0S0.4,10,0.4,9.9C0.3,9.8,0.2,9.4,0.3,9c0-0.2,0-0.3,0-0.4V8.5C0.2,8.4,0.1,8.4,0,8.4c0-0.1,0-0.2,0.1-0.3
		c0.1,0,0.1,0,0.2,0c0-0.2,0.1-0.4,0.1-0.5c0-0.3,0-0.6,0-0.9c0-0.4,0.1-0.7,0.1-1.1c0-0.1,0.1-0.2,0.2-0.4C0.7,5.1,0.9,5,1,5
		c0.1-0.3,0.3-0.5,0.4-0.8c0.1-0.3,0.2-0.5,0.4-0.8s0.4-0.7,0.7-1l0.1-0.1C2.8,2.1,2.8,2,2.9,1.8c0-0.1,0.1-0.3,0.2-0.4
		c0-0.1,0.1-0.1,0.1-0.2C3.3,1,3.4,1,3.6,1.1c0.1-0.2,0.1-0.4,0.2-0.5c0-0.2,0.1-0.4,0.2-0.5C4,0,4.2,0,4.4,0
		c0.2,0.1,0.3,0.3,0.3,0.4c0.1,0.2,0.1,0.5,0.2,0.7C4.9,1.3,5,1.5,5,1.7c0,0.4,0,0.7,0.1,1c0,0.3,0.1,0.6,0.1,0.9
		c0.1,0.3,0.1,0.6,0.2,0.9c0,0.2,0.1,0.3,0.1,0.5v0.1c0.3,0.1,0.7,0.1,1,0.2S7,5.4,7.3,5.6c0.2,0.1,0.3,0.2,0.4,0.3
		C7.8,5.9,7.9,6,8,6.1c0.4,0.3,0.8,0.6,1,1.1c0.1,0.2,0.2,0.4,0.3,0.6s0.2,0.5,0.3,0.8c0,0.1,0.1,0.3,0.1,0.4s0,0.1,0.1,0.1
		c0.3,0.2,0.6,0.3,0.9,0.5c0.2,0.1,0.4,0.1,0.6,0.1c0.1,0,0.1-0.1,0.1-0.2c0.1-0.3,0.1-0.6,0.1-0.9c0.1-0.3,0.2-0.5,0.3-0.7
		c0.1-0.2,0.2-0.4,0.3-0.5c0.2-0.3,0.4-0.5,0.7-0.6c0.1-0.1,0.2-0.1,0.3-0.1s0.1-0.1,0.1-0.2c0-0.3,0-0.6,0-0.8
		c0.1-0.4,0.1-0.9,0.2-1.3c0.2-0.5,0.4-1,0.6-1.4s0.4-0.8,0.6-1.1c0.2-0.3,0.5-0.2,0.7,0c-0.1,0,0,0.1,0.1,0.1
		c0.2,0,0.3,0.2,0.4,0.4C16,2.6,16.1,2.8,16.2,3c0.1,0.1,0.2,0.2,0.3,0.4c0.1,0.2,0.2,0.4,0.3,0.6c0.1,0.3,0.2,0.5,0.4,0.8
		c0.1,0.3,0.3,0.5,0.4,0.8c0.1,0.1,0.1,0.2,0.1,0.3c0.1,0.3,0.3,0.6,0.4,0.9c0.1,0.2,0.2,0.3,0.2,0.5c0.1,0.3,0.1,0.6,0.2,0.8
		c0,0.3,0.1,0.5,0.1,0.8c0,0.2,0,0.3,0,0.5c0,0.1,0,0.2,0,0.2c0,0.4-0.1,0.8-0.1,1.2c0,0.2,0,0.4,0,0.6c0,0.2,0,0.3,0,0.5
		c0,0.1,0,0.1-0.1,0.2c-0.2,0.2-0.3,0.5-0.3,0.8c-0.1,0.2-0.2,0.4-0.2,0.6c-0.1,0.2-0.1,0.4-0.2,0.6c-0.1,0.3-0.2,0.7-0.2,1
		c0,0.4,0,0.8-0.1,1.3c0,0.1,0,0.3-0.2,0.4c-0.1,0-0.1,0.1-0.1,0.1c0,0.2,0,0.4,0,0.5l0,0c0-0.1,0.1-0.2,0.1-0.3
		c0.1-0.4,0.3-0.7,0.5-1.1c0.2-0.3,0.4-0.6,0.6-0.8s0.5-0.5,0.7-0.7l0.1-0.1c0.1,0,0.1-0.1,0.1-0.2c0-0.1,0.2-0.2,0.3-0.1h0.1
		c0.2-0.1,0.4-0.2,0.7-0.4c0.1-0.1,0.3-0.1,0.4-0.2c0.1,0,0.1-0.1,0.2-0.1c-0.1,0-0.2-0.1-0.3-0.1c-0.2-0.1-0.3-0.2-0.4-0.4
		c-0.1-0.1-0.1-0.3-0.1-0.4c0-0.2,0.1-0.3,0.1-0.5c0.1-0.3,0.1-0.6,0.2-0.9c0.1-0.2,0.2-0.4,0.3-0.6c0.1-0.1,0.1-0.3,0.2-0.4
		C21,9.9,21,9.7,21.1,9.6c0-0.1,0.1-0.2,0.1-0.2c0.2-0.2,0.3-0.4,0.4-0.6c0.1-0.2,0.2-0.4,0.3-0.5C22,8.2,22.1,8,22.2,7.9
		c0.2-0.2,0.4-0.3,0.7-0.1C23,7.9,23.1,7.9,23.2,8c0.1,0.1,0.1,0.1,0.2,0.2c0.2,0.3,0,0.6-0.2,0.9c-0.1,0.1-0.1,0.2-0.1,0.2
		C23,9.4,23,9.5,22.9,9.6c-0.2,0.4-0.4,0.7-0.7,1.1C22.1,10.9,22,11,22,11.2c-0.1,0.2-0.1,0.3-0.2,0.5c-0.2,0.3-0.2,0.6-0.2,1
		c0,0.2,0,0.4,0,0.7c0.1,0,0.2-0.1,0.3-0.1c0.3-0.1,0.6-0.2,0.9-0.2c0.2-0.1,0.4-0.1,0.7-0.2c0.2-0.1,0.2-0.1,0.2-0.3
		c0-0.5,0.1-1,0.3-1.5c0.2-0.4,0.3-0.7,0.5-1.1c0-0.1,0.1-0.2,0.1-0.2c0.1-0.2,0.1-0.3,0.2-0.5C25,9,25.1,8.8,25.3,8.5
		c0.1-0.2,0.2-0.3,0.3-0.5c0.1-0.1,0.2-0.2,0.3-0.3c0.1-0.1,0.3-0.1,0.4,0.1c0.1,0.2,0.2,0.3,0.1,0.5c-0.1,0.1,0,0.2-0.1,0.3
		C26.2,9,26,9.4,25.9,9.7s-0.2,0.5-0.3,0.8c-0.2,0.6-0.4,1.2-0.7,1.7c-0.1,0.1-0.1,0.2-0.2,0.4c0.2,0,0.3,0,0.4,0c0.3,0,0.6,0,0.9,0
		s0.6,0.1,0.8,0.1c0.4,0.1,0.8,0.2,1.2,0.3c0.2,0,0.3,0.1,0.5,0.1c0.2-0.1,0.2-0.2,0.2-0.4s0.1-0.3,0.1-0.5c0.2-0.4,0.4-0.9,0.7-1.3
		c0.2-0.2,0.4-0.4,0.5-0.7c0.2-0.2,0.3-0.4,0.4-0.5c0,0,0,0,0.1-0.1C30.7,9.4,31,9.2,31.2,9c0.1-0.1,0.2-0.1,0.3,0
		c0.1,0.1,0.2,0.1,0.2,0.3s-0.1,0.3-0.2,0.4c-0.1,0.1-0.2,0.3-0.3,0.4c-0.2,0.3-0.4,0.7-0.7,1c-0.1,0.1-0.1,0.2-0.2,0.4
		c-0.2,0.4-0.5,0.7-0.8,1.1c-0.2,0.2-0.3,0.5-0.5,0.7c0.5,0.1,0.9,0.3,1.4,0.6c0.1-0.1,0.1-0.2,0.2-0.3c0.1-0.2,0.3-0.5,0.4-0.7
		c0.2-0.3,0.4-0.5,0.6-0.8c0.3-0.4,0.5-0.8,0.9-1.1c0.3-0.3,0.6-0.6,0.9-0.8c0.1-0.1,0.3-0.2,0.5-0.2s0.3,0.1,0.3,0.3
		c0,0.4-0.2,0.7-0.4,1s-0.4,0.6-0.7,0.9c-0.2,0.3-0.5,0.6-0.7,0.9c0,0.1-0.1,0.1-0.1,0.2c-0.1,0.2-0.3,0.3-0.5,0.5s-0.4,0.3-0.6,0.5
		c-0.1,0-0.1,0.1-0.1,0.2c0.2,0.2,0.4,0.3,0.5,0.5c0.1,0.1,0.1,0.1,0.2,0.2c0.1,0.1,0.2,0.3,0.3,0.4c0.1,0.1,0.1,0.1,0.2,0.2
		c0.1,0.2,0.1,0.4,0.2,0.5c0.1,0.2,0.1,0.4,0.1,0.5c0,0.2,0,0.4-0.1,0.5c0,0.1,0,0.2,0,0.3c0.2,0,0.3,0,0.5,0c0-0.2,0.1-0.3,0.1-0.5
		c0-0.1,0-0.2,0-0.3c0-0.1,0.1-0.2,0.1-0.4v-0.1c0.1-0.2,0.2-0.3,0.2-0.5c0.1-0.2,0.2-0.4,0.3-0.6c0.2-0.3,0.3-0.6,0.5-0.9
		c0.2-0.4,0.4-0.7,0.7-1.1c0,0,0-0.1,0.1-0.1c0.1-0.1,0.1-0.2,0.2-0.2c0.1-0.1,0.3-0.1,0.4-0.3c0.1-0.1,0.2-0.2,0.2-0.2
		c0.1-0.1,0.1-0.2,0.2-0.2c0.1,0,0.1-0.1,0.2-0.1c0.2,0,0.3,0.1,0.3,0.2c0.1,0.1,0,0.3-0.1,0.4c-0.1,0.1-0.2,0.3-0.3,0.5
		s-0.2,0.3-0.3,0.4c-0.1,0.2-0.2,0.4-0.3,0.6c-0.1,0.2-0.2,0.5-0.3,0.7c-0.1,0.3-0.3,0.5-0.4,0.8c-0.1,0.2-0.1,0.3-0.2,0.5
		c-0.1,0.2-0.2,0.3-0.3,0.5c0,0.1-0.1,0.1-0.1,0.2C34.1,17,34,17.1,34,17.2c0.1-0.2,0,0,0,0.1c0,0,0,0,0.1,0c0.3-0.1,0.6-0.2,1-0.3
		c0.4-0.1,0.8-0.3,1.2-0.5c0.3-0.2,0.5-0.4,0.8-0.5c0.4-0.3,0.6-0.6,0.9-1c0.2-0.3,0.4-0.6,0.5-1s0.2-0.7,0.2-1.1
		c0-0.2,0-0.3-0.1-0.5c-0.1-0.3-0.1-0.5-0.2-0.7c0-0.1-0.1-0.2-0.1-0.2c-0.1-0.2-0.2-0.4-0.3-0.6c-0.1-0.2-0.2-0.4-0.4-0.6
		c-0.2-0.3-0.4-0.5-0.7-0.8c-0.2-0.2-0.4-0.3-0.6-0.5c-0.2-0.2-0.5-0.3-0.7-0.5c-0.2-0.1-0.4-0.3-0.6-0.4c-0.3-0.2-0.7-0.4-1-0.6
		S33.4,7.1,33,7l0,0c-0.2,0.1-0.4,0-0.5-0.1c-0.1,0-0.2,0-0.3,0c-0.3,0-0.6,0-0.9,0s-0.6-0.1-0.8-0.2c-0.5-0.2-0.8-0.5-1-1
		c-0.2-0.4-0.3-0.8-0.4-1.3C29,4.2,29,3.9,29,3.6s0-0.6,0.2-0.9c0.1-0.4,0.3-0.8,0.6-1.2c0.3-0.4,0.7-0.7,1.1-0.9
		c0.4-0.1,0.7-0.2,1.1-0.1c0.2,0.1,0.5,0.2,0.7,0.2c0.1,0,0.1,0.1,0.2,0.1c0.3,0.1,0.4,0.3,0.6,0.6c0.1,0.2,0.2,0.3,0.3,0.5
		C33.9,2.1,34,2.4,34,2.6c0.1,0.3,0.1,0.6,0.1,0.9c0,0.1,0,0.3,0,0.4c0,0.1,0,0.1,0.1,0.2c0.1,0,0.2,0.1,0.3,0.1c0.2,0,0.5,0,0.7,0
		c0.1,0,0.3,0,0.4,0c0.1,0,0.2,0,0.3,0c0.4,0,0.8,0,1.1,0.1c0.2,0,0.3,0.1,0.5,0.1c0.4,0.1,0.9,0.2,1.3,0.2c0.5,0,0.9,0.2,1.2,0.4
		c0.4,0.2,0.6,0.5,0.8,0.9s0.4,0.8,0.6,1.1c0,0.1,0,0.2,0.1,0.2c0.1,0.2,0.1,0.3,0.2,0.5c0.1,0.1,0.2,0.3,0.2,0.5s0.1,0.2,0.2,0.1
		c0.2-0.1,0.5-0.3,0.7-0.4c0.1,0,0.1,0,0.2-0.1c0.1,0,0.2,0,0.3-0.1c0.3-0.1,0.6,0,0.8,0.2c0.4,0.3,0.6,0.8,0.7,1.3
		c0.1,0.4,0.2,0.9,0.2,1.3c0,0.2,0.1,0.5,0.1,0.7c0,0.5,0,0.9-0.2,1.4c-0.1,0.3-0.3,0.7-0.4,1c-0.1,0.3-0.3,0.5-0.4,0.8
		c-0.1,0.4-0.5,0.7-0.7,1.1c-0.1,0.2-0.2,0.4-0.4,0.6c-0.1,0.2-0.3,0.4-0.4,0.6c-0.2,0.3-0.5,0.6-0.7,0.9c-0.1,0.1-0.2,0.2-0.3,0.2
		c-0.3,0.2-0.6,0.5-0.9,0.7c-0.3,0.2-0.5,0.5-0.8,0.7c-0.2,0.2-0.4,0.3-0.5,0.5c-0.2,0.2-0.3,0.4-0.4,0.5c-0.2,0.2-0.4,0.5-0.6,0.7
		c-0.3,0.3-0.6,0.6-0.9,0.9c-0.1,0.1-0.3,0.2-0.4,0.4c-0.1,0.1-0.1,0.1-0.2,0.2c-0.3,0.3-0.5,0.6-0.8,0.8c-0.4,0.4-0.9,0.8-1.5,1.1
		c-0.5,0.3-1.1,0.4-1.6,0.4c-0.3,0-0.6,0-0.9,0c-0.4,0-0.8-0.1-1.1-0.3c-0.2-0.1-0.4-0.1-0.7-0.2c-0.3-0.1-0.5-0.3-0.8-0.4
		c-0.1-0.1-0.2-0.1-0.4-0.1c-0.1,0-0.1,0-0.2,0.1c-0.2,0.2-0.4,0.4-0.7,0.6c-0.3,0.2-0.6,0.2-0.9,0.2c-0.1,0-0.2,0-0.3,0
		c-0.3,0-0.6-0.2-0.9-0.3c-0.4-0.1-0.8-0.2-1.1-0.3C24.8,23.9,24.6,23.9,24.3,24C24.3,24,24.3,24,24.3,24z M29.5,23.2
		c0.4,0.2,0.8,0.4,1.3,0.5c0.3,0.1,0.6,0.2,1,0.2c0.6,0,1.2,0,1.8,0c0.1,0,0.2,0,0.4-0.1c0.3-0.2,0.7-0.4,1-0.6
		c0.2-0.1,0.4-0.3,0.6-0.4c0.2-0.2,0.5-0.4,0.7-0.6c0.2-0.1,0.3-0.3,0.4-0.5c0.3-0.4,0.6-0.8,1-1.1c0,0,0.1,0,0.1-0.1
		c0.2-0.2,0.3-0.4,0.5-0.7c0.1-0.2,0.3-0.3,0.5-0.5s0.4-0.3,0.5-0.5c0.4-0.5,0.9-0.9,1.4-1.2c0.3-0.2,0.6-0.5,0.8-0.8
		c0.2-0.2,0.3-0.5,0.5-0.7c0.1-0.1,0.1-0.2,0.1-0.3c0.2-0.3,0.4-0.7,0.6-1c0.3-0.4,0.6-0.9,0.9-1.3c0.1-0.2,0.2-0.4,0.3-0.5
		s0.1-0.2,0.1-0.4c0-0.3,0.1-0.6,0.1-0.9c0-0.1,0-0.2,0-0.3c0-0.3,0.1-0.5,0.1-0.8s0-0.5,0-0.8c-0.1-0.4-0.1-0.9-0.4-1.2l-0.1-0.1
		c-0.1,0-0.3,0-0.4,0C43,8.8,42.8,9,42.6,9.1c-0.1,0.1-0.1,0.2-0.2,0.2c-0.1,0.2-0.2,0.4-0.4,0.5c-0.1,0-0.2,0.1-0.3,0
		s-0.2-0.3-0.3-0.4c-0.1-0.3-0.2-0.5-0.3-0.8C41,8.4,40.9,8,40.7,7.7c-0.1-0.2-0.2-0.5-0.4-0.7c-0.1-0.3-0.3-0.5-0.4-0.8
		c-0.1-0.2-0.2-0.3-0.3-0.4c-0.3-0.2-0.6-0.3-0.9-0.4c-0.3-0.1-0.7-0.2-1-0.2c-0.3-0.1-0.6-0.1-1-0.2c-0.3,0-0.6,0-0.9,0
		c-0.2,0-0.3,0-0.5,0.1c-0.1,0-0.2,0.1-0.3,0.1c-0.3,0-0.6,0.1-0.9,0.1c-0.2,0-0.3,0.1-0.4,0.3c-0.1,0.2-0.2,0.5-0.3,0.7v0.1
		c0.1,0.1,0.2,0.1,0.3,0.2s0.3,0.1,0.4,0.2C34.6,7,35,7.2,35.5,7.5c0.1,0.1,0.3,0.2,0.4,0.3c0.2,0.1,0.3,0.3,0.5,0.4
		c0.5,0.4,1,0.8,1.5,1.2C38,9.5,38,9.6,38.1,9.8c0,0,0,0.1,0.1,0.1c0.3,0.3,0.4,0.6,0.6,1c0,0,0,0,0,0.1c0.1,0.2,0.1,0.5,0.2,0.7
		c0.1,0.4,0.2,0.7,0.3,1.1c0.1,0.5,0,1-0.1,1.4c-0.1,0.2-0.2,0.5-0.2,0.7c0,0.1-0.1,0.2-0.2,0.4c-0.1,0.2-0.2,0.3-0.3,0.5
		s-0.2,0.3-0.3,0.4s-0.2,0.1-0.3,0.2c-0.2,0.2-0.5,0.4-0.8,0.5C37,16.9,37,17,36.9,17c-0.2,0.2-0.6,0.3-0.9,0.5
		c-0.2,0.1-0.5,0.2-0.7,0.3c0,0-0.1,0-0.2,0.1c-0.1,0-0.2,0.1-0.3,0.1s-0.1,0.1-0.2,0.1c-0.2,0-0.4,0.1-0.6,0.1
		c-0.3,0.1-0.6,0.1-0.9,0.1c-0.2,0-0.5,0-0.7,0c-0.1,0.3-0.2,0.5-0.4,0.8c-0.1,0.2-0.1,0.4-0.2,0.5c-0.2,0.4-0.5,0.8-0.7,1.2
		c-0.1,0.1-0.1,0.1,0,0.2s0.1,0.3-0.1,0.4c-0.1,0.1-0.2,0.1-0.3,0.1h-0.1c-0.1,0.2-0.3,0.4-0.4,0.6s-0.3,0.4-0.4,0.5
		C29.8,22.8,29.6,23,29.5,23.2z M12.7,17.8c-0.1-0.1-0.2-0.1-0.2-0.1c-0.2-0.1-0.4-0.2-0.5-0.4c-0.2-0.3-0.3-0.6-0.3-0.9
		c0-0.1,0-0.3,0-0.4s0-0.2-0.1-0.1c-0.3,0-0.4-0.1-0.6-0.3c-0.1-0.1-0.1-0.1-0.1,0c-0.1,0.2-0.2,0.3-0.3,0.5c0,0.1,0,0.1-0.1,0.2
		c0,0.2,0,0.4-0.1,0.6c0,0.1,0,0.3-0.1,0.3c-0.1,0.2-0.2,0.3-0.2,0.5c-0.1,0.1-0.4,0.2-0.4,0.1c-0.1-0.2-0.3-0.4-0.3-0.7
		c0-0.1,0-0.2-0.1-0.3C9.1,16.5,9,16.3,9,16.2c-0.1-0.2-0.3-0.3-0.4-0.5c-0.1,0.1-0.1,0.2-0.1,0.3c-0.1,0.3-0.2,0.6-0.2,0.9
		c0,0.1-0.1,0.2-0.1,0.3c0,0.5-0.1,0.9-0.2,1.4c0,0.2-0.1,0.3-0.2,0.4s-0.1,0.1-0.2,0s-0.1-0.2-0.2-0.3c-0.1-0.2-0.3-0.4-0.3-0.7
		c0-0.1,0-0.3-0.1-0.4c0-0.3-0.1-0.6-0.1-0.9c0-0.2-0.1-0.4-0.3-0.6c0,0.1-0.1,0.2-0.1,0.2c-0.1,0.2-0.1,0.3-0.2,0.5
		c0,0.1-0.1,0.2-0.1,0.2c0,0.2,0,0.4-0.1,0.5C6,17.7,5.9,17.9,6,18.1c0,0.1,0,0.1,0,0.2c-0.1,0.3-0.1,0.6-0.1,0.9c0,0.1,0,0.2,0,0.3
		c0,0.1,0,0.2,0.1,0.2c0,0.1,0.1,0.1,0.1,0.2s0,0.3,0.1,0.4c0.1,0.2,0.2,0.5,0.3,0.7c0.2,0.3,0.4,0.7,0.7,1c0.2,0.2,0.5,0.4,0.8,0.5
		c0.2,0.1,0.4,0,0.4-0.2c0-0.1,0.1-0.3,0.2-0.4c0.1-0.1,0.2-0.3,0.2-0.4c0.1-0.1,0.1-0.2,0.1-0.3C9,21,9,20.8,8.9,20.7
		c0-0.1-0.1-0.1-0.1-0.2c0-0.2,0-0.5,0-0.7c0-0.1,0-0.2,0-0.3c0,0,0,0,0.1,0c0.1,0.1,0.2,0.2,0.3,0.2s0.2,0.1,0.2,0.2
		c0.1,0.2,0.2,0.4,0.4,0.5c0-0.1,0.1-0.2,0.1-0.2c0.1-0.1,0.1-0.2,0.2-0.4c0.1-0.1,0.1-0.1,0.2-0.2c0.1,0,0.2-0.1,0.3-0.2
		s0.2-0.2,0.4-0.3h0.1c0.1,0.2,0.2,0.3,0.2,0.5c0.1,0.2,0.2,0.4,0.4,0.5c0.1,0.1,0.2,0.1,0.2,0.2c0.1,0.2,0.2,0.3,0.4,0.3
		c0.1,0,0.1,0.1,0.2,0.2c0.1,0.1,0.1,0.2,0.1,0.3c0.1,0.2,0.2,0.3,0.4,0.2c0,0,0,0,0-0.1s0-0.2,0.1-0.3c0-0.1,0-0.3,0.2-0.3
		s0.3,0,0.4,0.2c0,0.1,0.1,0.2,0.1,0.2c0,0.1,0.1,0.1,0.2,0.1c0.1,0,0.2-0.1,0.2-0.2s0-0.1,0-0.2c0.1,0.1,0.1,0.1,0.1,0.2
		c0.1-0.1,0.1-0.2,0.1-0.2c0.2-0.2,0.1-0.4,0.1-0.6s-0.1-0.5-0.1-0.7s-0.1-0.4-0.2-0.6c0,0-0.1-0.1-0.1-0.2C14,18.4,14,18.1,14,17.9
		c-0.1-0.3-0.2-0.5-0.3-0.8s-0.1-0.7-0.2-1c0-0.2-0.1-0.5-0.1-0.7c-0.1-0.3-0.2-0.7-0.3-1c-0.1-0.2-0.1-0.3-0.2-0.5
		c-0.1,0.2-0.1,0.4-0.1,0.5c0,0.2-0.1,0.3-0.1,0.5c-0.2,0.3-0.3,0.6-0.3,0.9c0,0.3,0,0.6-0.1,0.9c0,0,0.1,0,0.2,0
		C12.7,17.4,12.7,17.6,12.7,17.8z M26.5,23.9c0-0.2-0.1-0.3-0.1-0.4c0-0.2-0.1-0.3-0.1-0.5s-0.1-0.4-0.1-0.6c0-0.1,0-0.2,0-0.2
		c0-0.2,0-0.3,0-0.5s0-0.3-0.1-0.5c0-0.2,0-0.4-0.1-0.6c0-0.2,0-0.4,0-0.5c0-0.2,0-0.4,0-0.6c0-0.4,0-0.8,0-1.2c0-0.1,0-0.3,0-0.4
		c0-0.2,0.1-0.4,0-0.5c0-0.1,0-0.3,0-0.4c0-0.2,0-0.5,0.1-0.7c0-0.2,0-0.4,0.1-0.6c0-0.1,0-0.3,0-0.4c0-0.1,0-0.1,0-0.2
		c0-0.1,0-0.2,0-0.3s0-0.1,0-0.2c0-0.2,0-0.4,0-0.6c0-0.2,0-0.4,0.1-0.7h-0.1c-0.4,0-0.8,0-1.2,0.1c-0.4,0-0.7,0.1-1.1,0.1
		c-0.1,0-0.2,0-0.3,0c0,0.1,0.1,0.2,0.1,0.2c0,0.2,0,0.4,0,0.6c0,0.2-0.1,0.4-0.1,0.6c0,0.2,0,0.4,0,0.6c0,0.2,0,0.4,0,0.6
		c0,0.3-0.1,0.5-0.1,0.8c0,0.2,0,0.3,0,0.5c0,0.4,0,0.8,0,1.2c0,0.5,0.1,1,0.1,1.4c0,0.2,0.1,0.4,0.1,0.6s0.1,0.3,0,0.5
		c0,0.2,0,0.3,0.1,0.4c0,0.1,0,0.2,0.1,0.3v0.1c0,0.1,0,0.1,0.1,0.2c0,0.1,0,0.2,0.1,0.3c0,0.2,0.1,0.3,0.1,0.5c0,0.1,0,0.3,0,0.4
		C24.8,23.5,25.6,23.7,26.5,23.9z M22.9,20.9c0-0.1-0.1-0.1-0.1-0.2s0-0.3,0-0.4s0-0.1,0-0.2c0-0.2,0-0.4,0-0.7c0-0.1,0-0.1,0-0.2
		c0-0.3-0.1-0.7-0.1-1c0-0.1,0-0.2-0.1-0.3c0-0.2,0-0.4,0-0.5c0-0.2,0-0.3,0-0.5s0-0.4,0.1-0.6c0-0.2,0-0.4,0.1-0.5
		c0-0.2,0.1-0.4,0.1-0.7s0-0.6,0-0.9C23,14,23,13.7,23,13.4c-0.1,0-0.2,0.1-0.2,0.1c-0.2,0.1-0.4,0.2-0.6,0.2
		c-0.5,0.1-0.9,0.3-1.4,0.5c-0.1,0.1-0.3,0.2-0.4,0.2s-0.1,0.1-0.1,0.2c0,0.2,0,0.3-0.1,0.5c-0.1,0.5-0.1,1-0.1,1.5
		c0,0.4,0,0.8,0,1.2c0,0.4,0,0.7-0.1,1.1V19c0,0.2,0,0.5,0,0.7s0.1,0.5,0.1,0.7c0,0.3,0.1,0.5,0.1,0.8c0,0.1,0,0.2,0.1,0.3
		c0,0.1,0.1,0.2,0.1,0.3c0,0.1,0.1,0.2,0.1,0.2c0.1,0.2,0.4,0.3,0.6,0.3c0.3,0.1,0.6,0.1,0.9,0.1c0.2,0,0.4,0,0.7,0.1
		c0.2,0,0.3-0.1,0.4-0.2c0-0.2,0-0.4,0-0.7c0-0.1,0-0.1,0-0.2S23,21.2,23,21.1C22.9,21.1,22.9,21,22.9,20.9L22.9,20.9z M28.4,22.5
		c0-0.3-0.1-0.6-0.1-0.9c0-0.4-0.1-0.8-0.1-1.2c0-0.2,0-0.3,0-0.5c0-0.3,0-0.7,0-1c0-0.4,0.1-0.7,0.1-1.1c0-0.2,0.1-0.5,0.1-0.7
		c0-0.4,0.1-0.7,0.1-1.1c0-0.1,0-0.2,0-0.2c0-0.3,0-0.5,0-0.8c-0.1-0.3-0.1-0.7,0-1c0-0.1,0-0.2,0-0.4c-0.3,0-0.6-0.1-0.8-0.1
		c-0.2,0-0.4,0-0.5-0.1c-0.1,0-0.1,0-0.2-0.1c-0.1,0-0.1,0-0.1,0.1c0,0.2,0,0.4,0,0.7s0,0.6,0,0.9c0,0.4,0,0.8-0.1,1.2
		c0,0.3-0.1,0.7-0.1,1c0,0.1,0,0.1,0,0.2s0,0.3,0,0.4c0,0.2,0,0.4,0,0.5c0,0.2,0,0.3,0,0.5s0,0.5,0,0.7s0,0.4,0,0.6
		c0,0.5,0.1,0.9,0.1,1.4c0,0.2,0,0.4,0.1,0.6c0,0.1,0.1,0.2,0.1,0.3c0.1,0.3,0.1,0.6,0.2,1c0,0.2,0.1,0.4,0.1,0.6
		c0.1,0,0.1-0.1,0.2-0.1c0.3-0.1,0.5-0.2,0.7-0.4c0.1-0.1,0.1-0.1,0-0.2S28,23.1,28,23c-0.1-0.1-0.1-0.2-0.2-0.2
		c-0.1-0.1-0.2-0.2-0.4-0.3l-0.1-0.1c0-0.1,0-0.2,0-0.3c0.1-0.1,0.2,0,0.2,0c0.1,0.1,0.2,0.1,0.3,0.2c0.1,0.1,0.2,0.1,0.3,0.2
		C28.2,22.5,28.3,22.5,28.4,22.5z M29.2,22.5L29.2,22.5c0.1-0.1,0.2-0.2,0.2-0.3c0.1-0.2,0.3-0.4,0.4-0.6c0.2-0.2,0.3-0.4,0.4-0.7
		v-0.1c-0.1-0.3-0.2-0.7-0.1-1c0-0.3,0.1-0.7,0.1-1c0-0.2,0.1-0.3,0.1-0.5c0-0.3,0.1-0.5,0.1-0.8s0.1-0.6,0.1-0.9s0.1-0.5,0.1-0.8
		s0.1-0.6,0.1-0.9c0-0.3,0-0.3-0.2-0.5c-0.3-0.2-0.7-0.3-1-0.5c-0.1,0-0.2-0.1-0.3-0.1c0,0.3,0,0.5,0,0.8s0.1,0.5,0.1,0.8
		c0,0.2,0,0.5,0,0.7c0,0.2,0,0.3-0.1,0.5c0,0.2,0,0.3-0.1,0.5c0,0.2-0.1,0.5-0.1,0.7s0,0.4-0.1,0.6c0,0.2,0,0.4,0,0.6s0,0.3,0,0.5
		s0,0.5,0,0.7s0,0.4,0,0.5c0,0.4,0.1,0.8,0.1,1.2C29.2,22.1,29.2,22.3,29.2,22.5z M11.5,11.6c0-0.2-0.1-0.4-0.3-0.6
		c-0.3-0.3-0.6-0.4-0.9-0.5c-0.2-0.1-0.4-0.1-0.6-0.2C9.3,10,9,9.9,8.6,9.7C8.5,9.6,8.4,9.6,8.3,9.6c-0.2,0-0.4,0.1-0.5,0.2
		c-0.1,0.1-0.2,0.1-0.2,0.3s0,0.4,0,0.7c0,0.4,0.1,0.7,0.3,1c0,0,0,0.1,0.1,0.1c0.2,0.3,0.3,0.6,0.3,0.9c0,0.2,0.1,0.4,0.3,0.4
		s0.4,0,0.6,0c0.1,0,0.2-0.1,0.4-0.1c0.1,0,0.2,0,0.2,0c0.3-0.1,0.6-0.2,0.9-0.4c0.1,0,0.2-0.1,0.2-0.1c0.1-0.1,0.1-0.1,0.1-0.2
		v-0.1c0.1-0.1,0.2-0.3,0.3-0.4C11.4,11.8,11.5,11.7,11.5,11.6z M7.3,7.9c0-0.3-0.1-0.5-0.3-0.6L6.9,7.2C6.8,7,6.6,6.9,6.3,6.8
		c-0.2,0-0.4,0-0.6,0C5.6,6.8,5.6,6.9,5.5,7c0,0.1-0.1,0.1-0.1,0.2c0,0.2,0,0.4,0,0.6c0,0.1,0,0.3,0,0.4c0,0.2,0,0.3,0,0.5
		S5.7,9,5.9,9.2c0,0.1,0.1,0.1,0.2,0.1c0.3,0,0.5-0.1,0.8-0.3C7,9,7,8.9,7.1,8.9c0.1-0.2,0.2-0.3,0.2-0.5l0,0
		C7.3,8.2,7.3,8.1,7.3,7.9z M13.5,11.7c0.2,0.1,0.3,0.1,0.4,0.2c0.3,0.1,0.5,0.2,0.8,0.3l0,0c0.2,0,0.3,0,0.5,0h0.1
		c0-0.1,0.1-0.2,0-0.3c0-0.1-0.1-0.3,0-0.4l0,0c0-0.2,0-0.3,0-0.5c0-0.3-0.1-0.3-0.2-0.4c-0.1,0-0.2,0-0.3,0.1
		c-0.1,0-0.2,0.1-0.2,0.1c-0.2,0.1-0.3,0.1-0.5,0.2c-0.1,0-0.2,0.1-0.2,0.3c0,0.1,0,0.1-0.1,0.2c0,0.1-0.1,0.1-0.1,0.2
		C13.6,11.4,13.6,11.5,13.5,11.7L13.5,11.7z"/>
	<path class="st0" d="M26.8,12c0-0.1-0.1-0.2,0-0.3c0-0.2,0.1-0.3,0.1-0.5c0.1-0.4,0.2-0.7,0.4-1.1c0-0.1,0.1-0.2,0.2-0.3
		c0.1-0.2,0.2-0.3,0.2-0.4c0.1-0.2,0.2-0.3,0.3-0.5c0.1-0.1,0.1-0.2,0.2-0.4c0.1-0.1,0.2-0.2,0.2-0.3s0.1-0.1,0.1-0.2
		c0.1-0.2,0.3-0.4,0.4-0.5s0.2-0.2,0.4-0.3c0.2-0.1,0.3-0.1,0.5,0c0.1,0.1,0.1,0.4,0.1,0.5c-0.1,0.3-0.3,0.5-0.4,0.8
		c-0.2,0.3-0.4,0.6-0.6,1c-0.1,0.2-0.2,0.4-0.3,0.6c-0.1,0.2-0.2,0.4-0.3,0.6c-0.1,0.2-0.2,0.3-0.3,0.5c-0.1,0.3-0.2,0.6-0.4,0.9
		c-0.1,0.1-0.1,0.2-0.3,0.3c-0.1,0-0.2,0.1-0.3,0.1c-0.2,0.1-0.3,0-0.4-0.1C26.8,12.2,26.8,12.1,26.8,12
		C26.8,12.1,26.8,12.1,26.8,12z"/>
</g>
</svg>
