<?xml version="1.0" encoding="utf-8"?>
<!-- Generator: Adobe Illustrator 22.0.0, SVG Export Plug-In . SVG Version: 6.00 Build 0)  -->
<svg version="1.1" id="Ebene_1" xmlns="http://www.w3.org/2000/svg" xmlns:xlink="http://www.w3.org/1999/xlink" x="0px" y="0px"
	 viewBox="0 0 45 40.2" style="enable-background:new 0 0 45 40.2;" xml:space="preserve">
<style type="text/css">
	.st0{fill:#151515;}
</style>
<g>
	<path class="st0" d="M25.9,27.5c-0.4,0.1-0.8,0.1-1.2,0.2c-0.9,0.1-1.7,0.2-2.6,0.3c-0.5,0.1-1,0.2-1.5,0.4c-0.1,0-0.1,0.1-0.1,0.1
		c-0.1,0.5-0.2,1-0.2,1.4c-0.1,1,0.1,1.9,0.5,2.9c0.2,0.5,0.3,1,0.5,1.6c0.4,0,0.8,0,1.2,0c0.3,0,0.7,0,1,0c0.3,0,0.5,0.1,0.5,0.5
		c0,0.4-0.2,0.7-0.6,0.7c-0.5,0-1.1,0.2-1.6-0.2c-0.1-0.1-0.4-0.1-0.5-0.1c-0.4-0.1-0.9-0.1-1.4-0.2c0.1,0.6,0.4,1.1,0.7,1.6
		c0.1,0.2,0.2,0.5,0.1,0.8c-0.2,0.5-0.6,0.5-1,0.4c-0.4-0.1-0.5-0.4-0.3-0.9c0-0.1,0-0.2,0-0.4c-0.2-0.5-0.4-0.9-0.5-1.4
		c-0.1-0.2-0.2-0.4-0.5-0.4c-0.2,0-0.3-0.1-0.6-0.1c0,0.4-0.1,0.9-0.1,1.3c0,0.4-0.1,0.9-0.1,1.3c0,0.2-0.2,0.4-0.4,0.4
		c-0.2,0-0.5-0.2-0.6-0.5c-0.1-0.5,0-1,0.1-1.6c0.1-0.5,0.3-1,0.3-1.5c0-0.5-0.1-1-0.2-1.5c-0.1-0.7-0.3-1.5-0.4-2.2
		c-0.1-0.5-0.1-1-0.1-1.5c0-0.4-0.1-0.4-0.5-0.4c-0.7,0.1-1.4,0.1-2.2,0.2c-0.6,0-1.2,0.1-1.9,0c-0.2,0-0.5,0-0.6-0.3
		c-0.1-0.3,0-0.5,0.2-0.6c0.3-0.1,0.7-0.1,1-0.1c0.9,0,1.8-0.1,2.8-0.1c0.3,0,0.6,0,0.8-0.1c0.3-0.1,0.6-0.3,1,0c0,0,0.1,0,0.1,0
		c1-0.1,2.1-0.3,3.2-0.4c1-0.1,1.9-0.5,2.9-0.5c0.8,0,1.6-0.2,2.4-0.3c0.1,0,0.1-0.3,0.2-0.5c0.2-0.1,0.5-0.1,0.8,0.1
		c0.1,0.1,0.2,0.1,0.3,0c0.5-0.1,1-0.2,1.6-0.3c0-0.1,0-0.1,0-0.1c-0.1-0.2-0.1-0.5,0.2-0.6c0.2-0.1,0.5-0.1,0.7,0.1
		c0.3,0.3,0.6,0.1,0.9,0.1c0.9-0.2,1.8-0.5,2.7-0.7c0.1,0,0.3,0.1,0.5,0c0.6-0.1,1.2-0.2,1.8-0.4c1.1-0.3,2.2-0.5,3.3-0.8
		c0.4-0.1,0.8-0.2,1.2-0.3c0.1,0,0.2-0.2,0.2-0.3c0-0.2,0-0.5,0-0.8c-0.6,0.2-1.1,0.5-1.7,0.3c-0.4-0.1-0.7-0.4-1-0.6
		c-0.5-0.4-0.6-0.5-1,0.1c-0.5,0.7-1.7,1.1-2.5,0.9c-0.2-0.1-0.5-0.2-0.7-0.4c-0.2,0.2-0.4,0.5-0.6,0.7c-0.3,0.3-0.6,0.2-0.7-0.2
		c-0.1-0.4-0.1-0.9-0.2-1.3c0-0.1,0-0.1,0-0.2c-0.5-0.3-0.4-0.7-0.3-1.2c0.1-0.5,0.2-1.1,0.4-1.6c0.1-0.5,0.6-0.6,1-0.2
		c0.1,0.1,0.2,0.1,0.3,0.2c0.2-0.3,0.3-0.7,0.5-1c0.1-0.2,0.4-0.4,0.5-0.4c0.2,0.1,0.4,0.3,0.6,0.4c0.1,0.1,0.2,0.3,0.3,0.5
		c0.1-0.2,0.2-0.3,0.3-0.5c0.2-0.7,1.6-1,2-0.3c0.3,0.4,0.7,0.9,1,1.3c0.1-0.1,0.3-0.3,0.4-0.5c0.3-0.3,0.6-0.4,1-0.4
		c0.1,0,0.2,0,0.2,0c0-0.3-0.1-0.5-0.1-0.8c0-0.6-0.5-0.9-0.8-1.2c-0.3-0.4-0.8-0.6-1.2-0.9c-0.4-0.3-0.8-0.6-1.2-0.8
		c-0.3-0.2-0.7-0.3-1.1-0.5c-0.8-0.3-1.6-0.7-2.5-1c-0.4-0.2-0.8-0.4-1.3-0.6c-0.1,0.5-0.2,0.9-0.4,1.2c-0.3,0.4-0.4,0.9-0.8,1.2
		c-0.1,0.1-0.3,0.3-0.3,0.4c-0.2,0.4-0.8,0.6-1.2,0.3c-0.5-0.4-1.1-0.9-1.6-1.4c-0.2-0.2-0.3-0.6-0.4-1c-0.2-0.8,0.1-1.5,0.5-2.2
		c0.3-0.6,0.9-0.8,1.5-0.9c-1.2-0.7-3.5-1.2-4.8,0.2c0.1,0.1,0.2,0.2,0.2,0.3c0,0.1-0.1,0.3-0.2,0.4c-0.1,0.1-0.4,0.1-0.4,0
		c-0.2-0.2-0.4-0.2-0.5,0c-0.2,0.2-0.4,0.4-0.6,0.6c-0.2,0.2-0.1,0.5,0.1,0.6c0.3,0.2,0.2,0.4,0,0.6c-0.2,0.2-0.5,0.2-0.7,0
		c-0.1-0.1-0.1-0.1-0.2-0.2c-0.2,0.4-0.4,0.9-0.6,1.3c-0.4,0.7-0.8,1.3-1.2,2c-0.2,0.4-0.4,0.8-0.6,1.3c-0.1,0.2,0.2,0.5,0.4,0.6
		c0.2,0.1,0.4,0.1,0.6,0.2c0.3,0,0.2,0.3,0.4,0.4c0,0,0,0.1,0,0.2c-0.2,0.2-0.4,0.4-0.6,0.5c-0.3,0.1-0.5,0.1-0.8-0.1
		c-0.1-0.1-0.3-0.1-0.5-0.2c-0.1-0.1-0.3-0.2-0.4-0.3c-0.3-0.2-0.5-0.3-0.9-0.3c-0.4,0.1-0.8,0.1-1.2,0.1c-0.2,0-0.3-0.1-0.5-0.2
		c-0.3-0.1-0.6-0.2-0.8-0.3c-0.4-0.2-0.8-0.4-1.2-0.6c-0.5-0.3-0.9-0.6-1.3-0.9c-0.4-0.3-0.7-0.7-1-1.1c-0.2-0.2-0.7-0.3-0.9-0.2
		c-0.6,0.2-1,0.6-1.5,1c-0.3,0.3-0.6,0.6-0.9,1c-0.4,0.7-0.8,1.4-1,2.2c-0.1,0.4,0,0.8-0.1,1.3c0,0.6,0,1.1-0.1,1.7
		c-0.1,0.7-0.2,1.3-0.2,2c0,0.5,0.1,1,0.1,1.5c0.1,0.7,0.2,1.4,0.2,2.1c0,0.4,0.3,0.8,0.1,1.3c0,0.1,0.1,0.4,0.1,0.5
		c0.1,0.3,0.1,0.7,0.2,1c0.1,0.4,0.3,0.9,0.4,1.3c0.1,0.6,0.5,1.1,0.5,1.8c0,0.4,0.3,0.8,0.5,1.1c0.2,0.3,0.4,0.5,0.6,0.8
		c0.1,0.2,0.2,0.2,0.3,0.1c0.2-0.1,0.5-0.2,0.7-0.2c-0.2-0.2-0.4-0.5-0.5-0.7c-0.5-0.7-0.8-1.5-0.7-2.4c0-0.6,0-1.3,0.1-1.9
		c0.1-0.5,0.4-1,0.6-1.4c0-0.1,0.4-0.1,0.5-0.1c0.1,0.1,0.3,0.4,0.3,0.5c-0.2,0.7-0.4,1.4-0.4,2.1c0,1.2,0.1,2.4,1.1,3.3
		c0.2,0.1,0.3,0.4,0.5,0.5c0.3,0.2,0.3,0.5,0.1,0.8c-0.1,0.2-0.1,0.4,0,0.6c0.3,0.7,0.7,1.4,1,2.1c0.1,0.2,0.3,0.4,0.4,0.7
		c0.1,0.2,0,0.4-0.3,0.5c-0.3,0.1-0.5,0-0.7-0.2c-0.1-0.3-0.2-0.5-0.4-0.8c-0.2-0.4-0.4-0.7-0.6-1.1c-0.2-0.4-0.3-0.7-0.5-1.1
		c-0.1-0.1-0.2-0.2-0.3-0.2c-0.3,0-0.5,0.1-0.7,0.2c0.1,0.2,0.1,0.3,0.1,0.4c0.1,0.4,0.1,0.9,0.2,1.4c0,0.2,0,0.4-0.1,0.6
		c-0.1,0.1-0.3,0.2-0.4,0.2c-0.1,0-0.3-0.1-0.3-0.3c-0.3-0.7-0.3-1.4-0.3-2.1c0-0.1,0.1-0.2,0.1-0.2c-0.1-0.1-0.1-0.2-0.2-0.3
		c-0.1-0.1-0.2-0.2-0.3-0.3c-0.2-0.2-0.5-0.4-0.6-0.6c-0.4-0.6-0.7-1.2-1-1.9c0-0.1,0-0.2,0-0.3c0-0.8-0.3-1.6-0.6-2.4
		c-0.1-0.4-0.2-0.7-0.2-1.1c-0.1-0.6-0.2-1.3-0.3-1.9c0-0.3-0.1-0.5-0.1-0.9c-0.1,0.2-0.1,0.3-0.1,0.4c-0.2,0.4-0.4,0.9-0.6,1.3
		c-0.2,0.4-0.4,0.8-0.6,1.2c-0.2,0.4-0.5,0.8-0.8,1.2c0,0.1,0,0.1-0.1,0.2c-0.1,0.1-0.2,0.3-0.4,0.3c-0.1,0-0.4-0.1-0.5-0.2
		c-0.4-0.7-0.9-1.5-1.3-2.3c-0.4-0.9-0.6-1.9-0.8-2.8c-0.2-1-0.4-2-0.6-3.1C0.2,21.9,0.1,21,0,20.2C0,18,0,15.8,0,13.6
		c0-0.8,0.1-1.7,0.1-2.5c0-0.4,0.1-0.7,0.3-1C0.6,9.6,1,9.7,1.2,10.1c0.6,1,0.9,2.1,1.3,3.1c0.5,1.5,1.2,2.9,2,4.3
		c0.3,0.5,0.6,1.1,1,1.6c0.1,0.2,0.2,0.3,0.4,0.4c0,0,0.1,0,0.1,0c0.2-0.6,0.4-1.3,0.6-1.9c0.1-0.4,0.3-0.7,0.5-1.1
		c0.2-0.4,0.4-0.8,0.6-1.1c0.4-0.5,0.8-1,1.3-1.4c0.7-0.6,1.4-1,2.4-0.7c0.3,0.1,0.6,0.3,0.8,0.5c0.6,0.7,1.3,1.1,2,1.6
		c0.5,0.4,1.1,0.4,1.6,0.5c0.8,0.1,1.5,0.4,2.3,0.7c0.3,0.1,0.4,0,0.4-0.3c0-0.2,0.1-0.5,0.3-0.7c0.7-1.2,1.4-2.4,2-3.5
		c0.1-0.2,0.2-0.5,0.3-0.7c0.1-0.4-0.1-0.7-0.3-1c-0.4-0.5-0.4-1-0.5-1.6C20.4,7.9,20.4,7,20.6,6c0.1-0.7,0.1-1.3,0.2-2
		c0.1-0.3,0.3-0.4,0.6-0.2c0.1,0.1,0.3,0.3,0.4,0.4c0.4,1.1,0.7,2.3,1,3.4c0,0.1,0.1,0.3,0.2,0.4c0,0.1,0.1,0.2,0.1,0.2
		c0.1,0.2,0.1,0.5,0.2,0.7c0.7-0.4,1.4-0.8,2.1-1c0.7-0.1,1.5,0,2.2,0c0-0.4,0.1-0.8,0.1-1.2c0-0.4,0-0.7,0-1.1
		c0.1-0.8,0.5-1.6,0.8-2.3c0.4-0.9,0.9-1.9,1.3-2.8c0-0.1,0.1-0.1,0.1-0.1c0.3-0.4,0.5-0.5,0.8-0.4C31,0.2,31.1,0.5,31,0.9
		c0,0.1-0.1,0.3-0.1,0.5c-0.1,1.1-0.1,2.2-0.1,3.2c0,0.6-0.1,1.2-0.1,1.9c0,0.6,0,1.1,0,1.7c0,0.4-0.1,0.7-0.2,1.2
		c0.6,0.2,1.1,0.4,1.7,0.6c0.7,0.2,1.1,0.7,1.3,1.3c0.2,0.6,0.5,1,1.1,1.2c0.6,0.2,1.3,0.5,1.9,0.8c0.3,0.1,0.6,0.4,0.9,0.6
		c1.1,0.7,2.1,1.5,3,2.4c0.1,0.1,0.2,0.2,0.2,0.3c0.1,0.9,0.2,1.7-0.1,2.6c-0.1,0.4-0.3,0.5-0.6,0.2c-0.2-0.1-0.3-0.2-0.4-0.4
		c-0.1-0.1-0.2-0.1-0.4,0.1c-0.1,0.2-0.3,0.4-0.5,0.6c-0.5,0.5-1.1,0.4-1.4-0.2c-0.1-0.2-0.3-0.5-0.5-0.7c-0.1-0.1-0.1-0.2-0.2-0.4
		c-0.1-0.2-0.3-0.3-0.4-0.2c-0.2,0.2-0.4,0.6-0.6,0.8c-0.2,0.2-0.4,0.5-0.6,0.7c-0.2,0.2-0.4,0.1-0.6-0.1c-0.1-0.2-0.2-0.4-0.3-0.6
		c-0.2,0.3-0.3,0.7-0.6,0.9c-0.3,0.3-0.7,0.1-0.9-0.3c0,0-0.1,0-0.1,0.1c0,0.4,0,0.9,0,1.4c0.3-0.2,0.5-0.2,0.8,0.1
		c0,0.1,0.1,0.1,0.1,0.2c0.5,1.1,1.5,0.8,2.1,0.2c0.3-0.3,0.5-0.6,0.8-0.8c0.3-0.3,0.8-0.2,1,0.1c0.3,0.3,0.6,0.6,1,0.8
		c0.1,0.1,0.4,0,0.6-0.1c0.4-0.2,0.8-0.4,1.2-0.6c0.3-0.2,0.7-0.1,0.7,0.2c0.1,0.8,0.2,1.6,0.3,2.4c0,0.2-0.3,0.5-0.6,0.6
		c-0.6,0.1-1.2,0.2-1.8,0.4c-0.3,0.1-0.3,0.2-0.2,0.5c0.7,1.6,1.5,3.2,2.2,4.8c0.4,0.8,0.6,1.7,0.9,2.5c0.1,0.3,0.4,0.6,0.5,0.9
		c0.3,0.6,0.7,1.2,1,1.7c0.2,0.3,0.5,0.6,0.7,0.9c0.1,0.1,0.1,0.3,0.1,0.4c0,0.1-0.1,0.2-0.2,0.2c-0.4,0.1-0.6,0.4-0.7,0.8
		c-0.1,0.6,0.2,1,0.6,1.4c0.1,0.1,0.3,0.2,0.3,0.4c0.1,0.2,0.1,0.4,0,0.5c-0.1,0.1-0.4,0.2-0.6,0.1c-0.3-0.2-0.5-0.5-0.7-0.8
		c-0.2-0.2-0.3-0.5-0.5-0.8c0,0.4-0.1,0.6-0.1,0.9c0,0.2,0,0.4,0,0.5c0,0.3-0.3,0.5-0.6,0.5c-0.3,0-0.4-0.2-0.4-0.5c0-0.7,0-1.3,0-2
		c0-0.1,0-0.2-0.1-0.2c-0.3-0.3-0.6-0.6-0.9-0.9c-0.3-0.3-0.5-0.6-0.7-1c-0.6-1.2-1.2-2.4-1.8-3.6c-0.8-1.6-1.6-3.1-2.5-4.6
		c-0.2-0.3-0.4-0.6-0.6-0.9c-0.1-0.2-0.3-0.4,0-0.6c-0.5-0.2-3.1,0.2-4.5,0.7c-0.1,1.2,0.1,2.4,0.4,3.6c0.1,0.5,0.4,0.9,0.6,1.4
		c0.1,0.3,0.2,0.6,0.4,0.9c0.2,0.4,0.4,0.8,0.7,1.2c0.1,0.3,0.4,0.4,0.3,0.8c0,0.1,0.3,0.4,0.4,0.6c0.4,0.4,0.9,0.7,1.3,1.1
		c0.1,0.1,0.3,0.3,0.3,0.5c0,0.1-0.1,0.3-0.3,0.3c-0.2,0-0.5,0-0.7-0.1c-0.7-0.4-1.2-1-1.7-1.6c-0.1-0.2-0.3-0.4-0.4-0.4
		c-0.2-0.1-0.4,0-0.8,0c0.6,0.9,1.1,1.7,1.6,2.5c0.1,0.2,0.3,0.5,0.3,0.7c0,0.3-0.2,0.5-0.5,0.4c-0.5-0.1-0.7-0.4-1-0.9
		c-0.4-0.8-0.8-1.7-1.2-2.5c0-0.1-0.2-0.1-0.3-0.1c-0.3,0.1-0.6,0.1-1,0.2c0.1,0.3,0.1,0.6,0.2,0.9c0.2,0.8,0.5,1.5,0.7,2.3
		c0.1,0.3-0.1,0.6-0.4,0.7c-0.3,0-0.6-0.1-0.8-0.4c-0.1-0.2-0.3-0.5-0.3-0.8c-0.1-0.9-0.4-1.8-0.7-2.7c-0.2-0.6-0.2-1.2-0.3-1.8
		c-0.1-0.9-0.3-1.9-0.5-2.8c-0.1-0.8-0.2-1.6-0.3-2.4C26,27.8,26,27.7,25.9,27.5z M1.2,12C1.2,12,1.1,12,1.2,12
		c-0.1,0.1-0.1,0.2-0.1,0.3c-0.1,1-0.1,1.9-0.2,2.9c0,1,0,2,0,2.9c0,0.1,0,0.2,0,0.3c0.1,1,0.2,2,0.3,2.9c0,0.5,0,1,0.1,1.4
		c0,0.5,0.1,0.9,0.2,1.4c0.3,1.7,0.8,3.3,1.5,4.8c0.1,0.3,0.3,0.6,0.5,0.9c0.5-1.2,1.4-2.2,1.6-3.4c0-0.2,0.3-0.5,0.3-0.7
		c0.1-0.5,0.2-0.9,0.5-1.2c0.1-0.1,0.1-0.2,0.1-0.3c0-0.6-0.1-1.3-0.1-1.9c0-0.5-0.2-0.9-0.4-1.4c-0.1-0.2-0.3-0.4-0.5-0.6
		c-0.2-0.3-0.4-0.6-0.6-0.9c-0.4-0.7-0.8-1.4-1.1-2.1c-0.2-0.4-0.3-0.8-0.5-1.1c-0.5-0.6-0.7-1.4-1-2.2C1.7,13.5,1.4,12.7,1.2,12z
		 M35.2,25.3c0.2,0.3,0.3,0.5,0.4,0.8c0.1,0.2,0.3,0.3,0.1,0.5c0,0,0,0.2,0.1,0.2c0.3,0.5,0.6,1,0.9,1.5c0.2,0.4,0.5,0.9,0.7,1.3
		c0.2,0.3,0.3,0.6,0.5,0.9c0.2,0.5,0.5,1.1,0.7,1.6c0.3,0.6,0.7,1.2,0.9,1.8c0.4,1,0.9,1.9,1.9,2.6c0.2-0.6,0.7-0.7,1.3-0.7
		c-0.4-0.8-0.8-1.5-1.3-2.2c-0.7-1-0.9-2.2-1.4-3.3c-0.2-0.4-0.3-0.8-0.5-1.2c-0.2-0.4-0.4-0.7-0.6-1.1c-0.2-0.6-0.4-1.1-0.7-1.7
		c-0.3-0.6-0.6-1.1-0.9-1.6C36.6,25,35.9,25.2,35.2,25.3z M30.9,33.7C30.9,33.7,31,33.7,30.9,33.7c0-0.1,0-0.1-0.1-0.2
		c-0.6-1-1.1-2-1.3-3.1c-0.3-1.1-0.4-2.2-0.6-3.3c0-0.2-0.1-0.3-0.3-0.2C28.3,26.9,28,27,27.7,27c-0.2,0.1-0.6,0.1-0.7,0.4
		c0,0.4,0,0.8,0.1,1.2c0,0.2,0.1,0.5,0.1,0.7c0.1,0.5,0.1,1,0.2,1.5c0.1,0.7,0.2,1.3,0.4,2c0.1,0.4,0.1,0.8,0.1,1.2
		C29,34,29.9,33.8,30.9,33.7z M20.1,34.3c-0.3-1-0.7-1.9-0.8-2.8c-0.1-0.9,0-1.9,0-2.8c-0.7,0-1.5,0-2.2,0c0,0.3,0.1,0.6,0.1,0.8
		c0.1,0.7,0.2,1.4,0.3,2.1c0.1,0.5,0.3,1,0.3,1.5c0,0.2-0.1,0.5,0.1,0.6c0.2,0.1,0.4,0.2,0.7,0.3c0.3,0.1,0.6,0.1,0.9,0.2
		C19.7,34.2,19.9,34.2,20.1,34.3z M32.7,11.5c0-0.3-0.3-0.7-0.7-0.8c-0.3-0.1-0.6-0.1-0.9-0.2c0.1,0.2,0.2,0.5,0.4,0.6
		C31.9,11.3,32.3,11.4,32.7,11.5z"/>
	<path class="st0" d="M8.7,35.8C9,36.2,9,36.3,8.8,36.7c-0.2,0.5-0.4,1.1-0.6,1.6c-0.1,0.2-0.2,0.4-0.5,0.4c-0.3,0-0.5-0.2-0.4-0.5
		c0.2-0.6,0.4-1.2,0.7-1.7C8.1,36.3,8.4,36.1,8.7,35.8z"/>
	<path class="st0" d="M45,38.1c-0.1,0.1-0.2,0.4-0.3,0.4c-0.2,0-0.5,0-0.6-0.1c-0.3-0.3-0.5-0.6-0.8-0.9c-0.1-0.2-0.2-0.4,0-0.6
		c0.2-0.2,0.4-0.1,0.6,0.1c0.3,0.3,0.6,0.5,0.8,0.8C44.9,37.8,44.9,38,45,38.1z"/>
</g>
</svg>
