<?xml version="1.0" standalone="no"?>
<!DOCTYPE svg PUBLIC "-//W3C//DTD SVG 20010904//EN"
 "http://www.w3.org/TR/2001/REC-SVG-20010904/DTD/svg10.dtd">
<svg version="1.0" xmlns="http://www.w3.org/2000/svg"
 width="720.000000pt" height="720.000000pt" viewBox="0 0 720.000000 720.000000"
 preserveAspectRatio="xMidYMid meet">
<metadata>
Created by potrace 1.11, written by Peter Selinger 2001-2013
</metadata>
<g transform="translate(0.000000,720.000000) scale(0.100000,-0.100000)"
fill="#000000" stroke="none">
<path d="M4796 6759 c-25 -28 -46 -55 -46 -60 0 -5 -21 -53 -46 -106 -42 -89
-136 -294 -169 -368 -36 -80 -80 -195 -92 -240 -3 -11 -7 -72 -9 -135 -2 -63
-6 -149 -10 -190 -4 -41 -7 -83 -6 -92 1 -20 -2 -20 -128 -17 -153 4 -212 0
-264 -17 -28 -9 -55 -20 -60 -25 -6 -5 -15 -9 -22 -9 -6 0 -57 -25 -113 -56
-56 -31 -104 -54 -106 -52 -2 2 -7 19 -10 38 -3 19 -19 62 -35 95 -23 47 -94
277 -115 375 -2 8 -19 65 -39 126 -32 99 -41 116 -81 153 -24 22 -51 41 -59
41 -29 0 -57 -35 -61 -75 -2 -22 -6 -65 -9 -95 -3 -30 -8 -80 -10 -110 -3 -31
-9 -85 -15 -120 -37 -235 -47 -425 -27 -518 15 -70 25 -92 87 -197 24 -41 28
-58 25 -93 -5 -43 -52 -151 -106 -242 -31 -52 -82 -144 -114 -202 -11 -21 -23
-38 -28 -38 -4 0 -8 -9 -8 -20 0 -11 -4 -20 -8 -20 -5 0 -14 -16 -22 -35 -8
-19 -17 -35 -20 -35 -4 0 -12 -12 -19 -27 -7 -16 -29 -52 -48 -82 -22 -33 -38
-70 -41 -97 -7 -67 -21 -72 -105 -44 -40 13 -76 27 -82 30 -9 6 -135 45 -175
55 -14 4 -66 12 -115 19 -89 13 -116 21 -162 44 -84 44 -232 152 -316 232
-121 114 -161 137 -259 146 -113 10 -209 -34 -347 -162 -111 -103 -179 -194
-258 -350 -74 -144 -78 -154 -133 -334 -17 -58 -34 -112 -37 -120 -4 -8 -5
-19 -4 -23 4 -19 -30 -16 -52 5 -25 25 -95 119 -113 153 -6 11 -37 65 -69 120
-120 207 -232 440 -310 645 -39 101 -97 256 -99 265 -7 31 -53 140 -88 210
-22 44 -46 90 -52 102 -6 13 -23 28 -38 34 -40 16 -65 -3 -99 -76 -27 -56 -31
-78 -37 -197 -9 -173 -9 -1449 0 -1508 4 -25 10 -85 13 -135 5 -75 14 -164 20
-185 1 -3 5 -25 9 -50 15 -82 26 -140 47 -240 11 -53 17 -84 25 -125 3 -16 18
-86 35 -155 48 -202 79 -281 184 -465 38 -66 78 -138 89 -159 24 -44 68 -76
107 -76 25 0 79 45 79 66 0 6 8 19 18 30 72 79 310 543 313 611 1 29 18 -37
24 -92 4 -48 8 -73 19 -140 2 -16 8 -50 11 -75 4 -25 9 -54 11 -64 2 -11 6
-44 9 -75 3 -31 8 -64 11 -73 2 -9 6 -25 9 -35 2 -10 21 -71 43 -135 23 -64
43 -132 46 -150 3 -18 8 -44 11 -57 2 -13 5 -51 6 -83 2 -48 11 -77 50 -156
87 -176 91 -182 187 -276 78 -75 109 -120 92 -131 -10 -6 -7 -170 5 -230 9
-45 34 -129 42 -141 32 -45 94 -28 113 31 7 21 9 54 5 83 -4 26 -9 65 -11 87
-4 49 -13 107 -27 178 -1 6 21 19 48 28 73 25 92 11 146 -110 49 -107 187
-363 216 -400 26 -33 94 -33 128 -1 32 30 30 39 -43 165 -29 50 -164 338 -172
366 -7 24 -5 42 8 73 31 71 26 84 -76 187 -71 71 -102 112 -130 168 -20 40
-37 78 -38 85 -1 6 -5 25 -8 41 -15 74 -18 106 -20 200 -3 120 5 174 42 317
19 71 20 80 6 108 -16 31 -39 48 -61 44 -7 -1 -21 -2 -30 -3 -29 -2 -108 -171
-122 -261 -8 -52 -15 -217 -13 -348 0 -63 29 -171 60 -229 40 -74 83 -141 106
-166 l25 -27 -42 -11 c-23 -6 -54 -17 -68 -25 -27 -13 -27 -13 -103 89 -88
118 -114 168 -121 234 -3 27 -8 56 -11 65 -3 9 -6 25 -8 35 -2 10 -14 43 -26
73 -12 30 -24 63 -26 73 -10 42 -14 56 -35 122 -13 39 -23 72 -23 75 -1 3 -7
23 -13 45 -16 52 -46 204 -45 230 0 11 1 38 2 60 1 39 -2 65 -15 106 -4 11 -8
52 -10 92 -5 92 -13 185 -20 217 -3 14 -7 57 -10 95 -4 39 -8 88 -10 110 -5
48 -6 198 -1 240 8 73 21 165 31 224 3 19 8 95 11 170 9 238 12 275 22 301 5
14 11 30 12 35 17 70 112 260 162 325 38 49 125 136 184 182 32 27 65 53 72
59 7 6 38 22 68 36 45 20 65 24 101 19 55 -7 73 -20 120 -82 49 -64 103 -114
210 -191 96 -68 280 -167 383 -203 36 -13 76 -30 88 -39 24 -15 157 -18 212
-5 58 14 143 -11 190 -54 11 -10 30 -24 43 -30 139 -67 183 -76 227 -45 49 34
80 67 80 84 0 30 -34 78 -60 85 -14 4 -27 8 -30 9 -3 1 -18 5 -35 10 -36 10
-76 39 -92 68 -9 17 -7 31 8 69 32 82 88 188 180 339 89 149 148 261 169 324
10 31 40 50 40 26 0 -5 17 -17 37 -26 35 -17 38 -17 69 0 26 14 54 50 54 70 0
2 -14 17 -31 33 -52 48 -47 71 32 152 38 38 72 70 77 70 4 0 21 -9 37 -20 39
-26 51 -25 80 5 29 28 32 61 9 86 -14 15 -12 20 28 52 43 35 116 76 147 82 9
2 36 8 61 14 61 14 271 4 301 -15 5 -3 21 -8 36 -10 24 -5 162 -60 171 -69 2
-2 -22 -11 -54 -21 -83 -24 -137 -64 -176 -132 -80 -137 -100 -219 -83 -332 5
-30 8 -58 7 -62 -1 -5 2 -8 6 -8 4 0 14 -20 21 -45 14 -47 78 -114 225 -234
89 -72 122 -85 176 -68 29 8 80 50 80 64 0 5 22 34 50 64 27 29 57 69 67 88
10 19 33 60 51 90 29 49 59 129 67 180 4 24 29 17 135 -32 52 -25 145 -64 205
-87 61 -23 115 -45 120 -49 6 -4 33 -16 60 -26 28 -10 73 -29 102 -42 28 -12
54 -23 58 -23 9 0 169 -81 175 -88 3 -4 28 -22 55 -41 100 -69 207 -141 209
-141 1 0 35 -32 75 -72 78 -77 98 -108 105 -160 2 -18 7 -57 11 -85 6 -42 5
-53 -6 -53 -101 -3 -151 -30 -213 -114 -10 -14 -23 -26 -27 -26 -5 0 -28 26
-51 58 -24 31 -45 59 -49 62 -3 3 -24 30 -48 61 -23 32 -56 63 -73 70 -64 26
-173 6 -225 -43 -12 -11 -34 -45 -49 -74 -15 -30 -30 -54 -33 -54 -4 0 -15 16
-25 35 -20 36 -111 102 -134 97 -31 -7 -67 -52 -103 -129 -21 -46 -41 -83 -44
-83 -11 0 -49 23 -69 41 -11 11 -28 20 -38 20 -10 1 -24 2 -30 2 -33 3 -59
-30 -82 -103 -28 -89 -66 -266 -66 -310 0 -33 25 -90 40 -90 13 0 22 -34 34
-140 12 -100 20 -131 41 -154 20 -22 28 -24 52 -16 16 6 42 27 58 47 17 20 40
47 53 61 l22 25 29 -20 c79 -59 202 -64 325 -13 72 30 113 63 182 144 17 20
40 36 51 36 12 0 56 -26 99 -58 143 -105 203 -117 341 -68 37 14 69 23 73 21
4 -3 5 -92 1 -130 -3 -27 -26 -37 -142 -66 -68 -17 -132 -33 -142 -35 -10 -2
-27 -6 -37 -9 -18 -6 -39 -11 -89 -21 -14 -3 -28 -7 -31 -9 -4 -2 -22 -7 -41
-10 -19 -3 -61 -13 -94 -21 -33 -9 -69 -18 -80 -20 -43 -8 -84 -18 -105 -26
-17 -7 -93 -26 -130 -34 -145 -28 -183 -34 -204 -30 -14 3 -76 -9 -138 -25
-62 -17 -120 -32 -128 -34 -8 -2 -49 -13 -90 -25 -41 -12 -93 -23 -115 -26
-22 -2 -50 -6 -61 -8 -12 -3 -37 6 -57 19 -19 13 -47 26 -63 29 -32 6 -93 -20
-95 -40 -1 -8 -2 -20 -3 -26 -1 -7 1 -21 6 -30 6 -12 3 -18 -10 -22 -18 -5
-106 -22 -157 -31 -16 -2 -51 -11 -77 -19 -27 -8 -48 -11 -48 -6 0 12 -53 31
-88 32 -38 1 -62 -17 -62 -47 0 -32 -17 -43 -80 -50 -30 -3 -73 -10 -95 -15
-63 -13 -124 -20 -240 -25 -59 -3 -111 -7 -115 -10 -4 -2 -21 -7 -38 -10 -18
-3 -62 -12 -99 -21 -102 -24 -106 -25 -138 -30 -40 -6 -86 -12 -165 -19 -36
-3 -72 -8 -80 -10 -8 -2 -40 -7 -70 -10 -30 -3 -62 -8 -70 -10 -8 -2 -40 -7
-70 -10 -30 -3 -72 -8 -92 -11 -21 -3 -46 0 -56 5 -37 20 -74 20 -125 0 -40
-16 -82 -21 -201 -25 -83 -3 -185 -6 -226 -8 -41 -2 -122 -5 -180 -6 -152 -4
-189 -19 -190 -81 0 -47 30 -72 96 -79 67 -8 264 -5 369 5 39 4 88 8 110 10
202 15 236 16 248 6 9 -6 14 -40 16 -93 3 -104 8 -176 16 -208 3 -14 8 -38 10
-55 2 -16 10 -64 19 -105 8 -41 20 -102 25 -135 19 -108 21 -120 27 -145 15
-65 12 -199 -7 -271 -10 -41 -22 -90 -25 -109 -3 -19 -9 -51 -13 -70 -12 -57
-13 -163 -2 -194 13 -31 27 -48 58 -64 30 -16 47 -15 73 6 24 19 24 20 34 157
4 50 9 117 13 150 7 76 10 115 12 139 1 16 6 17 39 11 20 -4 48 -9 62 -11 28
-5 80 -59 80 -84 0 -17 40 -130 62 -176 14 -28 14 -53 2 -145 -5 -40 -3 -50
17 -67 26 -25 101 -39 137 -26 51 18 85 99 64 154 -5 14 -10 30 -12 35 -1 6
-7 17 -15 25 -16 19 -91 177 -98 209 -6 23 -5 23 61 16 67 -6 75 -7 166 -20
26 -4 70 -18 97 -32 44 -21 61 -24 142 -22 128 4 151 11 172 55 21 44 13 118
-13 131 -9 4 -104 10 -211 13 l-194 5 -13 40 c-7 22 -23 76 -37 120 -14 44
-37 113 -51 154 -63 173 -75 338 -41 541 14 89 18 94 76 113 89 29 186 48 329
62 30 4 62 8 70 10 8 3 47 7 85 10 39 4 84 9 100 11 17 3 39 7 50 9 11 1 38 5
60 9 116 18 115 18 115 -14 0 -16 -5 -32 -11 -36 -10 -6 -9 -54 5 -144 2 -14
7 -50 11 -80 20 -172 18 -158 49 -310 13 -69 27 -141 30 -160 11 -68 27 -186
32 -230 2 -25 7 -61 10 -80 3 -19 8 -46 10 -60 3 -14 10 -41 16 -60 7 -19 13
-37 13 -40 0 -3 14 -45 30 -95 16 -49 30 -94 31 -100 16 -69 34 -158 37 -190
7 -58 18 -95 28 -95 5 0 9 -7 9 -17 0 -26 77 -93 108 -93 47 0 68 10 86 41 19
33 17 68 -9 144 -56 165 -80 246 -103 352 -21 93 -24 87 53 99 22 3 57 9 77
14 29 6 40 4 51 -9 17 -20 57 -103 57 -119 0 -7 5 -12 10 -12 6 0 10 -4 10 -9
0 -22 131 -280 166 -327 52 -70 123 -100 169 -70 43 28 32 78 -47 208 -34 55
-196 310 -215 335 -15 22 -15 23 18 25 106 4 104 5 189 -102 54 -68 149 -158
206 -196 55 -37 130 -50 172 -31 20 9 23 16 18 45 -6 43 -26 64 -143 159 -104
83 -168 162 -169 208 0 18 -18 55 -42 92 -23 34 -42 67 -42 73 0 5 -4 10 -10
10 -5 0 -10 4 -10 9 0 5 -22 48 -49 97 -27 49 -52 100 -56 114 -4 14 -30 74
-57 133 -28 59 -56 138 -64 175 -9 37 -17 76 -20 87 -30 133 -43 297 -35 432
1 18 12 26 59 40 31 9 62 18 67 19 6 1 42 10 80 19 71 17 81 19 145 29 19 3
46 8 60 10 108 18 275 29 293 19 4 -2 2 -13 -3 -24 -13 -23 -3 -43 89 -185 69
-107 181 -298 182 -311 1 -5 9 -19 19 -33 28 -41 287 -545 292 -567 0 -5 12
-25 24 -45 13 -21 24 -42 24 -46 0 -5 18 -42 40 -82 22 -40 40 -75 40 -78 0
-11 114 -229 140 -267 15 -22 72 -84 126 -138 l98 -99 1 -190 1 -191 26 -20
c24 -18 32 -19 67 -8 52 15 62 35 66 129 5 84 12 142 19 149 3 3 19 -20 36
-50 16 -30 39 -62 50 -72 11 -10 20 -23 20 -29 1 -21 75 -85 103 -90 16 -3 39
0 53 6 51 24 42 90 -23 155 -89 91 -115 160 -93 243 13 48 69 110 99 110 42 0
53 70 17 106 -9 8 -16 18 -16 22 0 4 -18 27 -40 52 -40 44 -136 197 -203 320
-19 36 -46 86 -61 111 -14 26 -47 109 -72 185 -51 158 -86 247 -96 252 -5 2
-8 11 -8 19 0 8 -9 32 -19 52 -10 20 -26 52 -34 71 -9 19 -38 82 -65 140 -27
58 -77 166 -111 240 -35 74 -74 160 -88 190 -37 79 -43 106 -30 125 11 14 77
37 147 51 14 3 34 8 45 11 11 3 31 7 45 9 92 9 151 38 171 85 6 15 8 44 4 65
-3 22 -8 57 -10 79 -5 46 -13 115 -20 165 -3 19 -7 53 -10 75 -5 42 -33 75
-64 75 -9 0 -65 -25 -126 -56 -151 -76 -178 -85 -215 -73 -16 6 -30 15 -30 20
0 5 -6 9 -13 9 -7 0 -44 29 -81 65 -37 36 -79 68 -92 71 -31 8 -80 -2 -99 -18
-8 -7 -20 -18 -27 -24 -7 -7 -42 -42 -78 -79 -98 -101 -184 -135 -262 -102
-40 17 -70 46 -92 91 -34 68 -75 93 -122 76 -14 -6 -26 -10 -27 -10 -2 0 0
217 2 234 0 5 16 -8 34 -28 26 -31 39 -38 68 -38 46 0 81 34 125 120 9 17 19
32 23 32 4 0 17 -20 29 -45 24 -51 62 -80 91 -70 11 3 37 27 58 53 21 25 47
56 58 67 11 12 33 41 50 66 59 88 82 93 117 26 11 -23 35 -60 53 -82 17 -22
42 -58 55 -80 35 -58 65 -81 111 -83 54 -4 102 26 168 104 30 35 60 64 66 64
6 0 26 -16 44 -35 39 -42 87 -69 107 -61 19 7 46 77 59 156 5 31 6 193 1 240
-9 86 -14 94 -104 180 -49 47 -103 96 -121 110 -18 14 -38 30 -44 35 -34 30
-134 105 -140 105 -4 0 -15 7 -24 14 -135 111 -291 196 -508 277 -116 43 -158
83 -203 196 -37 91 -92 161 -149 189 -21 10 -41 19 -45 20 -5 1 -9 2 -10 4 -2
1 -10 3 -18 5 -8 2 -53 18 -100 35 -47 18 -99 36 -117 41 -18 6 -34 13 -37 17
-2 4 2 34 9 67 9 38 16 153 19 310 3 138 8 313 11 390 2 77 7 217 10 310 7
190 8 212 22 271 21 88 -7 147 -74 152 -37 3 -44 -1 -87 -49z m247 -1646 c66
-9 76 -12 99 -23 51 -27 97 -87 83 -110 -3 -4 -26 -1 -52 7 -27 8 -52 16 -58
17 -53 14 -94 41 -113 75 -20 36 -20 57 0 45 5 -3 24 -8 41 -11z m-4803 -383
c88 -288 128 -392 187 -482 24 -36 58 -102 75 -145 78 -193 238 -471 331 -575
33 -37 41 -51 70 -118 36 -86 39 -104 52 -387 5 -106 4 -113 -18 -140 -31 -38
-55 -92 -62 -139 -3 -22 -16 -60 -29 -85 -13 -25 -29 -70 -35 -100 -13 -55
-92 -224 -157 -334 -19 -33 -47 -86 -62 -117 -15 -32 -29 -57 -32 -57 -15 0
-150 273 -150 303 0 3 -8 25 -19 49 -41 92 -121 381 -145 522 -8 48 -17 91
-21 105 -9 31 -27 209 -31 305 -2 55 -6 114 -8 130 -3 17 -8 62 -12 100 -3 39
-7 86 -10 105 -15 130 -18 205 -18 450 1 221 7 455 13 455 1 0 4 50 7 110 3
61 7 126 9 145 2 19 4 39 4 45 2 28 25 -25 61 -145z m5775 -1951 c79 -137 131
-242 175 -355 39 -101 52 -128 114 -240 12 -22 30 -60 40 -85 9 -24 33 -80 51
-124 18 -44 60 -154 93 -245 58 -162 92 -235 137 -295 52 -71 212 -343 203
-346 -2 -1 -12 -3 -23 -4 -92 -12 -136 -32 -162 -75 -9 -16 -23 -30 -29 -30
-20 0 -143 131 -187 199 -24 36 -55 93 -69 126 -39 89 -123 262 -156 325 -27
50 -45 88 -90 190 -9 19 -16 37 -17 40 -2 11 -70 147 -90 180 -12 19 -48 84
-80 145 -33 60 -94 168 -137 239 -54 88 -75 132 -69 140 7 8 -5 41 -34 101
-24 50 -44 93 -45 96 0 4 21 10 48 15 26 4 49 8 52 9 77 18 117 29 125 34 6 3
30 13 55 23 25 9 46 17 47 17 1 1 22 -35 48 -80z m-1390 -311 c4 -24 9 -54 11
-68 1 -14 5 -35 7 -46 7 -30 16 -87 22 -142 3 -26 8 -54 10 -62 2 -8 7 -31 10
-50 37 -217 108 -417 216 -601 22 -39 38 -73 36 -76 -3 -3 -22 -7 -43 -9 -20
-2 -51 -5 -68 -8 -166 -25 -355 -41 -357 -29 -1 4 -3 37 -5 72 -2 36 -11 92
-19 125 -22 85 -44 191 -50 240 -3 22 -7 52 -10 66 -6 28 -13 84 -20 150 -7
68 -25 183 -30 199 -3 8 -8 54 -11 103 -8 127 9 145 151 164 28 3 51 7 52 8 1
0 22 2 46 4 l45 2 7 -42z m-1540 -483 c1 -258 6 -292 84 -519 23 -66 41 -122
41 -126 0 -13 -99 0 -205 27 -69 17 -141 48 -151 64 -4 7 -8 46 -10 88 -1 42
-11 110 -22 151 -17 63 -37 182 -57 335 -3 17 -9 62 -14 100 -6 39 -10 80 -11
93 l0 22 173 -2 172 -3 0 -230z"/>
<path d="M1374 1067 c-6 -7 -30 -29 -52 -50 -45 -41 -59 -65 -104 -177 -47
-117 -58 -159 -48 -186 5 -13 13 -24 17 -25 5 0 17 -2 28 -5 61 -13 85 18 145
187 22 62 47 128 55 146 19 39 19 57 0 93 -17 33 -24 36 -41 17z"/>
<path d="M6950 922 c-23 -8 -39 -34 -40 -62 0 -17 24 -53 75 -113 42 -48 79
-87 83 -88 4 0 26 -3 48 -5 38 -4 43 -2 62 27 18 29 20 69 2 69 -4 0 -42 34
-85 75 -82 80 -120 106 -145 97z"/>
</g>
</svg>
